<svg width="100" height="100" viewBox="0 0 100 100" fill="none" xmlns="http://www.w3.org/2000/svg">
<path opacity="0.4" d="M73.0416 32.375C72.7499 32.3334 72.4582 32.3334 72.1666 32.375C65.7082 32.1667 60.5833 26.875 60.5833 20.375C60.5833 13.75 65.9582 8.33334 72.6249 8.33334C79.2499 8.33334 84.6666 13.7083 84.6666 20.375C84.6249 26.875 79.4999 32.1667 73.0416 32.375Z" fill="#F3BE18"/>
<path opacity="0.4" d="M86.6251 61.25C81.9584 64.375 75.4168 65.5416 69.3751 64.75C70.9584 61.3333 71.7918 57.5417 71.8334 53.5417C71.8334 49.375 70.9167 45.4167 69.1667 41.9584C75.3334 41.125 81.8751 42.2916 86.5834 45.4166C93.1668 49.75 93.1668 56.875 86.6251 61.25Z" fill="#F3BE18"/>
<path opacity="0.4" d="M26.8332 32.375C27.1249 32.3334 27.4166 32.3334 27.7083 32.375C34.1666 32.1667 39.2916 26.875 39.2916 20.375C39.2916 13.75 33.9166 8.33334 27.2499 8.33334C20.6249 8.33334 15.2083 13.7083 15.2083 20.375C15.2499 26.875 20.3749 32.1667 26.8332 32.375Z" fill="#F3BE18"/>
<path opacity="0.4" d="M27.2917 53.5417C27.2917 57.5833 28.1667 61.4167 29.75 64.875C23.875 65.5 17.75 64.25 13.25 61.2917C6.66667 56.9167 6.66667 49.7916 13.25 45.4166C17.7083 42.4166 24 41.2083 29.9167 41.875C28.2083 45.375 27.2917 49.3333 27.2917 53.5417Z" fill="#F3BE18"/>
<path d="M50.5 66.125C50.1667 66.0833 49.7917 66.0833 49.4167 66.125C41.75 65.875 35.625 59.5833 35.625 51.8333C35.625 43.9167 42 37.5 49.9583 37.5C57.875 37.5 64.2917 43.9167 64.2917 51.8333C64.2917 59.5833 58.2083 65.875 50.5 66.125Z" fill="#F3BE18"/>
<path d="M36.9583 74.75C30.6666 78.9583 30.6666 85.875 36.9583 90.0417C44.1249 94.8333 55.8749 94.8333 63.0416 90.0417C69.3333 85.8333 69.3333 78.9167 63.0416 74.75C55.9166 69.9583 44.1666 69.9583 36.9583 74.75Z" fill="#F3BE18"/>
</svg>
