<svg width="477" height="295" viewBox="0 0 477 295" fill="none" xmlns="http://www.w3.org/2000/svg">
<path d="M396.07 10.1919L452.854 2.2959L447.646 58.9539L396.07 10.1919Z" fill="#F5F5F5"/>
<path d="M438.778 40.7121L415.287 18.5054L325.484 113.503L348.975 135.709L438.778 40.7121Z" fill="#F5F5F5"/>
<path d="M447.618 85.4069L476.213 81.4309L473.588 109.963L447.618 85.4069Z" fill="#F5F5F5"/>
<path d="M469.136 100.767L457.309 89.5868L412.088 137.424L423.915 148.604L469.136 100.767Z" fill="#F5F5F5"/>
<path d="M40.519 121.772L69.114 117.796L66.489 146.321L40.519 121.772Z" fill="#F5F5F5"/>
<path d="M62.0154 137.15L50.1885 125.97L4.96723 173.807L16.7942 184.987L62.0154 137.15Z" fill="#F5F5F5"/>
<path d="M133.539 171.478L110.048 149.271L-5.60112e-05 265.684L23.4911 287.89L133.539 171.478Z" fill="#F5F5F5"/>
<path d="M83.1981 44.8768C84.0928 50.9389 83.169 57.1302 80.5436 62.667C77.9181 68.2039 73.709 72.8373 68.4491 75.981C63.1891 79.1246 57.1148 80.6371 50.9948 80.327C44.8749 80.0169 38.9846 77.8982 34.0693 74.239C29.1541 70.5797 25.4349 65.5445 23.3826 59.7707C21.3302 53.9968 21.037 47.7438 22.5399 41.8032C24.0429 35.8626 27.2744 30.5015 31.8256 26.3983C36.3768 22.2951 42.043 19.6343 48.1071 18.7528C52.1265 18.1639 56.2226 18.3724 60.1615 19.3666C64.1003 20.3607 67.8048 22.121 71.0633 24.5469C74.3219 26.9727 77.0706 30.0167 79.1527 33.5049C81.2348 36.9931 82.6094 40.8573 83.1981 44.8768Z" fill="#F5F5F5"/>
<path d="M75.904 45.9338C76.5912 50.5548 75.8916 55.2758 73.8939 59.499C71.8962 63.7222 68.6902 67.2575 64.6818 69.6574C60.6735 72.0573 56.0432 73.2137 51.3772 72.9802C46.7112 72.7467 42.2194 71.1339 38.4706 68.3459C34.7219 65.5578 31.8848 61.7201 30.3186 57.3186C28.7525 52.9171 28.5277 48.1498 29.6727 43.6205C30.8177 39.0912 33.2811 35.0035 36.7509 31.8751C40.2206 28.7467 44.5407 26.7183 49.164 26.0468C55.3466 25.1413 61.6358 26.7273 66.6498 30.4563C71.6637 34.1852 74.9922 39.7521 75.904 45.9338Z" fill="#F5F5F5"/>
<path d="M75.7921 45.2059C75.6521 45.2059 75.4071 44.2189 74.7701 42.4829C73.8832 40.0461 72.622 37.7624 71.0321 35.7139C69.9385 34.3168 68.6944 33.0444 67.3221 31.9199C65.7472 30.6435 64.0159 29.5732 62.1701 28.7349C60.1299 27.8149 57.9682 27.1926 55.7511 26.8869C54.5914 26.7287 53.4213 26.6608 52.2511 26.6839C51.0355 26.7112 49.8235 26.8282 48.6251 27.0339C47.4382 27.2565 46.2686 27.563 45.1251 27.9509C44.0113 28.3359 42.9279 28.8039 41.8841 29.3509C40.8755 29.8831 39.909 30.4915 38.9931 31.1709C38.1088 31.8074 37.2734 32.5094 36.4941 33.2709C35.0477 34.6946 33.7914 36.2992 32.7561 38.0449C31.8528 39.5712 31.1226 41.1936 30.5791 42.8819C29.7701 45.3567 29.3544 47.9432 29.3471 50.5469C29.3471 52.3949 29.4591 53.4309 29.3471 53.4519C29.2351 53.4729 28.8921 52.4789 28.6471 50.5819C28.3618 47.8888 28.5802 45.1661 29.2911 42.5529C30.3444 38.6228 32.3965 35.0322 35.2481 32.1299C36.9297 30.4096 38.8598 28.9514 40.9741 27.8039C42.0966 27.1935 43.2672 26.6761 44.4741 26.2569C45.7132 25.825 46.984 25.4903 48.2751 25.2559C49.5685 25.0359 50.8764 24.9119 52.1881 24.8849C53.4621 24.8693 54.7353 24.9536 55.9961 25.1369C57.2128 25.3116 58.4136 25.5831 59.5871 25.9489C60.7132 26.2894 61.8109 26.7177 62.8701 27.2299C66.5436 28.9626 69.7071 31.615 72.0541 34.9299C73.6257 37.1396 74.7723 39.6225 75.4351 42.2519C75.8831 44.1279 75.8971 45.1849 75.7921 45.2059Z" fill="#F5F5F5"/>
<path d="M57.214 62.874L57.865 66.934L54.246 67.515L53.609 63.56C49.99 63.917 46.364 63.35 44.124 62.111L45.405 57.365C47.7188 58.4893 50.2865 58.9888 52.853 58.814L51.88 52.759C47.68 52.43 42.997 51.807 42.164 46.627C41.548 42.784 43.809 39.039 49.43 37.471L48.786 33.446L52.412 32.865L53.049 36.813C55.6615 36.5432 58.3007 36.8983 60.749 37.849L59.65 42.595C57.787 41.8788 55.8 41.5409 53.805 41.601L54.792 47.761C58.992 48.062 63.598 48.692 64.417 53.802C65.033 57.547 62.8 61.278 57.214 62.874ZM51.026 47.432L50.207 42.287C48.352 43.029 47.764 44.205 47.953 45.402C48.142 46.599 49.353 47.187 51.026 47.432ZM58.663 55.174C58.46 53.9 57.263 53.382 55.653 53.074L56.451 58.079C58.201 57.4 58.845 56.329 58.663 55.174Z" fill="#F5F5F5"/>
<path d="M462.948 224.945C463.843 231.007 462.919 237.198 460.293 242.735C457.668 248.272 453.459 252.905 448.199 256.049C442.939 259.193 436.865 260.705 430.745 260.395C424.625 260.085 418.734 257.966 413.819 254.307C408.904 250.648 405.185 245.613 403.132 239.839C401.08 234.065 400.787 227.812 402.29 221.871C403.793 215.931 407.024 210.569 411.576 206.466C416.127 202.363 421.793 199.702 427.857 198.821C435.974 197.633 444.231 199.718 450.811 204.617C457.392 209.516 461.757 216.828 462.948 224.945Z" fill="#F5F5F5"/>
<path d="M455.654 226.002C456.338 230.623 455.636 235.343 453.637 239.565C451.637 243.786 448.43 247.32 444.421 249.717C440.412 252.115 435.781 253.269 431.116 253.034C426.45 252.799 421.96 251.185 418.212 248.396C414.465 245.607 411.629 241.768 410.065 237.367C408.5 232.965 408.276 228.199 409.422 223.67C410.568 219.141 413.032 215.055 416.502 211.927C419.971 208.8 424.291 206.772 428.914 206.101C435.099 205.196 441.39 206.784 446.404 210.515C451.419 214.247 454.746 219.818 455.654 226.002Z" fill="#F5F5F5"/>
<path d="M455.542 225.274C455.402 225.274 455.15 224.287 454.52 222.558C453.632 220.122 452.371 217.838 450.782 215.789C449.688 214.392 448.444 213.119 447.072 211.995C445.499 210.714 443.767 209.641 441.92 208.803C440.922 208.351 439.893 207.972 438.84 207.669C437.747 207.347 436.631 207.113 435.501 206.969C434.342 206.808 433.171 206.738 432.001 206.759C430.786 206.789 429.574 206.906 428.375 207.109C427.188 207.331 426.018 207.637 424.875 208.026C423.76 208.408 422.676 208.876 421.634 209.426C420.624 209.953 419.657 210.559 418.743 211.239C417.859 211.876 417.023 212.578 416.244 213.339C414.798 214.762 413.539 216.364 412.499 218.106C411.601 219.635 410.872 221.257 410.322 222.943C409.541 225.413 409.147 227.989 409.153 230.58C409.153 232.428 409.265 233.464 409.153 233.485C409.041 233.506 408.698 232.512 408.453 230.622C408.174 227.926 408.395 225.202 409.104 222.586C410.163 218.656 412.217 215.066 415.068 212.163C415.889 211.32 416.774 210.54 417.714 209.832C418.689 209.087 419.722 208.42 420.801 207.837C421.925 207.229 423.095 206.712 424.301 206.29C425.542 205.864 426.812 205.529 428.102 205.289C429.395 205.068 430.703 204.946 432.015 204.925C433.289 204.907 434.562 204.989 435.823 205.17C437.037 205.347 438.235 205.619 439.407 205.982C440.533 206.323 441.631 206.751 442.69 207.263C446.363 208.999 449.528 211.65 451.881 214.963C453.451 217.173 454.598 219.656 455.262 222.285C455.633 224.203 455.647 225.253 455.542 225.274Z" fill="#F5F5F5"/>
<path d="M436.964 242.942L437.615 247.002L433.989 247.583L433.359 243.635C429.74 243.992 426.114 243.418 423.874 242.179L425.148 237.447C427.464 238.564 430.03 239.064 432.596 238.896L431.623 232.841C427.423 232.505 422.733 231.882 421.907 226.702C421.291 222.859 423.552 219.114 429.173 217.546L428.529 213.521L432.148 212.947L432.778 216.902C435.39 216.634 438.028 216.986 440.478 217.931L439.379 222.684C437.516 221.966 435.529 221.625 433.534 221.683L434.521 227.843C438.721 228.144 443.327 228.774 444.146 233.884C444.748 237.643 442.543 241.346 436.964 242.942ZM430.748 227.507L429.922 222.362C428.074 223.104 427.479 224.273 427.675 225.47C427.871 226.667 429.103 227.255 430.748 227.507ZM438.448 235.242C438.245 233.975 437.048 233.457 435.438 233.142L436.236 238.147C437.951 237.447 438.595 236.404 438.448 235.242Z" fill="#F5F5F5"/>
<path d="M474.414 294.014C474.414 294.112 368.357 294.196 237.562 294.196C106.767 294.196 0.681641 294.112 0.681641 294.014C0.681641 293.916 106.718 293.832 237.562 293.832C368.406 293.832 474.414 293.909 474.414 294.014Z" fill="#172833"/>
<g filter="url(#filter0_d_352_27601)">
<path d="M390 89H103C100.791 89 99 90.7909 99 93V260C99 262.209 100.791 264 103 264H390C392.209 264 394 262.209 394 260V93C394 90.7909 392.209 89 390 89Z" fill="#F5F5F5"/>
</g>
<path d="M390.5 89H102.5C100.567 89 99 90.567 99 92.5C99 94.433 100.567 96 102.5 96H390.5C392.433 96 394 94.433 394 92.5C394 90.567 392.433 89 390.5 89Z" fill="#172833"/>
<path d="M104 92.5C104 92.797 103.912 93.0873 103.747 93.3341C103.582 93.5809 103.347 93.7731 103.072 93.8865C102.798 93.9998 102.496 94.0291 102.205 93.9707C101.914 93.9122 101.646 93.7687 101.437 93.5582C101.227 93.3478 101.085 93.0799 101.028 92.7885C100.971 92.497 101.002 92.1952 101.116 91.9213C101.231 91.6473 101.424 91.4135 101.672 91.2495C101.919 91.0855 102.21 90.9987 102.507 91C102.703 91 102.898 91.0389 103.08 91.1143C103.261 91.1898 103.426 91.3004 103.565 91.4398C103.704 91.5791 103.814 91.7446 103.888 91.9265C103.963 92.1085 104.001 92.3034 104 92.5Z" fill="#F5F5F5"/>
<path d="M112 92.5C112 92.7967 111.912 93.0867 111.747 93.3334C111.582 93.58 111.348 93.7723 111.074 93.8858C110.8 93.9994 110.498 94.0291 110.207 93.9712C109.916 93.9133 109.649 93.7704 109.439 93.5607C109.23 93.3509 109.087 93.0836 109.029 92.7926C108.971 92.5017 109.001 92.2001 109.114 91.926C109.228 91.6519 109.42 91.4176 109.667 91.2528C109.913 91.088 110.203 91 110.5 91C110.697 90.9991 110.893 91.0373 111.075 91.1124C111.257 91.1874 111.423 91.2979 111.563 91.4373C111.702 91.5768 111.813 91.7425 111.888 91.9249C111.963 92.1073 112.001 92.3028 112 92.5Z" fill="#F5F5F5"/>
<path d="M120 92.5C120 92.7967 119.853 93.0867 119.579 93.3334C119.304 93.58 118.914 93.7723 118.457 93.8858C118 93.9994 117.497 94.0291 117.012 93.9712C116.527 93.9133 116.082 93.7704 115.732 93.5607C115.383 93.3509 115.144 93.0836 115.048 92.7926C114.952 92.5017 115.001 92.2001 115.19 91.926C115.38 91.6519 115.7 91.4176 116.111 91.2528C116.522 91.088 117.006 91 117.5 91C118.163 91 118.799 91.158 119.268 91.4393C119.737 91.7206 120 92.1022 120 92.5Z" fill="#6E18F3"/>
<path d="M245.64 239.547L245.395 239.407L187.68 207.249L142.74 238.294L142.341 237.72L187.645 206.423L245.493 238.665L336.822 139.034L337.34 139.51L245.64 239.547Z" fill="#172833"/>
<path d="M269.874 230.251C270.016 234.3 268.953 238.299 266.822 241.744C264.69 245.189 261.585 247.924 257.898 249.604C254.212 251.284 250.11 251.833 246.112 251.182C242.113 250.531 238.398 248.709 235.435 245.946C232.473 243.183 230.396 239.603 229.467 235.66C228.539 231.717 228.801 227.587 230.22 223.792C231.639 219.998 234.151 216.709 237.439 214.343C240.727 211.976 244.643 210.638 248.692 210.497C251.38 210.402 254.061 210.837 256.581 211.778C259.101 212.72 261.41 214.149 263.378 215.983C265.345 217.818 266.931 220.022 268.046 222.471C269.161 224.919 269.782 227.563 269.874 230.251Z" fill="#6E18F3"/>
<g opacity="0.1">
<path d="M248.692 210.497C243.263 210.689 238.132 213.028 234.428 217.002C230.724 220.975 228.749 226.257 228.938 231.686C228.938 231.686 243.344 231.826 246.599 225.911C249.854 219.996 248.692 210.497 248.692 210.497Z" fill="#F5F5F5"/>
</g>
<path d="M264.631 230.111C264.738 233.188 263.931 236.228 262.311 238.847C260.69 241.465 258.33 243.544 255.528 244.821C252.726 246.098 249.609 246.515 246.569 246.02C243.53 245.525 240.706 244.14 238.455 242.04C236.203 239.94 234.624 237.219 233.919 234.222C233.213 231.225 233.412 228.085 234.491 225.201C235.569 222.317 237.479 219.818 239.978 218.019C242.477 216.22 245.454 215.203 248.531 215.096C252.657 214.952 256.671 216.454 259.69 219.269C262.71 222.085 264.487 225.985 264.631 230.111Z" fill="#6E18F3"/>
<g opacity="0.2">
<path d="M264.631 230.111C264.738 233.188 263.931 236.228 262.311 238.847C260.69 241.465 258.33 243.544 255.528 244.821C252.726 246.098 249.609 246.515 246.569 246.02C243.53 245.525 240.706 244.14 238.455 242.04C236.203 239.94 234.624 237.219 233.919 234.222C233.213 231.225 233.412 228.085 234.491 225.201C235.569 222.317 237.479 219.818 239.978 218.019C242.477 216.22 245.454 215.203 248.531 215.096C252.657 214.952 256.671 216.454 259.69 219.269C262.71 222.085 264.487 225.985 264.631 230.111Z" fill="#172833"/>
</g>
<path d="M265.093 230.741C265.199 233.777 264.403 236.776 262.804 239.359C261.206 241.942 258.877 243.993 256.113 245.253C253.349 246.513 250.274 246.924 247.276 246.436C244.277 245.948 241.491 244.581 239.27 242.51C237.048 240.438 235.491 237.754 234.795 234.797C234.099 231.84 234.295 228.743 235.359 225.898C236.423 223.053 238.307 220.587 240.773 218.813C243.238 217.038 246.174 216.035 249.21 215.929C253.28 215.787 257.24 217.268 260.219 220.046C263.197 222.824 264.951 226.671 265.093 230.741Z" fill="#6E18F3"/>
<g opacity="0.2">
<path d="M265.093 230.741C265.199 233.777 264.403 236.776 262.804 239.359C261.206 241.942 258.877 243.993 256.113 245.253C253.349 246.513 250.274 246.924 247.276 246.436C244.277 245.948 241.491 244.581 239.27 242.51C237.048 240.438 235.491 237.754 234.795 234.797C234.099 231.84 234.295 228.743 235.359 225.898C236.423 223.053 238.307 220.587 240.773 218.813C243.238 217.038 246.174 216.035 249.21 215.929C253.28 215.787 257.24 217.268 260.219 220.046C263.197 222.824 264.951 226.671 265.093 230.741Z" fill="#F5F5F5"/>
</g>
<path d="M250.309 229.929L250.169 226.002C250.887 226.06 251.594 226.218 252.269 226.471C252.619 226.634 252.954 226.829 253.27 227.052L253.319 226.933L253.872 225.491L253.998 225.162L253.298 224.462L252.962 224.623C252.062 224.198 251.086 223.96 250.092 223.923L250.015 221.76L249.315 221.242V221.788H248.391L248.468 223.993C245.444 224.385 244.065 226.17 244.135 228.193C244.226 230.895 246.571 231.511 248.748 231.966L248.881 235.858C247.467 235.791 246.1 235.325 244.94 234.514L244.128 236.509C245.555 237.467 247.239 237.972 248.958 237.958L249.014 239.589L248.251 239.631L249.028 240.121L250.624 240.065L250.547 237.881C253.592 237.461 254.992 235.704 254.922 233.716C254.866 230.979 252.486 230.377 250.309 229.929ZM248.699 229.572C247.558 229.285 246.704 228.872 246.676 227.948C246.648 227.024 247.201 226.373 248.58 226.114L248.699 229.572ZM250.512 235.725L250.393 232.281C251.569 232.575 252.444 232.981 252.493 233.94C252.507 234.78 251.926 235.466 250.512 235.725Z" fill="#6E18F3"/>
<g opacity="0.3">
<path d="M250.309 229.929L250.169 226.002C250.887 226.06 251.594 226.218 252.269 226.471C252.619 226.634 252.954 226.829 253.27 227.052L253.319 226.933L253.872 225.491L253.998 225.162L253.298 224.462L252.962 224.623C252.062 224.198 251.086 223.96 250.092 223.923L250.015 221.76L249.315 221.242V221.788H248.391L248.468 223.993C245.444 224.385 244.065 226.17 244.135 228.193C244.226 230.895 246.571 231.511 248.748 231.966L248.881 235.858C247.467 235.791 246.1 235.325 244.94 234.514L244.128 236.509C245.555 237.467 247.239 237.972 248.958 237.958L249.014 239.589L248.251 239.631L249.028 240.121L250.624 240.065L250.547 237.881C253.592 237.461 254.992 235.704 254.922 233.716C254.866 230.979 252.486 230.377 250.309 229.929ZM248.699 229.572C247.558 229.285 246.704 228.872 246.676 227.948C246.648 227.024 247.201 226.373 248.58 226.114L248.699 229.572ZM250.512 235.725L250.393 232.281C251.569 232.575 252.444 232.981 252.493 233.94C252.507 234.78 251.926 235.466 250.512 235.725Z" fill="#172833"/>
</g>
<path d="M249.91 237.335L249.98 239.519L248.384 239.575L248.314 237.412C246.595 237.426 244.911 236.921 243.484 235.963L244.296 233.968C245.456 234.779 246.823 235.245 248.237 235.312L248.104 231.42C245.92 230.965 243.582 230.349 243.491 227.64C243.421 225.659 244.8 223.874 247.824 223.475L247.747 221.277L249.343 221.221L249.42 223.384C250.817 223.394 252.189 223.755 253.41 224.434L252.71 226.422C251.722 225.892 250.635 225.573 249.518 225.484L249.658 229.418C251.835 229.866 254.215 230.468 254.313 233.17C254.348 235.158 252.948 236.922 249.91 237.335ZM248.048 229.047L247.929 225.582C246.529 225.848 245.99 226.569 246.025 227.423C246.06 228.277 246.879 228.774 248.048 229.047ZM251.828 233.415C251.793 232.463 250.918 232.05 249.728 231.756L249.847 235.2C251.247 234.955 251.828 234.269 251.8 233.429L251.828 233.415Z" fill="#6E18F3"/>
<path d="M244.877 229.222C244.686 229.12 244.525 228.97 244.408 228.788C244.09 228.369 243.917 227.858 243.918 227.332C243.923 226.807 244.095 226.297 244.408 225.876C244.53 225.698 244.69 225.55 244.877 225.442C244.877 225.442 244.709 225.617 244.499 225.939C244.219 226.352 244.07 226.84 244.07 227.339C244.07 227.838 244.219 228.326 244.499 228.739C244.702 229.047 244.891 229.208 244.877 229.222Z" fill="#F5F5F5"/>
<path d="M248.139 223.146C248.059 222.944 248.026 222.726 248.041 222.509C248.012 222.293 248.031 222.073 248.097 221.865C248.179 222.067 248.212 222.285 248.195 222.502C248.227 222.718 248.208 222.939 248.139 223.146Z" fill="#F5F5F5"/>
<path d="M249.924 214.641C249.756 214.659 249.587 214.659 249.42 214.641C249.259 214.641 249.063 214.641 248.832 214.641C248.601 214.641 248.349 214.641 248.062 214.641C247.775 214.641 247.46 214.676 247.124 214.711C246.788 214.746 246.424 214.802 246.06 214.858C244.434 215.148 242.862 215.684 241.398 216.447C241.069 216.629 240.747 216.79 240.46 216.972C240.173 217.154 239.907 217.322 239.676 217.483C239.445 217.644 239.228 217.798 239.046 217.931C238.885 218.044 238.731 218.165 238.584 218.295C238.459 218.406 238.326 218.506 238.185 218.596C238.294 218.47 238.413 218.352 238.542 218.246C238.661 218.134 238.808 218.008 238.99 217.868C239.172 217.728 239.375 217.553 239.613 217.392C239.851 217.231 240.103 217.042 240.397 216.867C240.691 216.692 240.999 216.51 241.335 216.321C242.073 215.939 242.838 215.611 243.624 215.341C244.412 215.087 245.216 214.888 246.032 214.746C246.417 214.697 246.774 214.641 247.11 214.613C247.446 214.585 247.768 214.571 248.055 214.564C248.342 214.557 248.608 214.564 248.839 214.564C249.202 214.576 249.564 214.606 249.924 214.655V214.641Z" fill="#F5F5F5"/>
<path d="M287.326 248.92C292.761 248.868 297.125 244.42 297.073 238.984C297.021 233.549 292.572 229.185 287.137 229.237C281.702 229.289 277.338 233.738 277.39 239.173C277.442 244.609 281.891 248.973 287.326 248.92Z" fill="#6E18F3"/>
<g opacity="0.1">
<path d="M286.87 229.264C284.262 229.355 281.796 230.479 280.016 232.387C278.236 234.296 277.287 236.834 277.378 239.442C277.378 239.442 284.301 239.512 285.862 236.642C287.423 233.772 286.87 229.264 286.87 229.264Z" fill="#F5F5F5"/>
</g>
<path d="M294.521 238.686C294.573 240.164 294.185 241.623 293.407 242.881C292.629 244.138 291.496 245.137 290.151 245.75C288.805 246.363 287.308 246.564 285.849 246.326C284.39 246.089 283.034 245.424 281.952 244.416C280.87 243.408 280.112 242.102 279.773 240.663C279.434 239.224 279.529 237.716 280.046 236.331C280.564 234.946 281.48 233.746 282.68 232.882C283.879 232.017 285.308 231.528 286.786 231.476C287.767 231.441 288.746 231.599 289.667 231.942C290.587 232.286 291.43 232.807 292.149 233.477C292.867 234.146 293.447 234.951 293.854 235.845C294.261 236.739 294.488 237.704 294.521 238.686Z" fill="#6E18F3"/>
<g opacity="0.2">
<path d="M294.521 238.686C294.573 240.164 294.185 241.623 293.407 242.881C292.629 244.138 291.496 245.137 290.151 245.75C288.805 246.363 287.308 246.564 285.849 246.326C284.39 246.089 283.034 245.424 281.952 244.416C280.87 243.408 280.112 242.102 279.773 240.663C279.434 239.224 279.529 237.716 280.046 236.331C280.564 234.946 281.48 233.746 282.68 232.882C283.879 232.017 285.308 231.528 286.786 231.476C287.767 231.441 288.746 231.599 289.667 231.942C290.587 232.286 291.43 232.807 292.149 233.477C292.867 234.146 293.447 234.951 293.854 235.845C294.261 236.739 294.488 237.704 294.521 238.686Z" fill="#172833"/>
</g>
<path d="M288.983 246.438C292.96 245.552 295.466 241.609 294.58 237.632C293.694 233.655 289.751 231.149 285.774 232.035C281.797 232.921 279.291 236.863 280.177 240.841C281.063 244.818 285.006 247.324 288.983 246.438Z" fill="#6E18F3"/>
<g opacity="0.2">
<path d="M288.983 246.438C292.96 245.552 295.466 241.609 294.58 237.632C293.694 233.655 289.751 231.149 285.774 232.035C281.797 232.921 279.291 236.863 280.177 240.841C281.063 244.818 285.006 247.324 288.983 246.438Z" fill="#F5F5F5"/>
</g>
<path d="M287.64 238.602L287.577 236.712C287.923 236.744 288.264 236.82 288.592 236.936C288.758 237.016 288.917 237.11 289.068 237.216V237.16L289.334 236.46L289.397 236.306L289.047 235.963L288.886 236.04C288.448 235.831 287.971 235.714 287.486 235.697L287.451 234.654L287.115 234.409V234.668H286.667L286.709 235.725C285.253 235.914 284.609 236.775 284.609 237.727C284.658 239.029 285.778 239.323 286.828 239.54L286.891 241.409C286.211 241.376 285.553 241.153 284.994 240.765L284.609 241.724C285.292 242.188 286.1 242.432 286.926 242.424V243.208H286.562L286.933 243.446H287.703L287.661 242.396C289.124 242.193 289.796 241.346 289.761 240.394C289.831 239.106 288.69 238.847 287.64 238.602ZM286.87 238.427C286.324 238.287 285.911 238.098 285.897 237.65C285.883 237.202 286.149 236.894 286.814 236.768L286.87 238.427ZM287.731 241.388L287.675 239.729C288.242 239.869 288.662 240.072 288.676 240.527C288.69 240.982 288.417 241.255 287.738 241.388H287.731Z" fill="#6E18F3"/>
<g opacity="0.3">
<path d="M287.64 238.602L287.577 236.712C287.923 236.744 288.264 236.82 288.592 236.936C288.758 237.016 288.917 237.11 289.068 237.216V237.16L289.334 236.46L289.397 236.306L289.047 235.963L288.886 236.04C288.448 235.831 287.971 235.714 287.486 235.697L287.451 234.654L287.115 234.409V234.668H286.667L286.709 235.725C285.253 235.914 284.609 236.775 284.609 237.727C284.658 239.029 285.778 239.323 286.828 239.54L286.891 241.409C286.211 241.376 285.553 241.153 284.994 240.765L284.609 241.724C285.292 242.188 286.1 242.432 286.926 242.424V243.208H286.562L286.933 243.446H287.703L287.661 242.396C289.124 242.193 289.796 241.346 289.761 240.394C289.831 239.106 288.69 238.847 287.64 238.602ZM286.87 238.427C286.324 238.287 285.911 238.098 285.897 237.65C285.883 237.202 286.149 236.894 286.814 236.768L286.87 238.427ZM287.731 241.388L287.675 239.729C288.242 239.869 288.662 240.072 288.676 240.527C288.69 240.982 288.417 241.255 287.738 241.388H287.731Z" fill="#172833"/>
</g>
<path d="M287.451 242.158V243.208H286.688L286.646 242.165C285.82 242.173 285.012 241.928 284.329 241.465L284.721 240.506C285.278 240.894 285.933 241.118 286.611 241.15L286.548 239.281C285.505 239.064 284.378 238.77 284.329 237.468C284.329 236.516 284.959 235.655 286.429 235.466L286.394 234.409H287.157L287.192 235.445C287.863 235.45 288.523 235.624 289.11 235.949L288.76 236.908C288.287 236.652 287.764 236.499 287.227 236.46L287.297 238.35C288.34 238.56 289.488 238.847 289.53 240.149C289.586 241.108 288.914 241.955 287.451 242.158ZM286.541 238.182L286.485 236.523C285.827 236.649 285.554 236.992 285.568 237.405C285.582 237.818 285.995 238.042 286.548 238.182H286.541ZM288.361 240.282C288.361 239.827 287.92 239.624 287.36 239.484L287.416 241.143C288.095 241.01 288.375 240.688 288.361 240.282Z" fill="#6E18F3"/>
<path d="M285.036 238.259C284.943 238.212 284.863 238.142 284.805 238.056C284.658 237.852 284.577 237.608 284.574 237.356C284.573 237.103 284.657 236.857 284.812 236.656C284.924 236.502 285.029 236.439 285.036 236.446C285.043 236.453 284.952 236.53 284.854 236.684C284.714 236.89 284.641 237.135 284.644 237.384C284.646 237.622 284.719 237.853 284.854 238.049C284.952 238.147 285.043 238.252 285.036 238.259Z" fill="#F5F5F5"/>
<path d="M286.604 235.347C286.604 235.347 286.562 235.214 286.555 235.039C286.518 235.03 286.486 235.009 286.464 234.978C286.442 234.947 286.433 234.909 286.437 234.871C286.441 234.834 286.459 234.799 286.487 234.774C286.516 234.749 286.552 234.735 286.59 234.735C286.628 234.735 286.664 234.749 286.692 234.774C286.721 234.799 286.739 234.834 286.743 234.871C286.747 234.909 286.738 234.947 286.716 234.978C286.694 235.009 286.662 235.03 286.625 235.039C286.641 235.142 286.634 235.247 286.604 235.347Z" fill="#F5F5F5"/>
<path d="M287.458 231.259H286.548C286.408 231.259 286.261 231.259 286.1 231.259C285.939 231.259 285.771 231.301 285.589 231.329C285.2 231.397 284.816 231.492 284.441 231.616C284.068 231.748 283.704 231.903 283.349 232.078C283.188 232.169 283.034 232.246 282.901 232.33L282.523 232.575L282.215 232.792L281.998 232.967C281.937 233.022 281.872 233.071 281.802 233.114L281.977 232.946C282.045 232.878 282.118 232.815 282.194 232.757C282.278 232.694 282.376 232.61 282.488 232.533C282.61 232.443 282.736 232.358 282.866 232.281C283.006 232.19 283.16 232.106 283.321 232.022C283.674 231.834 284.041 231.674 284.42 231.546C284.796 231.42 285.183 231.327 285.575 231.266C285.757 231.266 285.932 231.21 286.093 231.196H286.548H286.919C287.014 231.188 287.111 231.188 287.206 231.196C287.292 231.209 287.376 231.23 287.458 231.259Z" fill="#F5F5F5"/>
<path d="M142.537 246.351C146.94 246.351 150.51 242.781 150.51 238.378C150.51 233.975 146.94 230.405 142.537 230.405C138.134 230.405 134.564 233.975 134.564 238.378C134.564 242.781 138.134 246.351 142.537 246.351Z" fill="#6E18F3"/>
<path d="M187.687 214.459C192.09 214.459 195.66 210.889 195.66 206.486C195.66 202.083 192.09 198.513 187.687 198.513C183.284 198.513 179.714 202.083 179.714 206.486C179.714 210.889 183.284 214.459 187.687 214.459Z" fill="#6E18F3"/>
<path d="M335.842 147.245C340.245 147.245 343.815 143.675 343.815 139.272C343.815 134.869 340.245 131.299 335.842 131.299C331.439 131.299 327.869 134.869 327.869 139.272C327.869 143.675 331.439 147.245 335.842 147.245Z" fill="#6E18F3"/>
<path d="M233.551 53.732C235.798 52.3702 238.218 51.3177 240.747 50.603L242.231 43.47L254.278 43.26L256.007 50.33C258.56 50.9592 261.018 51.9268 263.315 53.207L269.405 49.217L278.071 57.617L274.298 63.84C275.66 66.0796 276.719 68.4899 277.448 71.008L284.574 72.492L284.784 84.539L277.693 86.247C277.066 88.8 276.101 91.2578 274.823 93.555L278.806 99.645L270.448 108.325L264.225 104.559C261.973 105.916 259.551 106.969 257.022 107.688L255.538 114.814L243.498 115.024L241.748 107.947C239.197 107.317 236.742 106.349 234.447 105.07L228.357 109.06L219.698 100.702L223.471 94.479C222.112 92.228 221.059 89.8056 220.342 87.276L213.216 85.792L213.006 73.752L220.076 72.016C220.707 69.4644 221.672 67.0072 222.946 64.708L218.963 58.625L227.328 49.959L233.551 53.732ZM239.97 69.776C238.194 71.6147 237.004 73.9385 236.55 76.4536C236.095 78.9686 236.397 81.562 237.416 83.9058C238.436 86.2495 240.127 88.2383 242.277 89.6206C244.427 91.0029 246.938 91.7167 249.493 91.6716C252.049 91.6266 254.534 90.8248 256.633 89.3676C258.733 87.9103 260.353 85.8632 261.29 83.485C262.226 81.1068 262.436 78.5044 261.893 76.0069C261.35 73.5094 260.079 71.229 258.24 69.454C257.019 68.2748 255.579 67.3477 254 66.7257C252.421 66.1036 250.735 65.7988 249.038 65.8288C247.341 65.8587 245.667 66.2227 244.111 66.9C242.555 67.5772 241.148 68.5546 239.97 69.776Z" fill="#F5F5F5"/>
<path d="M275.81 6.111C277.121 5.31612 278.534 4.70159 280.01 4.284L280.878 0.146999L287.948 0L288.963 4.13C290.455 4.49318 291.891 5.05592 293.233 5.803L296.782 3.479L301.843 8.379L299.645 12.012C300.44 13.3236 301.054 14.7363 301.472 16.212L305.63 17.073L305.756 24.073L301.626 25.088C301.257 26.5793 300.692 28.0152 299.946 29.358L302.277 32.907L297.377 37.968L293.744 35.77C292.432 36.5649 291.019 37.1794 289.544 37.597L288.648 41.79L281.613 41.909L280.605 37.779C279.113 37.4115 277.677 36.8465 276.335 36.099L272.779 38.43L267.718 33.53L269.923 29.897C269.128 28.5854 268.513 27.1727 268.096 25.697L263.931 24.829L263.812 17.829L267.942 16.821C268.304 15.3285 268.866 13.8921 269.615 12.551L267.291 8.995L272.191 3.934L275.824 6.139L275.81 6.111ZM279.548 15.484C278.512 16.5581 277.818 17.9152 277.553 19.3837C277.289 20.8522 277.465 22.3662 278.061 23.7343C278.657 25.1024 279.644 26.2632 280.9 27.07C282.155 27.8767 283.621 28.2932 285.113 28.2668C286.605 28.2404 288.056 27.7722 289.282 26.9216C290.508 26.0709 291.454 24.8758 292.001 23.4875C292.547 22.0992 292.67 20.5799 292.354 19.1216C292.038 17.6634 291.296 16.3318 290.223 15.295C289.51 14.6061 288.668 14.0644 287.745 13.701C286.823 13.3376 285.837 13.1596 284.846 13.1772C283.855 13.1947 282.876 13.4075 281.967 13.8033C281.058 14.1991 280.236 14.7702 279.548 15.484Z" fill="#F5F5F5"/>
<path d="M246.886 14.0771C248.161 13.7529 249.313 13.0624 250.2 12.0909C251.087 11.1193 251.67 9.90921 251.877 8.61005C252.507 4.94905 250.246 1.49805 246.809 0.910051C243.372 0.322051 240.089 2.80005 239.452 6.45405C239.204 7.75731 239.349 9.10471 239.867 10.3258C240.385 11.5469 241.254 12.5868 242.364 13.314C232.564 13.139 231.227 23.611 231.227 23.611L253.837 27.545C253.837 27.545 256.133 17.1151 246.886 14.0771Z" fill="#172833"/>
<path d="M323.9 34.4471C324.701 33.6146 325.24 32.5652 325.45 31.4291C325.661 30.293 325.533 29.1202 325.083 28.0561C324.849 27.3298 324.467 26.6596 323.962 26.0873C323.457 25.515 322.84 25.053 322.149 24.7301C321.457 24.4071 320.707 24.2302 319.944 24.2104C319.181 24.1905 318.422 24.3282 317.715 24.6148C317.008 24.9013 316.367 25.3307 315.833 25.8759C315.299 26.4212 314.884 27.0706 314.612 27.7838C314.34 28.4969 314.219 29.2584 314.255 30.0207C314.291 30.7829 314.483 31.5296 314.821 32.2141C315.241 33.3 315.975 34.2368 316.928 34.906C317.881 35.5751 319.011 35.9464 320.176 35.9731C312.777 40.3971 316.676 48.8181 316.676 48.8181L335.345 41.2581C335.345 41.2581 332.202 32.4171 323.9 34.4471Z" fill="#6E18F3"/>
<path d="M318.144 63.052L312.05 61.6586L309.302 73.6754L315.396 75.0688L318.144 63.052Z" fill="#172833"/>
<path d="M308.159 65.729L302.065 64.3356L300.395 71.6371L306.489 73.0305L308.159 65.729Z" fill="#172833"/>
<path d="M328.299 58.8677L322.205 57.4742L318.044 75.6735L324.138 77.0669L328.299 58.8677Z" fill="#172833"/>
<path d="M184.712 84.994L228.98 155.918L238.857 195.251H254.159V86.177L184.712 84.994Z" fill="#6E18F3"/>
<path d="M243.743 86.177V195.251H259.045L268.922 155.918L313.19 84.994L243.743 86.177Z" fill="#6E18F3"/>
<path d="M311.594 93.247H186.595C184.741 93.2378 182.966 92.4974 181.655 91.1866C180.344 89.8759 179.604 88.1007 179.595 86.247C179.595 84.3873 180.331 82.6032 181.643 81.2849C182.955 79.9666 184.735 79.2213 186.595 79.212H311.594C312.516 79.212 313.429 79.3942 314.281 79.7482C315.132 80.1022 315.905 80.6209 316.556 81.2747C317.206 81.9284 317.721 82.7042 318.071 83.5575C318.421 84.4108 318.598 85.3248 318.594 86.247C318.594 88.1036 317.856 89.884 316.543 91.1968C315.231 92.5095 313.45 93.247 311.594 93.247Z" fill="#6E18F3"/>
<path d="M313.19 93.457C313.19 93.555 284.798 93.639 249.777 93.639C214.756 93.639 186.357 93.555 186.357 93.457C186.357 93.359 214.749 93.275 249.777 93.275C284.805 93.275 313.19 93.359 313.19 93.457Z" fill="#172833"/>
<g opacity="0.2">
<path d="M198.908 95.277L238.976 155.155L244.044 195.244H246.963L247.509 154.889L222.134 95.277H198.908Z" fill="#F5F5F5"/>
</g>
<path d="M261.39 155.918C261.39 156.023 254.292 156.1 245.542 156.1C236.792 156.1 229.694 156.023 229.694 155.918C229.694 155.813 236.785 155.736 245.542 155.736C254.299 155.736 261.39 155.82 261.39 155.918Z" fill="#172833"/>
<path d="M432.757 225.841H374.79V237.531H432.757V225.841Z" fill="#6E18F3"/>
<path d="M378.514 226.037C378.654 226.037 378.766 228.571 378.766 231.7C378.766 234.829 378.654 237.37 378.514 237.37C378.374 237.37 378.262 234.836 378.262 231.7C378.262 228.564 378.374 226.037 378.514 226.037Z" fill="#172833"/>
<path d="M383.89 226.037C384.03 226.037 384.142 228.571 384.142 231.7C384.142 234.829 384.03 237.37 383.89 237.37C383.75 237.37 383.638 234.836 383.638 231.7C383.638 228.564 383.75 226.037 383.89 226.037Z" fill="#172833"/>
<path d="M389.203 226.037C389.343 226.037 389.455 228.571 389.455 231.7C389.455 234.829 389.343 237.37 389.203 237.37C389.063 237.37 388.951 234.836 388.951 231.7C388.951 228.564 389.063 226.037 389.203 226.037Z" fill="#172833"/>
<path d="M394.481 226.037C394.621 226.037 394.733 228.571 394.733 231.7C394.733 234.829 394.621 237.37 394.481 237.37C394.341 237.37 394.236 234.836 394.236 231.7C394.236 228.564 394.348 226.037 394.481 226.037Z" fill="#172833"/>
<path d="M399.766 226.037C399.906 226.037 400.018 228.571 400.018 231.7C400.018 234.829 399.906 237.37 399.766 237.37C399.626 237.37 399.514 234.836 399.514 231.7C399.514 228.564 399.626 226.037 399.766 226.037Z" fill="#172833"/>
<path d="M405.051 226.037C405.191 226.037 405.303 228.571 405.303 231.7C405.303 234.829 405.191 237.37 405.051 237.37C404.911 237.37 404.799 234.836 404.799 231.7C404.799 228.564 404.911 226.037 405.051 226.037Z" fill="#172833"/>
<path d="M410.336 226.037C410.476 226.037 410.588 228.571 410.588 231.7C410.588 234.829 410.476 237.37 410.336 237.37C410.196 237.37 410.084 234.836 410.084 231.7C410.084 228.564 410.196 226.037 410.336 226.037Z" fill="#172833"/>
<path d="M415.621 226.037C415.754 226.037 415.873 228.571 415.873 231.7C415.873 234.829 415.754 237.37 415.621 237.37C415.488 237.37 415.369 234.836 415.369 231.7C415.369 228.564 415.481 226.037 415.621 226.037Z" fill="#172833"/>
<path d="M420.899 226.037C421.039 226.037 421.151 228.571 421.151 231.7C421.151 234.829 421.039 237.37 420.899 237.37C420.759 237.37 420.647 234.836 420.647 231.7C420.647 228.564 420.766 226.037 420.899 226.037Z" fill="#172833"/>
<path d="M426.184 226.037C426.324 226.037 426.436 228.571 426.436 231.7C426.436 234.829 426.324 237.37 426.184 237.37C426.044 237.37 425.932 234.836 425.932 231.7C425.932 228.564 426.044 226.037 426.184 226.037Z" fill="#172833"/>
<path d="M431.448 226.037C431.588 226.037 431.7 228.571 431.7 231.7C431.7 234.829 431.588 237.37 431.448 237.37C431.308 237.37 431.196 234.836 431.196 231.7C431.196 228.564 431.329 226.037 431.448 226.037Z" fill="#172833"/>
<g opacity="0.3">
<path d="M375.721 225.855C394.34 228.347 413.207 228.347 431.826 225.855H375.721Z" fill="#172833"/>
</g>
<path d="M432.771 225.876C432.771 226.016 419.814 226.128 403.84 226.128C387.866 226.128 374.902 226.016 374.902 225.876C374.902 225.736 387.859 225.624 403.84 225.624C419.821 225.624 432.771 225.736 432.771 225.876Z" fill="#172833"/>
<path d="M434.059 237.335H376.092V249.025H434.059V237.335Z" fill="#6E18F3"/>
<path d="M379.816 237.531C379.956 237.531 380.068 240.065 380.068 243.194C380.068 246.323 379.956 248.864 379.816 248.864C379.676 248.864 379.564 246.33 379.564 243.194C379.564 240.058 379.648 237.531 379.816 237.531Z" fill="#172833"/>
<path d="M385.192 237.531C385.332 237.531 385.444 240.065 385.444 243.194C385.444 246.323 385.332 248.864 385.192 248.864C385.052 248.864 384.94 246.33 384.94 243.194C384.94 240.058 385.052 237.531 385.192 237.531Z" fill="#172833"/>
<path d="M390.505 237.531C390.645 237.531 390.757 240.065 390.757 243.194C390.757 246.323 390.645 248.864 390.505 248.864C390.365 248.864 390.253 246.33 390.253 243.194C390.253 240.058 390.365 237.531 390.505 237.531Z" fill="#172833"/>
<path d="M395.783 237.531C395.923 237.531 396.035 240.065 396.035 243.194C396.035 246.323 395.923 248.864 395.783 248.864C395.643 248.864 395.538 246.33 395.538 243.194C395.538 240.058 395.65 237.531 395.783 237.531Z" fill="#172833"/>
<path d="M401.068 237.531C401.208 237.531 401.32 240.065 401.32 243.194C401.32 246.323 401.208 248.864 401.068 248.864C400.928 248.864 400.816 246.33 400.816 243.194C400.816 240.058 400.928 237.531 401.068 237.531Z" fill="#172833"/>
<path d="M406.353 237.531C406.493 237.531 406.605 240.065 406.605 243.194C406.605 246.323 406.493 248.864 406.353 248.864C406.213 248.864 406.101 246.33 406.101 243.194C406.101 240.058 406.248 237.531 406.353 237.531Z" fill="#172833"/>
<path d="M411.638 237.531C411.778 237.531 411.89 240.065 411.89 243.194C411.89 246.323 411.778 248.864 411.638 248.864C411.498 248.864 411.386 246.33 411.386 243.194C411.386 240.058 411.498 237.531 411.638 237.531Z" fill="#172833"/>
<path d="M416.923 237.531C417.056 237.531 417.175 240.065 417.175 243.194C417.175 246.323 417.056 248.864 416.923 248.864C416.79 248.864 416.671 246.33 416.671 243.194C416.671 240.058 416.783 237.531 416.923 237.531Z" fill="#172833"/>
<path d="M422.201 237.531C422.341 237.531 422.453 240.065 422.453 243.194C422.453 246.323 422.341 248.864 422.201 248.864C422.061 248.864 421.949 246.33 421.949 243.194C421.949 240.058 422.068 237.531 422.201 237.531Z" fill="#172833"/>
<path d="M427.486 237.531C427.626 237.531 427.738 240.065 427.738 243.194C427.738 246.323 427.626 248.864 427.486 248.864C427.346 248.864 427.234 246.33 427.234 243.194C427.234 240.058 427.346 237.531 427.486 237.531Z" fill="#172833"/>
<path d="M432.771 237.531C432.911 237.531 433.023 240.065 433.023 243.194C433.023 246.323 432.911 248.864 432.771 248.864C432.631 248.864 432.519 246.33 432.519 243.194C432.519 240.058 432.631 237.531 432.771 237.531Z" fill="#172833"/>
<g opacity="0.3">
<path d="M377.023 237.349C395.642 239.841 414.509 239.841 433.128 237.349H377.023Z" fill="#172833"/>
</g>
<path d="M434.073 237.37C434.073 237.51 421.116 237.622 405.142 237.622C389.168 237.622 376.204 237.51 376.204 237.37C376.204 237.23 389.161 237.118 405.142 237.118C421.123 237.118 434.073 237.23 434.073 237.37Z" fill="#172833"/>
<path d="M428.55 248.647H370.583V260.337H428.55V248.647Z" fill="#6E18F3"/>
<path d="M374.314 248.843C374.454 248.843 374.566 251.377 374.566 254.506C374.566 257.635 374.454 260.176 374.314 260.176C374.174 260.176 374.062 257.642 374.062 254.506C374.062 251.37 374.174 248.843 374.314 248.843Z" fill="#172833"/>
<path d="M379.69 248.843C379.823 248.843 379.942 251.377 379.942 254.506C379.942 257.635 379.823 260.176 379.69 260.176C379.557 260.176 379.438 257.642 379.438 254.506C379.438 251.37 379.55 248.843 379.69 248.843Z" fill="#172833"/>
<path d="M384.996 248.843C385.136 248.843 385.248 251.377 385.248 254.506C385.248 257.635 385.136 260.176 384.996 260.176C384.856 260.176 384.751 257.642 384.751 254.506C384.751 251.37 384.863 248.843 384.996 248.843Z" fill="#172833"/>
<path d="M390.281 248.843C390.421 248.843 390.533 251.377 390.533 254.506C390.533 257.635 390.421 260.176 390.281 260.176C390.141 260.176 390.029 257.642 390.029 254.506C390.029 251.37 390.148 248.843 390.281 248.843Z" fill="#172833"/>
<path d="M395.566 248.843C395.706 248.843 395.818 251.377 395.818 254.506C395.818 257.635 395.706 260.176 395.566 260.176C395.426 260.176 395.314 257.642 395.314 254.506C395.314 251.37 395.426 248.843 395.566 248.843Z" fill="#172833"/>
<path d="M400.851 248.843C400.991 248.843 401.103 251.377 401.103 254.506C401.103 257.635 400.991 260.176 400.851 260.176C400.711 260.176 400.599 257.642 400.599 254.506C400.599 251.37 400.711 248.843 400.851 248.843Z" fill="#172833"/>
<path d="M406.136 248.843C406.269 248.843 406.388 251.377 406.388 254.506C406.388 257.635 406.269 260.176 406.136 260.176C406.003 260.176 405.884 257.642 405.884 254.506C405.884 251.37 405.996 248.843 406.136 248.843Z" fill="#172833"/>
<path d="M411.414 248.843C411.554 248.843 411.666 251.377 411.666 254.506C411.666 257.635 411.554 260.176 411.414 260.176C411.274 260.176 411.162 257.642 411.162 254.506C411.162 251.37 411.281 248.843 411.414 248.843Z" fill="#172833"/>
<path d="M416.699 248.843C416.839 248.843 416.951 251.377 416.951 254.506C416.951 257.635 416.839 260.176 416.699 260.176C416.559 260.176 416.447 257.642 416.447 254.506C416.447 251.37 416.559 248.843 416.699 248.843Z" fill="#172833"/>
<path d="M421.984 248.843C422.124 248.843 422.236 251.377 422.236 254.506C422.236 257.635 422.124 260.176 421.984 260.176C421.844 260.176 421.732 257.642 421.732 254.506C421.732 251.37 421.844 248.843 421.984 248.843Z" fill="#172833"/>
<path d="M427.248 248.843C427.388 248.843 427.5 251.377 427.5 254.506C427.5 257.635 427.388 260.176 427.248 260.176C427.108 260.176 426.996 257.642 426.996 254.506C426.996 251.37 427.129 248.843 427.248 248.843Z" fill="#172833"/>
<g opacity="0.3">
<path d="M371.521 248.647C390.14 251.139 409.007 251.139 427.626 248.647H371.521Z" fill="#172833"/>
</g>
<path d="M428.571 248.682C428.571 248.822 415.614 248.934 399.64 248.934C383.666 248.934 370.702 248.822 370.702 248.682C370.702 248.542 383.652 248.43 399.64 248.43C415.628 248.43 428.571 248.542 428.571 248.682Z" fill="#172833"/>
<path d="M435.34 260.253H377.373V271.495H435.34V260.253Z" fill="#6E18F3"/>
<path d="M381.104 260.435C381.244 260.435 381.356 262.878 381.356 265.888C381.356 268.898 381.244 271.341 381.104 271.341C380.964 271.341 380.852 268.898 380.852 265.888C380.852 262.878 380.964 260.435 381.104 260.435Z" fill="#172833"/>
<path d="M386.48 260.435C386.62 260.435 386.732 262.878 386.732 265.888C386.732 268.898 386.62 271.341 386.48 271.341C386.34 271.341 386.228 268.898 386.228 265.888C386.228 262.878 386.34 260.435 386.48 260.435Z" fill="#172833"/>
<path d="M391.793 260.435C391.926 260.435 392.038 262.878 392.038 265.888C392.038 268.898 391.926 271.341 391.793 271.341C391.66 271.341 391.541 268.898 391.541 265.888C391.541 262.878 391.653 260.435 391.793 260.435Z" fill="#172833"/>
<path d="M397.071 260.435C397.211 260.435 397.323 262.878 397.323 265.888C397.323 268.898 397.211 271.341 397.071 271.341C396.931 271.341 396.819 268.898 396.819 265.888C396.819 262.878 396.931 260.435 397.071 260.435Z" fill="#172833"/>
<path d="M402.356 260.435C402.496 260.435 402.608 262.878 402.608 265.888C402.608 268.898 402.496 271.341 402.356 271.341C402.216 271.341 402.104 268.898 402.104 265.888C402.104 262.878 402.216 260.435 402.356 260.435Z" fill="#172833"/>
<path d="M407.648 260.435C407.788 260.435 407.9 262.878 407.9 265.888C407.9 268.898 407.788 271.341 407.648 271.341C407.508 271.341 407.396 268.898 407.396 265.888C407.396 262.878 407.501 260.435 407.648 260.435Z" fill="#172833"/>
<path d="M412.926 260.435C413.066 260.435 413.178 262.878 413.178 265.888C413.178 268.898 413.066 271.341 412.926 271.341C412.786 271.341 412.674 268.898 412.674 265.888C412.674 262.878 412.786 260.435 412.926 260.435Z" fill="#172833"/>
<path d="M418.204 260.435C418.344 260.435 418.456 262.878 418.456 265.888C418.456 268.898 418.344 271.341 418.204 271.341C418.064 271.341 417.959 268.898 417.959 265.888C417.959 262.878 418.071 260.435 418.204 260.435Z" fill="#172833"/>
<path d="M423.489 260.435C423.629 260.435 423.741 262.878 423.741 265.888C423.741 268.898 423.629 271.341 423.489 271.341C423.349 271.341 423.237 268.898 423.237 265.888C423.237 262.878 423.349 260.435 423.489 260.435Z" fill="#172833"/>
<path d="M428.774 260.435C428.914 260.435 429.026 262.878 429.026 265.888C429.026 268.898 428.914 271.341 428.774 271.341C428.634 271.341 428.522 268.898 428.522 265.888C428.522 262.878 428.648 260.435 428.774 260.435Z" fill="#172833"/>
<path d="M434.059 260.435C434.199 260.435 434.311 262.878 434.311 265.888C434.311 268.898 434.199 271.341 434.059 271.341C433.919 271.341 433.807 268.898 433.807 265.888C433.807 262.878 433.919 260.435 434.059 260.435Z" fill="#172833"/>
<g opacity="0.3">
<path d="M378.311 260.26C396.877 263.449 415.85 263.449 434.416 260.26H378.311Z" fill="#172833"/>
</g>
<path d="M435.361 260.288C435.361 260.421 422.404 260.54 406.43 260.54C390.456 260.54 377.492 260.421 377.492 260.288C377.492 260.155 390.449 260.036 406.43 260.036C422.411 260.036 435.361 260.148 435.361 260.288Z" fill="#172833"/>
<path d="M431.616 271.502H373.649V282.744H431.616V271.502Z" fill="#6E18F3"/>
<path d="M377.373 271.684C377.513 271.684 377.625 274.127 377.625 277.137C377.625 280.147 377.513 282.59 377.373 282.59C377.233 282.59 377.121 280.147 377.121 277.137C377.121 274.127 377.24 271.684 377.373 271.684Z" fill="#172833"/>
<path d="M382.749 271.684C382.889 271.684 383.001 274.127 383.001 277.137C383.001 280.147 382.889 282.59 382.749 282.59C382.609 282.59 382.497 280.147 382.497 277.137C382.497 274.127 382.609 271.684 382.749 271.684Z" fill="#172833"/>
<path d="M388.048 271.684C388.188 271.684 388.3 274.127 388.3 277.137C388.3 280.147 388.188 282.59 388.048 282.59C387.908 282.59 387.796 280.147 387.796 277.137C387.796 274.127 387.922 271.684 388.048 271.684Z" fill="#172833"/>
<path d="M393.347 271.684C393.487 271.684 393.599 274.127 393.599 277.137C393.599 280.147 393.487 282.59 393.347 282.59C393.207 282.59 393.095 280.147 393.095 277.137C393.095 274.127 393.207 271.684 393.347 271.684Z" fill="#172833"/>
<path d="M398.632 271.684C398.772 271.684 398.884 274.127 398.884 277.137C398.884 280.147 398.772 282.59 398.632 282.59C398.492 282.59 398.38 280.147 398.38 277.137C398.38 274.127 398.492 271.684 398.632 271.684Z" fill="#172833"/>
<path d="M403.91 271.684C404.05 271.684 404.162 274.127 404.162 277.137C404.162 280.147 404.05 282.59 403.91 282.59C403.77 282.59 403.658 280.147 403.658 277.137C403.658 274.127 403.777 271.684 403.91 271.684Z" fill="#172833"/>
<path d="M409.195 271.684C409.335 271.684 409.447 274.127 409.447 277.137C409.447 280.147 409.335 282.59 409.195 282.59C409.055 282.59 408.943 280.147 408.943 277.137C408.943 274.127 409.048 271.684 409.195 271.684Z" fill="#172833"/>
<path d="M414.48 271.684C414.62 271.684 414.732 274.127 414.732 277.137C414.732 280.147 414.62 282.59 414.48 282.59C414.34 282.59 414.228 280.147 414.228 277.137C414.228 274.127 414.34 271.684 414.48 271.684Z" fill="#172833"/>
<path d="M419.765 271.684C419.905 271.684 420.017 274.127 420.017 277.137C420.017 280.147 419.905 282.59 419.765 282.59C419.625 282.59 419.548 280.147 419.548 277.137C419.548 274.127 419.625 271.684 419.765 271.684Z" fill="#172833"/>
<path d="M425.05 271.684C425.183 271.684 425.295 274.127 425.295 277.137C425.295 280.147 425.183 282.59 425.05 282.59C424.917 282.59 424.798 280.147 424.798 277.137C424.798 274.127 424.91 271.684 425.05 271.684Z" fill="#172833"/>
<path d="M430.328 271.684C430.468 271.684 430.58 274.127 430.58 277.137C430.58 280.147 430.468 282.59 430.328 282.59C430.188 282.59 430.048 280.147 430.048 277.137C430.048 274.127 430.188 271.684 430.328 271.684Z" fill="#172833"/>
<g opacity="0.3">
<path d="M374.58 271.509C393.11 275.114 412.162 275.114 430.692 271.509H374.58Z" fill="#172833"/>
</g>
<path d="M431.63 271.537C431.63 271.67 418.68 271.782 402.699 271.782C386.718 271.782 373.768 271.67 373.768 271.537C373.768 271.404 386.718 271.285 402.699 271.285C418.68 271.285 431.63 271.397 431.63 271.537Z" fill="#172833"/>
<path d="M434.927 282.59H376.96V293.832H434.927V282.59Z" fill="#6E18F3"/>
<path d="M380.691 282.772C380.824 282.772 380.936 285.215 380.936 288.225C380.936 291.235 380.824 293.678 380.691 293.678C380.558 293.678 380.439 291.235 380.439 288.225C380.439 285.215 380.551 282.772 380.691 282.772Z" fill="#172833"/>
<path d="M386.06 282.772C386.2 282.772 386.312 285.215 386.312 288.225C386.312 291.235 386.2 293.678 386.06 293.678C385.92 293.678 385.808 291.235 385.808 288.225C385.808 285.215 385.948 282.772 386.06 282.772Z" fill="#172833"/>
<path d="M391.373 282.772C391.513 282.772 391.625 285.215 391.625 288.225C391.625 291.235 391.513 293.678 391.373 293.678C391.233 293.678 391.121 291.235 391.121 288.225C391.121 285.215 391.233 282.772 391.373 282.772Z" fill="#172833"/>
<path d="M396.658 282.772C396.798 282.772 396.91 285.215 396.91 288.225C396.91 291.235 396.798 293.678 396.658 293.678C396.518 293.678 396.406 291.235 396.406 288.225C396.406 285.215 396.518 282.772 396.658 282.772Z" fill="#172833"/>
<path d="M401.943 282.772C402.083 282.772 402.195 285.215 402.195 288.225C402.195 291.235 402.083 293.678 401.943 293.678C401.803 293.678 401.691 291.235 401.691 288.225C401.691 285.215 401.803 282.772 401.943 282.772Z" fill="#172833"/>
<path d="M407.228 282.772C407.361 282.772 407.48 285.215 407.48 288.225C407.48 291.235 407.361 293.678 407.228 293.678C407.095 293.678 406.976 291.235 406.976 288.225C406.976 285.215 407.088 282.772 407.228 282.772Z" fill="#172833"/>
<path d="M412.506 282.772C412.646 282.772 412.758 285.215 412.758 288.225C412.758 291.235 412.646 293.678 412.506 293.678C412.366 293.678 412.254 291.235 412.254 288.225C412.254 285.215 412.366 282.772 412.506 282.772Z" fill="#172833"/>
<path d="M417.791 282.772C417.931 282.772 418.043 285.215 418.043 288.225C418.043 291.235 417.931 293.678 417.791 293.678C417.651 293.678 417.539 291.235 417.539 288.225C417.539 285.215 417.651 282.772 417.791 282.772Z" fill="#172833"/>
<path d="M423.048 282.772C423.188 282.772 423.3 285.215 423.3 288.225C423.3 291.235 423.188 293.678 423.048 293.678C422.908 293.678 422.796 291.235 422.796 288.225C422.796 285.215 422.936 282.772 423.048 282.772Z" fill="#172833"/>
<path d="M428.361 282.772C428.501 282.772 428.613 285.215 428.613 288.225C428.613 291.235 428.501 293.678 428.361 293.678C428.221 293.678 428.109 291.235 428.109 288.225C428.109 285.215 428.221 282.772 428.361 282.772Z" fill="#172833"/>
<path d="M433.639 282.772C433.779 282.772 433.891 285.215 433.891 288.225C433.891 291.235 433.779 293.678 433.639 293.678C433.499 293.678 433.394 291.235 433.394 288.225C433.394 285.215 433.506 282.772 433.639 282.772Z" fill="#172833"/>
<g opacity="0.3">
<path d="M377.891 282.597C396.459 285.785 415.435 285.785 434.003 282.597H377.891Z" fill="#172833"/>
</g>
<path d="M434.948 282.625C434.948 282.758 421.998 282.877 406.017 282.877C390.036 282.877 377.086 282.758 377.086 282.625C377.086 282.492 390.036 282.373 406.017 282.373C421.998 282.373 434.948 282.485 434.948 282.625Z" fill="#172833"/>
<path d="M376.96 293.832C376.969 293.767 376.969 293.701 376.96 293.636C376.96 293.489 376.96 293.307 376.96 293.069C376.96 292.544 376.96 291.816 376.96 290.885C376.96 288.953 376.96 286.188 377.016 282.744V282.618H376.89H373.698L373.838 282.751C373.838 279.468 373.838 275.667 373.838 271.509L373.67 271.677H377.576V271.502C377.576 268.002 377.576 264.257 377.576 260.344V260.155H370.576L370.765 260.344C370.765 256.186 370.765 252.189 370.765 248.444L370.583 248.626H376.085H376.26V248.458C376.26 244.391 376.26 240.723 376.26 237.559V237.426H374.713L374.839 237.552C374.839 233.933 374.839 231.028 374.839 228.998C374.839 228.011 374.839 227.248 374.839 226.695C374.839 226.45 374.839 226.254 374.839 226.1C374.848 226.033 374.848 225.964 374.839 225.897C374.835 225.965 374.835 226.032 374.839 226.1V226.695C374.839 227.241 374.839 228.011 374.783 228.991C374.748 231.021 374.699 233.926 374.636 237.552V237.678H376.183L376.05 237.545C376.05 240.709 376.05 244.377 376.05 248.444L376.218 248.276H370.548V248.451C370.548 252.203 370.548 256.2 370.548 260.351V260.547H377.548L377.359 260.358C377.359 264.271 377.359 268.058 377.359 271.516L377.534 271.334H373.635V271.509C373.635 275.667 373.635 279.468 373.635 282.751V282.891H373.775H376.967L376.841 282.772C376.841 286.216 376.883 288.981 376.897 290.913C376.897 291.844 376.897 292.579 376.932 293.097C376.932 293.335 376.932 293.517 376.932 293.664C376.934 293.721 376.943 293.777 376.96 293.832Z" fill="#172833"/>
<path d="M428.004 192.045H370.037V203.287H428.004V192.045Z" fill="#6E18F3"/>
<path d="M373.761 192.234C373.901 192.234 374.013 194.677 374.013 197.687C374.013 200.697 373.901 203.133 373.761 203.133C373.621 203.133 373.509 200.697 373.509 197.687C373.509 194.677 373.621 192.234 373.761 192.234Z" fill="#172833"/>
<path d="M379.137 192.234C379.277 192.234 379.389 194.677 379.389 197.687C379.389 200.697 379.277 203.133 379.137 203.133C378.997 203.133 378.885 200.697 378.885 197.687C378.885 194.677 378.997 192.234 379.137 192.234Z" fill="#172833"/>
<path d="M384.45 192.234C384.59 192.234 384.702 194.677 384.702 197.687C384.702 200.697 384.59 203.133 384.45 203.133C384.31 203.133 384.198 200.697 384.198 197.687C384.198 194.677 384.31 192.234 384.45 192.234Z" fill="#172833"/>
<path d="M389.735 192.234C389.875 192.234 389.987 194.677 389.987 197.687C389.987 200.697 389.875 203.133 389.735 203.133C389.595 203.133 389.483 200.697 389.483 197.687C389.483 194.677 389.595 192.234 389.735 192.234Z" fill="#172833"/>
<path d="M395.048 192.234C395.181 192.234 395.3 194.677 395.3 197.687C395.3 200.697 395.153 203.147 395.048 203.147C394.943 203.147 394.796 200.711 394.796 197.701C394.796 194.691 394.88 192.234 395.048 192.234Z" fill="#172833"/>
<path d="M400.298 192.234C400.438 192.234 400.55 194.677 400.55 197.687C400.55 200.697 400.438 203.133 400.298 203.133C400.158 203.133 400.046 200.697 400.046 197.687C400.046 194.677 400.158 192.234 400.298 192.234Z" fill="#172833"/>
<path d="M405.583 192.234C405.723 192.234 405.835 194.677 405.835 197.687C405.835 200.697 405.723 203.133 405.583 203.133C405.443 203.133 405.331 200.697 405.331 197.687C405.331 194.677 405.443 192.234 405.583 192.234Z" fill="#172833"/>
<path d="M410.868 192.234C411.008 192.234 411.12 194.677 411.12 197.687C411.12 200.697 411.008 203.133 410.868 203.133C410.728 203.133 410.616 200.697 410.616 197.687C410.616 194.677 410.728 192.234 410.868 192.234Z" fill="#172833"/>
<path d="M416.153 192.234C416.293 192.234 416.405 194.677 416.405 197.687C416.405 200.697 416.293 203.133 416.153 203.133C416.013 203.133 415.901 200.697 415.901 197.687C415.901 194.677 416.048 192.234 416.153 192.234Z" fill="#172833"/>
<path d="M421.431 192.234C421.571 192.234 421.683 194.677 421.683 197.687C421.683 200.697 421.571 203.133 421.431 203.133C421.291 203.133 421.186 200.697 421.186 197.687C421.186 194.677 421.298 192.234 421.431 192.234Z" fill="#172833"/>
<path d="M426.716 192.234C426.856 192.234 426.968 194.677 426.968 197.687C426.968 200.697 426.856 203.133 426.716 203.133C426.576 203.133 426.464 200.697 426.464 197.687C426.464 194.677 426.548 192.234 426.716 192.234Z" fill="#172833"/>
<g opacity="0.3">
<path d="M370.968 192.059C389.536 195.247 408.512 195.247 427.08 192.059H370.968Z" fill="#172833"/>
</g>
<path d="M428.018 192.08C428.018 192.22 415.068 192.332 399.087 192.332C383.106 192.332 370.156 192.22 370.156 192.08C370.156 191.94 383.106 191.828 399.087 191.828C415.068 191.828 428.018 191.947 428.018 192.08Z" fill="#172833"/>
<path d="M424.273 203.294H366.306V214.536H424.273V203.294Z" fill="#6E18F3"/>
<path d="M370.037 203.483C370.177 203.483 370.289 205.926 370.289 208.936C370.289 211.946 370.177 214.382 370.037 214.382C369.897 214.382 369.785 211.946 369.785 208.936C369.785 205.926 369.897 203.483 370.037 203.483Z" fill="#172833"/>
<path d="M375.448 203.483C375.588 203.483 375.7 205.926 375.7 208.936C375.7 211.946 375.588 214.382 375.448 214.382C375.308 214.382 375.196 211.946 375.196 208.936C375.196 205.926 375.273 203.483 375.448 203.483Z" fill="#172833"/>
<path d="M380.726 203.483C380.859 203.483 380.971 205.926 380.971 208.936C380.971 211.946 380.859 214.382 380.726 214.382C380.593 214.382 380.474 211.946 380.474 208.936C380.474 205.926 380.586 203.483 380.726 203.483Z" fill="#172833"/>
<path d="M386.004 203.483C386.144 203.483 386.256 205.926 386.256 208.936C386.256 211.946 386.144 214.382 386.004 214.382C385.864 214.382 385.752 211.946 385.752 208.936C385.752 205.926 385.864 203.483 386.004 203.483Z" fill="#172833"/>
<path d="M391.289 203.483C391.429 203.483 391.541 205.926 391.541 208.936C391.541 211.946 391.429 214.382 391.289 214.382C391.149 214.382 391.037 211.946 391.037 208.936C391.037 205.926 391.149 203.483 391.289 203.483Z" fill="#172833"/>
<path d="M396.574 203.483C396.714 203.483 396.826 205.926 396.826 208.936C396.826 211.946 396.714 214.382 396.574 214.382C396.434 214.382 396.322 211.946 396.322 208.936C396.322 205.926 396.448 203.483 396.574 203.483Z" fill="#172833"/>
<path d="M401.859 203.483C401.999 203.483 402.111 205.926 402.111 208.936C402.111 211.946 401.999 214.382 401.859 214.382C401.719 214.382 401.607 211.946 401.607 208.936C401.607 205.926 401.719 203.483 401.859 203.483Z" fill="#172833"/>
<path d="M407.137 203.483C407.277 203.483 407.389 205.926 407.389 208.936C407.389 211.946 407.277 214.382 407.137 214.382C406.997 214.382 406.892 211.946 406.892 208.936C406.892 205.926 407.004 203.483 407.137 203.483Z" fill="#172833"/>
<path d="M412.422 203.483C412.562 203.483 412.674 205.926 412.674 208.936C412.674 211.946 412.562 214.382 412.422 214.382C412.282 214.382 412.17 211.946 412.17 208.936C412.17 205.926 412.282 203.483 412.422 203.483Z" fill="#172833"/>
<path d="M417.707 203.483C417.847 203.483 417.959 205.926 417.959 208.936C417.959 211.946 417.847 214.382 417.707 214.382C417.567 214.382 417.455 211.946 417.455 208.936C417.455 205.926 417.567 203.483 417.707 203.483Z" fill="#172833"/>
<path d="M422.992 203.483C423.132 203.483 423.244 205.926 423.244 208.936C423.244 211.946 423.132 214.382 422.992 214.382C422.852 214.382 422.74 211.946 422.74 208.936C422.74 205.926 422.852 203.483 422.992 203.483Z" fill="#172833"/>
<g opacity="0.3">
<path d="M367.244 203.308C385.772 206.916 404.821 206.916 423.349 203.308H367.244Z" fill="#172833"/>
</g>
<path d="M424.294 203.329C424.294 203.469 411.337 203.581 395.363 203.581C379.389 203.581 366.425 203.469 366.425 203.329C366.425 203.189 379.382 203.077 395.363 203.077C411.344 203.077 424.294 203.189 424.294 203.329Z" fill="#172833"/>
<path d="M427.591 214.382H369.624V225.624H427.591V214.382Z" fill="#6E18F3"/>
<path d="M373.348 214.571C373.488 214.571 373.6 217.014 373.6 220.024C373.6 223.034 373.488 225.47 373.348 225.47C373.208 225.47 373.096 223.034 373.096 220.024C373.096 217.014 373.208 214.571 373.348 214.571Z" fill="#172833"/>
<path d="M378.724 214.571C378.864 214.571 378.976 217.014 378.976 220.024C378.976 223.034 378.864 225.47 378.724 225.47C378.584 225.47 378.472 223.034 378.472 220.024C378.472 217.014 378.584 214.571 378.724 214.571Z" fill="#172833"/>
<path d="M384.037 214.571C384.177 214.571 384.289 217.014 384.289 220.024C384.289 223.034 384.177 225.47 384.037 225.47C383.897 225.47 383.785 223.034 383.785 220.024C383.785 217.014 383.897 214.571 384.037 214.571Z" fill="#172833"/>
<path d="M389.315 214.571C389.455 214.571 389.567 217.014 389.567 220.024C389.567 223.034 389.455 225.47 389.315 225.47C389.175 225.47 389.07 223.034 389.07 220.024C389.07 217.014 389.182 214.571 389.315 214.571Z" fill="#172833"/>
<path d="M394.6 214.571C394.74 214.571 394.852 217.014 394.852 220.024C394.852 223.034 394.74 225.47 394.6 225.47C394.46 225.47 394.348 223.034 394.348 220.024C394.348 217.014 394.46 214.571 394.6 214.571Z" fill="#172833"/>
<path d="M399.885 214.571C400.025 214.571 400.137 217.014 400.137 220.024C400.137 223.034 400.025 225.47 399.885 225.47C399.745 225.47 399.633 223.034 399.633 220.024C399.633 217.014 399.745 214.571 399.885 214.571Z" fill="#172833"/>
<path d="M405.17 214.571C405.31 214.571 405.422 217.014 405.422 220.024C405.422 223.034 405.31 225.47 405.17 225.47C405.03 225.47 404.918 223.034 404.918 220.024C404.918 217.014 405.03 214.571 405.17 214.571Z" fill="#172833"/>
<path d="M410.448 214.571C410.581 214.571 410.7 217.014 410.7 220.024C410.7 223.034 410.581 225.47 410.448 225.47C410.315 225.47 410.196 223.034 410.196 220.024C410.196 217.014 410.315 214.571 410.448 214.571Z" fill="#172833"/>
<path d="M415.733 214.571C415.873 214.571 415.985 217.014 415.985 220.024C415.985 223.034 415.873 225.47 415.733 225.47C415.593 225.47 415.481 223.034 415.481 220.024C415.481 217.014 415.6 214.571 415.733 214.571Z" fill="#172833"/>
<path d="M421.018 214.571C421.158 214.571 421.27 217.014 421.27 220.024C421.27 223.034 421.158 225.47 421.018 225.47C420.878 225.47 420.766 223.034 420.766 220.024C420.766 217.014 420.878 214.571 421.018 214.571Z" fill="#172833"/>
<path d="M426.303 214.571C426.443 214.571 426.555 217.014 426.555 220.024C426.555 223.034 426.443 225.47 426.303 225.47C426.163 225.47 426.051 223.034 426.051 220.024C426.051 217.014 426.163 214.571 426.303 214.571Z" fill="#172833"/>
<g opacity="0.3">
<path d="M370.548 214.396C389.114 217.585 408.087 217.585 426.653 214.396H370.548Z" fill="#172833"/>
</g>
<path d="M427.605 214.417C427.605 214.557 414.648 214.669 398.674 214.669C382.7 214.669 369.736 214.557 369.736 214.417C369.736 214.277 382.693 214.165 398.674 214.165C414.655 214.165 427.605 214.284 427.605 214.417Z" fill="#172833"/>
<path d="M418.862 169.827H360.895V181.069H418.862V169.827Z" fill="#6E18F3"/>
<path d="M364.619 170.016C364.759 170.016 364.871 172.452 364.871 175.462C364.871 178.472 364.759 180.915 364.619 180.915C364.479 180.915 364.367 178.472 364.367 175.462C364.367 172.452 364.479 170.016 364.619 170.016Z" fill="#172833"/>
<path d="M369.995 170.016C370.135 170.016 370.247 172.452 370.247 175.462C370.247 178.472 370.135 180.915 369.995 180.915C369.855 180.915 369.743 178.472 369.743 175.462C369.743 172.452 369.848 170.016 369.995 170.016Z" fill="#172833"/>
<path d="M375.308 170.016C375.448 170.016 375.56 172.452 375.56 175.462C375.56 178.472 375.448 180.915 375.308 180.915C375.168 180.915 375.056 178.472 375.056 175.462C375.056 172.452 375.168 170.016 375.308 170.016Z" fill="#172833"/>
<path d="M380.593 170.016C380.733 170.016 380.845 172.452 380.845 175.462C380.845 178.472 380.733 180.915 380.593 180.915C380.453 180.915 380.341 178.472 380.341 175.462C380.341 172.452 380.453 170.016 380.593 170.016Z" fill="#172833"/>
<path d="M385.878 170.016C386.011 170.016 386.123 172.452 386.123 175.462C386.123 178.472 386.011 180.915 385.878 180.915C385.745 180.915 385.626 178.472 385.626 175.462C385.626 172.452 385.738 170.016 385.878 170.016Z" fill="#172833"/>
<path d="M391.156 170.016C391.296 170.016 391.408 172.452 391.408 175.462C391.408 178.472 391.296 180.915 391.156 180.915C391.016 180.915 390.904 178.472 390.904 175.462C390.904 172.452 391.016 170.016 391.156 170.016Z" fill="#172833"/>
<path d="M396.448 170.016C396.588 170.016 396.7 172.452 396.7 175.462C396.7 178.472 396.588 180.915 396.448 180.915C396.308 180.915 396.196 178.472 396.196 175.462C396.196 172.452 396.301 170.016 396.448 170.016Z" fill="#172833"/>
<path d="M401.726 170.016C401.866 170.016 401.978 172.452 401.978 175.462C401.978 178.472 401.866 180.915 401.726 180.915C401.586 180.915 401.474 178.472 401.474 175.462C401.474 172.452 401.586 170.016 401.726 170.016Z" fill="#172833"/>
<path d="M407.011 170.016C407.144 170.016 407.263 172.452 407.263 175.462C407.263 178.472 407.144 180.915 407.011 180.915C406.878 180.915 406.759 178.472 406.759 175.462C406.759 172.452 406.871 170.016 407.011 170.016Z" fill="#172833"/>
<path d="M412.289 170.016C412.429 170.016 412.541 172.452 412.541 175.462C412.541 178.472 412.429 180.915 412.289 180.915C412.149 180.915 412.037 178.472 412.037 175.462C412.037 172.452 412.156 170.016 412.289 170.016Z" fill="#172833"/>
<path d="M417.574 170.016C417.714 170.016 417.826 172.452 417.826 175.462C417.826 178.472 417.714 180.915 417.574 180.915C417.434 180.915 417.322 178.472 417.322 175.462C417.322 172.452 417.448 170.016 417.574 170.016Z" fill="#172833"/>
<g opacity="0.3">
<path d="M361.826 169.834C380.356 173.442 399.408 173.442 417.938 169.834H361.826Z" fill="#172833"/>
</g>
<path d="M418.848 169.862C418.848 170.002 405.891 170.114 389.917 170.114C373.943 170.114 360.986 170.002 360.986 169.862C360.986 169.722 373.936 169.61 389.917 169.61C405.898 169.61 418.848 169.722 418.848 169.862Z" fill="#172833"/>
<path d="M422.173 180.915H364.206V192.157H422.173V180.915Z" fill="#6E18F3"/>
<path d="M367.93 181.104C368.07 181.104 368.182 183.54 368.182 186.55C368.182 189.56 368.07 192.003 367.93 192.003C367.79 192.003 367.678 189.56 367.678 186.55C367.678 183.54 367.797 181.104 367.93 181.104Z" fill="#172833"/>
<path d="M373.306 181.104C373.446 181.104 373.558 183.54 373.558 186.55C373.558 189.56 373.446 192.003 373.306 192.003C373.166 192.003 373.054 189.56 373.054 186.55C373.054 183.54 373.166 181.104 373.306 181.104Z" fill="#172833"/>
<path d="M378.619 181.104C378.759 181.104 378.871 183.54 378.871 186.55C378.871 189.56 378.759 192.003 378.619 192.003C378.479 192.003 378.367 189.56 378.367 186.55C378.367 183.54 378.479 181.104 378.619 181.104Z" fill="#172833"/>
<path d="M383.904 181.104C384.044 181.104 384.156 183.54 384.156 186.55C384.156 189.56 384.044 192.003 383.904 192.003C383.764 192.003 383.652 189.56 383.652 186.55C383.652 183.54 383.764 181.104 383.904 181.104Z" fill="#172833"/>
<path d="M389.189 181.104C389.322 181.104 389.441 183.54 389.441 186.55C389.441 189.56 389.322 192.003 389.189 192.003C389.056 192.003 388.937 189.56 388.937 186.55C388.937 183.54 389.049 181.104 389.189 181.104Z" fill="#172833"/>
<path d="M394.467 181.104C394.607 181.104 394.719 183.54 394.719 186.55C394.719 189.56 394.607 192.003 394.467 192.003C394.327 192.003 394.215 189.56 394.215 186.55C394.215 183.54 394.348 181.104 394.467 181.104Z" fill="#172833"/>
<path d="M399.752 181.104C399.892 181.104 400.004 183.54 400.004 186.55C400.004 189.56 399.892 192.003 399.752 192.003C399.612 192.003 399.5 189.56 399.5 186.55C399.5 183.54 399.612 181.104 399.752 181.104Z" fill="#172833"/>
<path d="M405.037 181.104C405.177 181.104 405.289 183.54 405.289 186.55C405.289 189.56 405.177 192.003 405.037 192.003C404.897 192.003 404.785 189.56 404.785 186.55C404.785 183.54 404.897 181.104 405.037 181.104Z" fill="#172833"/>
<path d="M410.322 181.104C410.462 181.104 410.574 183.54 410.574 186.55C410.574 189.56 410.462 192.003 410.322 192.003C410.182 192.003 410.07 189.56 410.07 186.55C410.07 183.54 410.182 181.104 410.322 181.104Z" fill="#172833"/>
<path d="M415.607 181.104C415.74 181.104 415.852 183.54 415.852 186.55C415.852 189.56 415.74 192.003 415.607 192.003C415.474 192.003 415.355 189.56 415.355 186.55C415.355 183.54 415.467 181.104 415.607 181.104Z" fill="#172833"/>
<path d="M420.885 181.104C421.025 181.104 421.137 183.54 421.137 186.55C421.137 189.56 421.025 192.003 420.885 192.003C420.745 192.003 420.633 189.56 420.633 186.55C420.633 183.54 420.745 181.104 420.885 181.104Z" fill="#172833"/>
<g opacity="0.3">
<path d="M365.137 180.929C383.705 184.114 402.681 184.114 421.249 180.929H365.137Z" fill="#172833"/>
</g>
<path d="M422.187 180.95C422.187 181.09 409.237 181.202 393.256 181.202C377.275 181.202 364.325 181.09 364.325 180.95C364.325 180.81 377.275 180.698 393.256 180.698C409.237 180.698 422.187 180.81 422.187 180.95Z" fill="#172833"/>
<path d="M54.604 237.907H112.571V226.217H54.604V237.907Z" fill="#6E18F3"/>
<path d="M108.847 226.406C108.707 226.406 108.595 228.947 108.595 232.076C108.595 235.205 108.707 237.746 108.847 237.746C108.987 237.746 109.099 235.205 109.099 232.076C109.099 228.947 108.987 226.406 108.847 226.406Z" fill="#172833"/>
<path d="M103.471 226.406C103.331 226.406 103.219 228.947 103.219 232.076C103.219 235.205 103.331 237.746 103.471 237.746C103.611 237.746 103.723 235.205 103.723 232.076C103.723 228.947 103.611 226.406 103.471 226.406Z" fill="#172833"/>
<path d="M98.158 226.406C98.018 226.406 97.906 228.947 97.906 232.076C97.906 235.205 98.018 237.746 98.158 237.746C98.298 237.746 98.41 235.205 98.41 232.076C98.41 228.947 98.298 226.406 98.158 226.406Z" fill="#172833"/>
<path d="M92.873 226.406C92.74 226.406 92.621 228.947 92.621 232.076C92.621 235.205 92.74 237.746 92.873 237.746C93.006 237.746 93.125 235.205 93.125 232.076C93.125 228.947 93.013 226.406 92.873 226.406Z" fill="#172833"/>
<path d="M87.595 226.406C87.455 226.406 87.343 228.947 87.343 232.076C87.343 235.205 87.455 237.746 87.595 237.746C87.735 237.746 87.847 235.205 87.847 232.076C87.847 228.947 87.728 226.406 87.595 226.406Z" fill="#172833"/>
<path d="M82.324 226.406C82.184 226.406 82.072 228.947 82.072 232.076C82.072 235.205 82.184 237.746 82.324 237.746C82.464 237.746 82.576 235.205 82.576 232.076C82.576 228.947 82.45 226.406 82.324 226.406Z" fill="#172833"/>
<path d="M77.0249 226.406C76.8849 226.406 76.7729 228.947 76.7729 232.076C76.7729 235.205 76.8849 237.746 77.0249 237.746C77.1649 237.746 77.2769 235.205 77.2769 232.076C77.2769 228.947 77.1649 226.406 77.0249 226.406Z" fill="#172833"/>
<path d="M71.74 226.406C71.6 226.406 71.488 228.947 71.488 232.076C71.488 235.205 71.6 237.746 71.74 237.746C71.88 237.746 71.992 235.205 71.992 232.076C71.992 228.947 71.88 226.406 71.74 226.406Z" fill="#172833"/>
<path d="M66.462 226.406C66.322 226.406 66.21 228.947 66.21 232.076C66.21 235.205 66.322 237.746 66.462 237.746C66.602 237.746 66.707 235.205 66.707 232.076C66.707 228.947 66.595 226.406 66.462 226.406Z" fill="#172833"/>
<path d="M61.177 226.406C61.037 226.406 60.925 228.947 60.925 232.076C60.925 235.205 61.037 237.746 61.177 237.746C61.317 237.746 61.429 235.205 61.429 232.076C61.429 228.947 61.324 226.406 61.177 226.406Z" fill="#172833"/>
<path d="M55.892 226.406C55.752 226.406 55.64 228.947 55.64 232.076C55.64 235.205 55.752 237.746 55.892 237.746C56.032 237.746 56.144 235.205 56.144 232.076C56.144 228.947 56.032 226.406 55.892 226.406Z" fill="#172833"/>
<g opacity="0.3">
<path d="M111.64 226.224C93.0216 228.719 74.1535 228.719 55.535 226.224H111.64Z" fill="#172833"/>
</g>
<path d="M54.59 226.252C54.59 226.392 67.547 226.504 83.521 226.504C99.495 226.504 112.459 226.392 112.459 226.252C112.459 226.112 99.502 226 83.521 226C67.54 226 54.59 226.112 54.59 226.252Z" fill="#172833"/>
<path d="M53.302 249.401H111.269V237.711H53.302V249.401Z" fill="#6E18F3"/>
<path d="M107.524 237.9C107.384 237.9 107.272 240.441 107.272 243.57C107.272 246.699 107.384 249.24 107.524 249.24C107.664 249.24 107.776 246.699 107.776 243.57C107.776 240.441 107.685 237.9 107.524 237.9Z" fill="#172833"/>
<path d="M102.169 237.9C102.029 237.9 101.917 240.441 101.917 243.57C101.917 246.699 102.029 249.24 102.169 249.24C102.309 249.24 102.421 246.699 102.421 243.57C102.421 240.441 102.309 237.9 102.169 237.9Z" fill="#172833"/>
<path d="M96.856 237.9C96.716 237.9 96.604 240.441 96.604 243.57C96.604 246.699 96.716 249.24 96.856 249.24C96.996 249.24 97.108 246.699 97.108 243.57C97.108 240.441 97.024 237.9 96.856 237.9Z" fill="#172833"/>
<path d="M91.571 237.9C91.438 237.9 91.319 240.441 91.319 243.57C91.319 246.699 91.438 249.24 91.571 249.24C91.704 249.24 91.823 246.699 91.823 243.57C91.823 240.441 91.711 237.9 91.571 237.9Z" fill="#172833"/>
<path d="M86.293 237.9C86.153 237.9 86.041 240.441 86.041 243.57C86.041 246.699 86.153 249.24 86.293 249.24C86.433 249.24 86.545 246.699 86.545 243.57C86.545 240.441 86.426 237.9 86.293 237.9Z" fill="#172833"/>
<path d="M81.008 237.9C80.868 237.9 80.756 240.441 80.756 243.57C80.756 246.699 80.868 249.24 81.008 249.24C81.148 249.24 81.26 246.699 81.26 243.57C81.26 240.441 81.148 237.9 81.008 237.9Z" fill="#172833"/>
<path d="M75.7229 237.9C75.5829 237.9 75.4709 240.441 75.4709 243.57C75.4709 246.699 75.5829 249.24 75.7229 249.24C75.8629 249.24 75.9749 246.699 75.9749 243.57C75.9749 240.441 75.8629 237.9 75.7229 237.9Z" fill="#172833"/>
<path d="M70.424 237.9C70.284 237.9 70.172 240.441 70.172 243.57C70.172 246.699 70.284 249.24 70.424 249.24C70.564 249.24 70.676 246.699 70.676 243.57C70.676 240.441 70.578 237.9 70.424 237.9Z" fill="#172833"/>
<path d="M65.16 237.9C65.02 237.9 64.908 240.441 64.908 243.57C64.908 246.699 65.02 249.24 65.16 249.24C65.3 249.24 65.405 246.699 65.405 243.57C65.405 240.441 65.293 237.9 65.16 237.9Z" fill="#172833"/>
<path d="M59.875 237.9C59.735 237.9 59.623 240.441 59.623 243.57C59.623 246.699 59.735 249.24 59.875 249.24C60.015 249.24 60.127 246.699 60.127 243.57C60.127 240.441 60.015 237.9 59.875 237.9Z" fill="#172833"/>
<path d="M54.59 237.9C54.45 237.9 54.338 240.441 54.338 243.57C54.338 246.699 54.45 249.24 54.59 249.24C54.73 249.24 54.842 246.699 54.842 243.57C54.842 240.441 54.73 237.9 54.59 237.9Z" fill="#172833"/>
<g opacity="0.3">
<path d="M110.324 237.725C91.7056 240.22 72.8374 240.22 54.219 237.725H110.324Z" fill="#172833"/>
</g>
<path d="M53.288 237.725C53.288 237.865 66.245 237.977 82.219 237.977C98.193 237.977 111.157 237.865 111.157 237.725C111.157 237.585 98.2 237.473 82.219 237.473C66.238 237.473 53.288 237.606 53.288 237.725Z" fill="#172833"/>
<path d="M58.8109 260.713H116.778V249.023H58.8109V260.713Z" fill="#6E18F3"/>
<path d="M113.047 249.212C112.907 249.212 112.795 251.753 112.795 254.882C112.795 258.011 112.907 260.545 113.047 260.545C113.187 260.545 113.299 258.011 113.299 254.882C113.299 251.753 113.187 249.212 113.047 249.212Z" fill="#172833"/>
<path d="M107.671 249.212C107.531 249.212 107.419 251.753 107.419 254.882C107.419 258.011 107.531 260.545 107.671 260.545C107.811 260.545 107.923 258.011 107.923 254.882C107.923 251.753 107.811 249.212 107.671 249.212Z" fill="#172833"/>
<path d="M102.358 249.212C102.225 249.212 102.106 251.753 102.106 254.882C102.106 258.011 102.225 260.545 102.358 260.545C102.491 260.545 102.61 258.011 102.61 254.882C102.61 251.753 102.498 249.212 102.358 249.212Z" fill="#172833"/>
<path d="M97.08 249.212C96.94 249.212 96.828 251.753 96.828 254.882C96.828 258.011 96.94 260.545 97.08 260.545C97.22 260.545 97.332 258.011 97.332 254.882C97.332 251.753 97.22 249.212 97.08 249.212Z" fill="#172833"/>
<path d="M91.795 249.212C91.655 249.212 91.543 251.753 91.543 254.882C91.543 258.011 91.655 260.545 91.795 260.545C91.935 260.545 92.047 258.011 92.047 254.882C92.047 251.753 91.935 249.212 91.795 249.212Z" fill="#172833"/>
<path d="M86.524 249.212C86.384 249.212 86.272 251.753 86.272 254.882C86.272 258.011 86.384 260.545 86.524 260.545C86.664 260.545 86.776 258.011 86.776 254.882C86.776 251.753 86.65 249.212 86.524 249.212Z" fill="#172833"/>
<path d="M81.225 249.212C81.085 249.212 80.973 251.753 80.973 254.882C80.973 258.011 81.085 260.545 81.225 260.545C81.365 260.545 81.477 258.011 81.477 254.882C81.477 251.753 81.365 249.212 81.225 249.212Z" fill="#172833"/>
<path d="M75.9469 249.212C75.8069 249.212 75.6949 251.753 75.6949 254.882C75.6949 258.011 75.8069 260.545 75.9469 260.545C76.0869 260.545 76.192 258.011 76.192 254.882C76.192 251.753 76.0799 249.212 75.9469 249.212Z" fill="#172833"/>
<path d="M70.662 249.212C70.522 249.212 70.41 251.753 70.41 254.882C70.41 258.011 70.522 260.545 70.662 260.545C70.802 260.545 70.914 258.011 70.914 254.882C70.914 251.753 70.802 249.212 70.662 249.212Z" fill="#172833"/>
<path d="M65.377 249.212C65.237 249.212 65.125 251.753 65.125 254.882C65.125 258.011 65.237 260.545 65.377 260.545C65.517 260.545 65.629 258.011 65.629 254.882C65.629 251.753 65.524 249.212 65.377 249.212Z" fill="#172833"/>
<path d="M60.092 249.212C59.952 249.212 59.84 251.753 59.84 254.882C59.84 258.011 59.952 260.545 60.092 260.545C60.232 260.545 60.344 258.011 60.344 254.882C60.344 251.753 60.232 249.212 60.092 249.212Z" fill="#172833"/>
<g opacity="0.3">
<path d="M115.84 249.03C97.2216 251.525 78.3534 251.525 59.735 249.03H115.84Z" fill="#172833"/>
</g>
<path d="M58.79 249.058C58.79 249.198 71.747 249.31 87.721 249.31C103.695 249.31 116.659 249.198 116.659 249.058C116.659 248.918 103.709 248.806 87.721 248.806C71.733 248.806 58.79 248.925 58.79 249.058Z" fill="#172833"/>
<path d="M52.021 271.864H109.988V260.622H52.021V271.864Z" fill="#6E18F3"/>
<path d="M106.257 260.825C106.117 260.825 106.005 263.261 106.005 266.271C106.005 269.281 106.117 271.724 106.257 271.724C106.397 271.724 106.509 269.281 106.509 266.271C106.509 263.261 106.397 260.825 106.257 260.825Z" fill="#172833"/>
<path d="M100.881 260.825C100.741 260.825 100.629 263.261 100.629 266.271C100.629 269.281 100.741 271.724 100.881 271.724C101.021 271.724 101.133 269.281 101.133 266.271C101.133 263.261 101.021 260.825 100.881 260.825Z" fill="#172833"/>
<path d="M95.568 260.825C95.428 260.825 95.316 263.261 95.316 266.271C95.316 269.281 95.428 271.724 95.568 271.724C95.708 271.724 95.82 269.281 95.82 266.271C95.82 263.261 95.708 260.825 95.568 260.825Z" fill="#172833"/>
<path d="M90.29 260.825C90.15 260.825 90.038 263.261 90.038 266.271C90.038 269.281 90.15 271.724 90.29 271.724C90.43 271.724 90.542 269.281 90.542 266.271C90.542 263.261 90.423 260.825 90.29 260.825Z" fill="#172833"/>
<path d="M85.0051 260.825C84.8651 260.825 84.7531 263.261 84.7531 266.271C84.7531 269.281 84.8651 271.724 85.0051 271.724C85.1451 271.724 85.2571 269.281 85.2571 266.271C85.2571 263.261 85.1241 260.825 85.0051 260.825Z" fill="#172833"/>
<path d="M79.72 260.825C79.58 260.825 79.468 263.261 79.468 266.271C79.468 269.281 79.58 271.724 79.72 271.724C79.86 271.724 79.972 269.281 79.972 266.271C79.972 263.261 79.86 260.825 79.72 260.825Z" fill="#172833"/>
<path d="M74.435 260.825C74.295 260.825 74.183 263.261 74.183 266.271C74.183 269.281 74.295 271.724 74.435 271.724C74.575 271.724 74.687 269.281 74.687 266.271C74.687 263.261 74.575 260.825 74.435 260.825Z" fill="#172833"/>
<path d="M69.15 260.825C69.017 260.825 68.905 263.261 68.905 266.271C68.905 269.281 69.017 271.724 69.15 271.724C69.283 271.724 69.402 269.281 69.402 266.271C69.402 263.261 69.29 260.825 69.15 260.825Z" fill="#172833"/>
<path d="M63.872 260.825C63.732 260.825 63.62 263.261 63.62 266.271C63.62 269.281 63.732 271.724 63.872 271.724C64.012 271.724 64.124 269.281 64.124 266.271C64.124 263.261 64.012 260.825 63.872 260.825Z" fill="#172833"/>
<path d="M58.587 260.825C58.447 260.825 58.335 263.261 58.335 266.271C58.335 269.281 58.447 271.724 58.587 271.724C58.727 271.724 58.839 269.281 58.839 266.271C58.839 263.261 58.727 260.825 58.587 260.825Z" fill="#172833"/>
<path d="M53.302 260.825C53.162 260.825 53.05 263.261 53.05 266.271C53.05 269.281 53.162 271.724 53.302 271.724C53.442 271.724 53.554 269.281 53.554 266.271C53.554 263.261 53.442 260.825 53.302 260.825Z" fill="#172833"/>
<g opacity="0.3">
<path d="M109.05 260.636C90.4839 263.821 71.511 263.821 52.9449 260.636H109.05Z" fill="#172833"/>
</g>
<path d="M52 260.657C52 260.797 64.957 260.909 80.931 260.909C96.905 260.909 109.869 260.797 109.869 260.657C109.869 260.517 96.912 260.405 80.931 260.405C64.95 260.405 52 260.517 52 260.657Z" fill="#172833"/>
<path d="M55.745 283.113H113.712V271.871H55.745V283.113Z" fill="#6E18F3"/>
<path d="M109.981 272.06C109.848 272.06 109.736 274.496 109.736 277.506C109.736 280.516 109.848 282.959 109.981 282.959C110.114 282.959 110.233 280.516 110.233 277.506C110.233 274.496 110.121 272.06 109.981 272.06Z" fill="#172833"/>
<path d="M104.612 272.06C104.472 272.06 104.36 274.496 104.36 277.506C104.36 280.516 104.472 282.959 104.612 282.959C104.752 282.959 104.864 280.516 104.864 277.506C104.864 274.496 104.724 272.06 104.612 272.06Z" fill="#172833"/>
<path d="M99.299 272.06C99.159 272.06 99.047 274.496 99.047 277.506C99.047 280.516 99.159 282.959 99.299 282.959C99.439 282.959 99.551 280.516 99.551 277.506C99.551 274.496 99.439 272.06 99.299 272.06Z" fill="#172833"/>
<path d="M94.014 272.06C93.874 272.06 93.762 274.496 93.762 277.506C93.762 280.516 93.874 282.959 94.014 282.959C94.154 282.959 94.266 280.516 94.266 277.506C94.266 274.496 94.154 272.06 94.014 272.06Z" fill="#172833"/>
<path d="M88.7291 272.06C88.5891 272.06 88.4771 274.496 88.4771 277.506C88.4771 280.516 88.5891 282.959 88.7291 282.959C88.8691 282.959 88.9811 280.516 88.9811 277.506C88.9811 274.496 88.8691 272.06 88.7291 272.06Z" fill="#172833"/>
<path d="M83.444 272.06C83.311 272.06 83.199 274.496 83.199 277.506C83.199 280.516 83.311 282.959 83.444 282.959C83.577 282.959 83.696 280.516 83.696 277.506C83.696 274.496 83.584 272.06 83.444 272.06Z" fill="#172833"/>
<path d="M78.1659 272.06C78.0259 272.06 77.9139 274.496 77.9139 277.506C77.9139 280.516 78.0259 282.959 78.1659 282.959C78.3059 282.959 78.4179 280.516 78.4179 277.506C78.4179 274.496 78.3059 272.06 78.1659 272.06Z" fill="#172833"/>
<path d="M72.881 272.06C72.741 272.06 72.629 274.496 72.629 277.506C72.629 280.516 72.741 282.959 72.881 282.959C73.021 282.959 73.133 280.516 73.133 277.506C73.133 274.496 73.021 272.06 72.881 272.06Z" fill="#172833"/>
<path d="M67.6239 272.06C67.4839 272.06 67.3719 274.496 67.3719 277.506C67.3719 280.516 67.4839 282.959 67.6239 282.959C67.7639 282.959 67.8759 280.516 67.8759 277.506C67.8759 274.496 67.7359 272.06 67.6239 272.06Z" fill="#172833"/>
<path d="M62.311 272.06C62.178 272.06 62.059 274.496 62.059 277.506C62.059 280.516 62.178 282.959 62.311 282.959C62.444 282.959 62.563 280.516 62.563 277.506C62.563 274.496 62.451 272.06 62.311 272.06Z" fill="#172833"/>
<path d="M57.033 272.06C56.893 272.06 56.781 274.496 56.781 277.506C56.781 280.516 56.893 282.959 57.033 282.959C57.173 282.959 57.285 280.516 57.285 277.506C57.285 274.496 57.166 272.06 57.033 272.06Z" fill="#172833"/>
<g opacity="0.3">
<path d="M112.781 271.885C94.2506 275.49 75.1992 275.49 56.6689 271.885H112.781Z" fill="#172833"/>
</g>
<path d="M55.724 271.906C55.724 272.046 68.674 272.158 84.655 272.158C100.636 272.158 113.586 272.046 113.586 271.906C113.586 271.766 100.636 271.654 84.655 271.654C68.674 271.654 55.724 271.766 55.724 271.906Z" fill="#172833"/>
<path d="M52.427 294.201H110.394V282.959H52.427V294.201Z" fill="#6E18F3"/>
<path d="M106.67 283.148C106.537 283.148 106.418 285.584 106.418 288.594C106.418 291.604 106.537 294.047 106.67 294.047C106.803 294.047 106.922 291.604 106.922 288.594C106.922 285.584 106.824 283.148 106.67 283.148Z" fill="#172833"/>
<path d="M101.301 283.148C101.161 283.148 101.049 285.584 101.049 288.594C101.049 291.604 101.161 294.047 101.301 294.047C101.441 294.047 101.546 291.604 101.546 288.594C101.546 285.584 101.434 283.148 101.301 283.148Z" fill="#172833"/>
<path d="M95.988 283.148C95.848 283.148 95.736 285.584 95.736 288.594C95.736 291.604 95.848 294.047 95.988 294.047C96.128 294.047 96.24 291.604 96.24 288.594C96.24 285.584 96.128 283.148 95.988 283.148Z" fill="#172833"/>
<path d="M90.724 283.148C90.584 283.148 90.472 285.584 90.472 288.594C90.472 291.604 90.584 294.047 90.724 294.047C90.864 294.047 90.976 291.604 90.976 288.594C90.976 285.584 90.843 283.148 90.724 283.148Z" fill="#172833"/>
<path d="M85.418 283.148C85.278 283.148 85.166 285.584 85.166 288.594C85.166 291.604 85.278 294.047 85.418 294.047C85.558 294.047 85.67 291.604 85.67 288.594C85.67 285.584 85.558 283.148 85.418 283.148Z" fill="#172833"/>
<path d="M80.133 283.148C79.993 283.148 79.881 285.584 79.881 288.594C79.881 291.604 79.993 294.047 80.133 294.047C80.273 294.047 80.385 291.604 80.385 288.594C80.385 285.584 80.273 283.148 80.133 283.148Z" fill="#172833"/>
<path d="M74.855 283.148C74.715 283.148 74.603 285.584 74.603 288.594C74.603 291.604 74.715 294.047 74.855 294.047C74.995 294.047 75.107 291.604 75.107 288.594C75.107 285.584 74.988 283.148 74.855 283.148Z" fill="#172833"/>
<path d="M69.57 283.148C69.43 283.148 69.318 285.584 69.318 288.594C69.318 291.604 69.43 294.047 69.57 294.047C69.71 294.047 69.822 291.604 69.822 288.594C69.822 285.584 69.724 283.148 69.57 283.148Z" fill="#172833"/>
<path d="M64.285 283.148C64.145 283.148 64.033 285.584 64.033 288.594C64.033 291.604 64.145 294.047 64.285 294.047C64.425 294.047 64.537 291.604 64.537 288.594C64.537 285.584 64.425 283.148 64.285 283.148Z" fill="#172833"/>
<path d="M59 283.148C58.86 283.148 58.748 285.584 58.748 288.594C58.748 291.604 58.86 294.047 59 294.047C59.14 294.047 59.252 291.604 59.252 288.594C59.252 285.584 59.14 283.148 59 283.148Z" fill="#172833"/>
<path d="M53.715 283.148C53.582 283.148 53.47 285.584 53.47 288.594C53.47 291.604 53.582 294.047 53.715 294.047C53.848 294.047 53.967 291.604 53.967 288.594C53.967 285.584 53.855 283.148 53.715 283.148Z" fill="#172833"/>
<g opacity="0.3">
<path d="M109.47 282.973C90.9016 286.158 71.9264 286.158 53.358 282.973H109.47Z" fill="#172833"/>
</g>
<path d="M52.413 282.994C52.413 283.134 65.37 283.246 81.351 283.246C97.332 283.246 110.282 283.134 110.282 282.994C110.282 282.854 97.332 282.742 81.351 282.742C65.37 282.742 52.413 282.854 52.413 282.994Z" fill="#172833"/>
<path d="M110.401 294.201C110.392 294.138 110.392 294.075 110.401 294.012C110.401 293.865 110.401 293.676 110.401 293.445C110.401 292.92 110.401 292.192 110.366 291.254C110.366 289.322 110.366 286.557 110.31 283.113V282.987H110.436H113.628L113.488 283.127C113.488 279.844 113.488 276.036 113.488 271.878L113.656 272.053H109.75V271.871C109.75 268.371 109.75 264.626 109.75 260.713V260.524H116.75L116.561 260.713C116.561 256.555 116.561 252.558 116.561 248.813L116.743 248.988H111.066V248.82C111.066 244.746 111.066 241.078 111.101 237.914V237.781H112.655L112.529 237.907C112.529 234.288 112.529 231.383 112.529 229.353C112.529 228.373 112.529 227.603 112.529 227.057C112.529 226.812 112.529 226.616 112.529 226.462C112.519 226.395 112.519 226.326 112.529 226.259C112.529 226.259 112.529 226.322 112.529 226.462C112.529 226.602 112.529 226.805 112.529 227.05C112.529 227.603 112.529 228.373 112.585 229.353C112.62 231.383 112.669 234.288 112.732 237.907V238.033H111.185L111.318 237.9C111.318 241.064 111.318 244.732 111.353 248.806L111.185 248.638H116.687H116.862V248.82C116.862 252.565 116.862 256.562 116.862 260.72V260.909H109.862L110.051 260.72C110.051 264.633 110.051 268.42 110.051 271.878L109.876 271.696H113.775V271.871C113.775 276.029 113.775 279.837 113.775 283.12V283.26H113.635H110.443L110.569 283.134C110.569 286.578 110.52 289.343 110.513 291.275C110.513 292.213 110.513 292.941 110.478 293.466C110.478 293.699 110.478 293.888 110.478 294.033C110.462 294.093 110.436 294.15 110.401 294.201Z" fill="#172833"/>
<defs>
<filter id="filter0_d_352_27601" x="82.4" y="76.4" width="328.2" height="208.2" filterUnits="userSpaceOnUse" color-interpolation-filters="sRGB">
<feFlood flood-opacity="0" result="BackgroundImageFix"/>
<feColorMatrix in="SourceAlpha" type="matrix" values="0 0 0 0 0 0 0 0 0 0 0 0 0 0 0 0 0 0 127 0" result="hardAlpha"/>
<feOffset dy="4"/>
<feGaussianBlur stdDeviation="8.3"/>
<feComposite in2="hardAlpha" operator="out"/>
<feColorMatrix type="matrix" values="0 0 0 0 0 0 0 0 0 0 0 0 0 0 0 0 0 0 0.25 0"/>
<feBlend mode="normal" in2="BackgroundImageFix" result="effect1_dropShadow_352_27601"/>
<feBlend mode="normal" in="SourceGraphic" in2="effect1_dropShadow_352_27601" result="shape"/>
</filter>
</defs>
</svg>
