<svg width="82" height="57" viewBox="0 0 82 57" fill="none" xmlns="http://www.w3.org/2000/svg">
<path d="M20.45 56.1009C15.95 56.1009 12.25 55.1009 9.35 53.1009C6.45 51.1009 4.3 48.5009 2.9 45.3009C1.6 42.1009 0.95 38.7509 0.95 35.2509C0.95 29.8509 2.2 24.8009 4.7 20.1009C7.2 15.3009 10.25 11.2009 13.85 7.80092C17.55 4.30093 21.2 1.80092 24.8 0.30092L37.85 9.15092C35.15 10.4509 32.5 11.9509 29.9 13.6509C27.3 15.3509 24.95 17.2009 22.85 19.2009C20.75 21.2009 19.1 23.2509 17.9 25.3509L18.65 25.9509C19.45 25.4509 20.25 25.1009 21.05 24.9009C21.95 24.7009 23.1 24.6009 24.5 24.6009C26.7 24.6009 28.9 25.1509 31.1 26.2509C33.3 27.2509 35.15 28.8009 36.65 30.9009C38.15 33.0009 38.9 35.6509 38.9 38.8509C38.9 42.8509 38 46.1509 36.2 48.7509C34.5 51.2509 32.25 53.1009 29.45 54.3009C26.65 55.5009 23.65 56.1009 20.45 56.1009ZM62.9 56.1009C58.4 56.1009 54.7 55.1009 51.8 53.1009C48.9 51.1009 46.75 48.5009 45.35 45.3009C44.05 42.1009 43.4 38.7509 43.4 35.2509C43.4 29.8509 44.65 24.8009 47.15 20.1009C49.65 15.3009 52.7 11.2009 56.3 7.80092C60 4.30093 63.65 1.80092 67.25 0.30092L80.3 9.15092C77.6 10.4509 74.95 11.9509 72.35 13.6509C69.75 15.3509 67.4 17.2009 65.3 19.2009C63.2 21.2009 61.55 23.2509 60.35 25.3509L61.1 25.9509C61.9 25.4509 62.7 25.1009 63.5 24.9009C64.4 24.7009 65.55 24.6009 66.95 24.6009C69.15 24.6009 71.35 25.1509 73.55 26.2509C75.75 27.2509 77.6 28.8009 79.1 30.9009C80.6 33.0009 81.35 35.6509 81.35 38.8509C81.35 42.8509 80.45 46.1509 78.65 48.7509C76.95 51.2509 74.7 53.1009 71.9 54.3009C69.1 55.5009 66.1 56.1009 62.9 56.1009Z" fill="#F3BE18"/>
</svg>
