<svg width="100" height="100" viewBox="0 0 100 100" fill="none" xmlns="http://www.w3.org/2000/svg">
<path opacity="0.4" d="M70.8333 37.5C70.8333 53.625 56.8333 66.6667 39.5833 66.6667L35.7083 71.3333L33.4166 74.0835C31.4583 76.4168 27.7082 75.9166 26.4166 73.125L20.8333 60.8332C13.2499 55.4999 8.33325 47.0417 8.33325 37.5C8.33325 21.375 22.3333 8.33334 39.5833 8.33334C52.1666 8.33334 63.0416 15.2917 67.9166 25.2917C69.7916 29 70.8333 33.125 70.8333 37.5Z" fill="#F3BE18"/>
<path d="M91.6666 53.5833C91.6666 63.1249 86.7499 71.5834 79.1666 76.9168L73.5832 89.2082C72.2916 91.9999 68.5415 92.5417 66.5832 90.1667L60.4166 82.7499C50.3332 82.7499 41.3333 78.2916 35.7083 71.3333L39.5832 66.6667C56.8332 66.6667 70.8332 53.625 70.8332 37.5C70.8332 33.125 69.7916 29 67.9166 25.2917C81.5416 28.4167 91.6666 39.9166 91.6666 53.5833Z" fill="#F3BE18"/>
<path d="M50.0001 40.625H29.1667C27.4584 40.625 26.0417 39.2083 26.0417 37.5C26.0417 35.7917 27.4584 34.375 29.1667 34.375H50.0001C51.7084 34.375 53.1251 35.7917 53.1251 37.5C53.1251 39.2083 51.7084 40.625 50.0001 40.625Z" fill="#F3BE18"/>
</svg>
