<svg width="100" height="100" viewBox="0 0 100 100" fill="none" xmlns="http://www.w3.org/2000/svg">
<path d="M49.9999 94.7917C25.2916 94.7917 5.20825 74.7083 5.20825 50C5.20825 25.2917 25.2916 5.20833 49.9999 5.20833C74.7083 5.20833 94.7916 25.2917 94.7916 50C94.7916 74.7083 74.7083 94.7917 49.9999 94.7917ZM49.9999 11.4583C28.7499 11.4583 11.4583 28.75 11.4583 50C11.4583 71.25 28.7499 88.5417 49.9999 88.5417C71.2499 88.5417 88.5416 71.25 88.5416 50C88.5416 28.75 71.2499 11.4583 49.9999 11.4583Z" fill="#F3BE18"/>
<path d="M37.5 90.625H33.3333C31.625 90.625 30.2083 89.2083 30.2083 87.5C30.2083 85.7917 31.5417 84.4167 33.25 84.375C26.7083 62.0417 26.7083 37.9583 33.25 15.625C31.5417 15.5833 30.2083 14.2083 30.2083 12.5C30.2083 10.7917 31.625 9.375 33.3333 9.375H37.5C38.5 9.375 39.4583 9.875 40.0417 10.6667C40.625 11.5 40.7917 12.5417 40.4583 13.5C32.625 37.0417 32.625 62.9583 40.4583 86.5417C40.7917 87.5 40.625 88.5417 40.0417 89.375C39.4583 90.125 38.5 90.625 37.5 90.625Z" fill="#F3BE18"/>
<path d="M62.5 90.625C62.1667 90.625 61.8334 90.5833 61.5 90.4583C59.875 89.9167 58.9584 88.125 59.5417 86.5C67.375 62.9583 67.375 37.0417 59.5417 13.4583C59 11.8333 59.875 10.0417 61.5 9.5C63.1667 8.95833 64.9167 9.83333 65.4584 11.4583C73.75 36.2917 73.75 63.625 65.4584 88.4167C65.0417 89.7917 63.7917 90.625 62.5 90.625Z" fill="#F3BE18"/>
<path d="M50 71.6667C38.375 71.6667 26.7917 70.0417 15.625 66.75C15.5833 68.4167 14.2083 69.7917 12.5 69.7917C10.7917 69.7917 9.375 68.375 9.375 66.6667V62.5C9.375 61.5 9.875 60.5417 10.6667 59.9583C11.5 59.375 12.5417 59.2083 13.5 59.5417C37.0417 67.375 63 67.375 86.5417 59.5417C87.5 59.2083 88.5417 59.375 89.375 59.9583C90.2083 60.5417 90.6667 61.5 90.6667 62.5V66.6667C90.6667 68.375 89.25 69.7917 87.5417 69.7917C85.8333 69.7917 84.4583 68.4583 84.4167 66.75C73.2083 70.0417 61.625 71.6667 50 71.6667Z" fill="#F3BE18"/>
<path d="M87.5 40.625C87.1667 40.625 86.8333 40.5833 86.5 40.4583C62.9583 32.625 37 32.625 13.4583 40.4583C11.7917 41 10.0417 40.125 9.49999 38.5C8.99999 36.8333 9.87499 35.0833 11.5 34.5417C36.3333 26.25 63.6667 26.25 88.4583 34.5417C90.0833 35.0833 91 36.875 90.4167 38.5C90.0417 39.7917 88.7917 40.625 87.5 40.625Z" fill="#F3BE18"/>
</svg>
