<svg width="100" height="100" viewBox="0 0 100 100" fill="none" xmlns="http://www.w3.org/2000/svg">
<path opacity="0.4" d="M90.2082 41.7917C88.5832 39.4583 85.7083 38.125 82.4166 38.125H65.3333C64.2083 38.125 63.1666 37.6667 62.4582 36.8333C61.7083 36 61.4166 34.8333 61.5833 33.625L63.7082 19.9583C64.6249 15.875 61.9166 11.2917 57.8333 9.91668C54.0416 8.50001 49.5833 10.4167 47.7916 13.125L30.2083 39.25L29.7083 40.0833V76.9167L30.3333 77.5417L43.5416 87.75C45.2916 89.5 49.2499 90.4583 52.0416 90.4583H68.2916C73.8749 90.4583 79.4999 86.25 80.7499 81.125L90.9999 49.9167C92.0832 46.9583 91.7916 44.0833 90.2082 41.7917Z" fill="#F3BE18"/>
<path d="M21.7083 26.5833H17.4166C10.9583 26.5833 8.33325 29.0833 8.33325 35.25V77.1667C8.33325 83.3333 10.9583 85.8333 17.4166 85.8333H21.7083C28.1666 85.8333 30.7916 83.3333 30.7916 77.1667V35.25C30.7916 29.0833 28.1666 26.5833 21.7083 26.5833Z" fill="#F3BE18"/>
</svg>
