<svg width="100" height="100" viewBox="0 0 100 100" fill="none" xmlns="http://www.w3.org/2000/svg">
<path opacity="0.4" d="M91.5417 26.7083V53.7917H8.33337V26.7083C8.33337 16.5833 16.5834 8.33334 26.7084 8.33334H73.1667C83.2917 8.33334 91.5417 16.5833 91.5417 26.7083Z" fill="#F3BE18"/>
<path d="M8.33337 53.8333V54.6667C8.33337 64.8333 16.5834 73.0417 26.7084 73.0417H42.7084C45 73.0417 46.875 74.9167 46.875 77.2083V81.25C46.875 83.5417 45 85.4167 42.7084 85.4167H32.625C30.9167 85.4167 29.5 86.8333 29.5 88.5417C29.5 90.25 30.875 91.6667 32.625 91.6667H67.4167C69.125 91.6667 70.5417 90.25 70.5417 88.5417C70.5417 86.8333 69.125 85.4167 67.4167 85.4167H57.3334C55.0417 85.4167 53.1667 83.5417 53.1667 81.25V77.2083C53.1667 74.9167 55.0417 73.0417 57.3334 73.0417H73.2084C83.375 73.0417 91.5834 64.7917 91.5834 54.6667V53.8333H8.33337Z" fill="#F3BE18"/>
</svg>
