<svg width="100" height="100" viewBox="0 0 100 100" fill="none" xmlns="http://www.w3.org/2000/svg">
<path opacity="0.4" d="M79.1667 37.5C79.1667 43.5417 77.375 49.0834 74.2917 53.7084C69.7917 60.3751 62.6667 65.0833 54.375 66.2917C52.9584 66.5417 51.5 66.6667 50 66.6667C48.5 66.6667 47.0417 66.5417 45.625 66.2917C37.3334 65.0833 30.2084 60.3751 25.7084 53.7084C22.625 49.0834 20.8334 43.5417 20.8334 37.5C20.8334 21.375 33.875 8.33333 50 8.33333C66.125 8.33333 79.1667 21.375 79.1667 37.5Z" fill="#F3BE18"/>
<path d="M88.5417 76.9583L81.6667 78.5833C80.125 78.9583 78.9167 80.125 78.5833 81.6667L77.125 87.7917C76.3333 91.125 72.0833 92.125 69.875 89.5L50 66.6667L30.125 89.5416C27.9167 92.1666 23.6667 91.1666 22.875 87.8333L21.4167 81.7083C21.0417 80.1666 19.8333 78.9583 18.3333 78.625L11.4583 77C8.29167 76.25 7.16667 72.2916 9.45834 69.9999L25.7083 53.75C30.2083 60.4166 37.3333 65.1251 45.625 66.3334C47.0417 66.5834 48.5 66.7084 50 66.7084C51.5 66.7084 52.9583 66.5834 54.375 66.3334C62.6667 65.1251 69.7917 60.4166 74.2917 53.75L90.5417 69.9999C92.8333 72.2499 91.7083 76.2083 88.5417 76.9583Z" fill="#F3BE18"/>
<path d="M52.4167 24.9167L54.8751 29.8333C55.2084 30.5 56.0834 31.1667 56.875 31.2917L61.3334 32.0416C64.1667 32.5 64.8334 34.5833 62.7917 36.625L59.3334 40.0833C58.75 40.6666 58.4167 41.7917 58.625 42.625L59.6251 46.9167C60.4167 50.2917 58.6251 51.6249 55.6251 49.8333L51.4584 47.3749C50.7084 46.9166 49.4584 46.9166 48.7084 47.3749L44.5417 49.8333C41.5417 51.5833 39.75 50.2917 40.5417 46.9167L41.5417 42.625C41.7084 41.8333 41.4167 40.6666 40.8334 40.0833L37.3751 36.625C35.3334 34.5833 36 32.5416 38.8334 32.0416L43.2917 31.2917C44.0417 31.1667 44.9167 30.5 45.25 29.8333L47.7084 24.9167C48.9167 22.25 51.0834 22.25 52.4167 24.9167Z" fill="#F3BE18"/>
</svg>
