<svg width="1120" height="470" viewBox="0 0 1120 470" fill="none" xmlns="http://www.w3.org/2000/svg">
<path d="M877.174 120.945V469.301H724.505V177.043C724.505 177.043 724.925 176.9 725.105 176.843C725.285 176.786 725.526 176.7 725.706 176.643C725.886 176.586 726.126 176.501 726.306 176.444L726.906 176.244C726.906 176.244 727.327 176.102 727.507 176.045C727.687 175.988 727.927 175.902 728.107 175.845C728.287 175.788 728.527 175.703 728.707 175.646C728.887 175.589 729.128 175.503 729.308 175.446L729.908 175.247C729.908 175.247 730.328 175.104 730.508 175.047C730.689 174.99 730.929 174.905 731.109 174.848C731.289 174.791 731.529 174.705 731.709 174.648C731.889 174.591 732.129 174.506 732.309 174.449C732.49 174.392 732.73 174.306 732.91 174.249C733.09 174.192 733.33 174.107 733.51 174.05C733.69 173.993 733.93 173.907 734.111 173.85C734.291 173.793 734.531 173.707 734.711 173.65C734.891 173.593 735.131 173.508 735.311 173.451C735.491 173.394 735.731 173.308 735.912 173.251C736.092 173.194 736.332 173.109 736.512 173.052C736.692 172.995 736.932 172.909 737.112 172.852C737.292 172.795 737.533 172.71 737.713 172.653C737.893 172.596 738.133 172.51 738.313 172.453C738.493 172.396 738.733 172.311 738.913 172.254C739.093 172.197 739.334 172.111 739.514 172.054C739.694 171.997 739.934 171.912 740.114 171.855C740.294 171.798 740.534 171.712 740.714 171.655C740.895 171.598 741.135 171.513 741.315 171.456C741.495 171.399 741.735 171.313 741.915 171.256C742.095 171.199 742.335 171.114 742.515 171.057C742.696 171 742.936 170.914 743.116 170.857C743.296 170.8 743.536 170.714 743.716 170.657C743.896 170.6 744.136 170.515 744.316 170.458C744.497 170.401 744.737 170.315 744.917 170.258C745.097 170.201 745.337 170.116 745.517 170.059L746.118 169.859C746.118 169.859 746.538 169.717 746.718 169.66C746.898 169.603 747.138 169.517 747.318 169.46C747.498 169.403 747.739 169.318 747.919 169.261L748.519 169.061C748.519 169.061 748.939 168.919 749.119 168.862C749.299 168.805 749.54 168.719 749.72 168.662C749.9 168.605 750.14 168.52 750.32 168.463C750.5 168.406 750.74 168.32 750.92 168.263L751.521 168.064C751.521 168.064 751.941 167.921 752.121 167.864C752.301 167.807 752.541 167.721 752.721 167.664C752.902 167.607 753.142 167.522 753.322 167.465C753.502 167.408 753.742 167.322 753.922 167.265L754.523 167.066C754.523 167.066 754.943 166.923 755.123 166.866C755.303 166.809 755.543 166.724 755.723 166.667C755.903 166.61 756.143 166.524 756.324 166.467L756.924 166.268C756.924 166.268 757.344 166.125 757.524 166.068C757.704 166.011 757.944 165.926 758.125 165.869C758.305 165.812 758.545 165.726 758.725 165.669L759.325 165.47L759.926 165.27C759.926 165.27 760.346 165.128 760.526 165.071C760.706 165.014 760.946 164.928 761.126 164.871C761.306 164.814 761.547 164.729 761.727 164.672L762.327 164.472C762.327 164.472 762.747 164.329 762.927 164.272C763.108 164.215 763.348 164.13 763.528 164.073C763.708 164.016 763.948 163.93 764.128 163.873C764.308 163.816 764.548 163.731 764.729 163.674C764.909 163.617 765.149 163.531 765.329 163.474C765.509 163.417 765.749 163.332 765.929 163.275C766.109 163.218 766.349 163.132 766.53 163.075C766.71 163.018 766.95 162.933 767.13 162.876C767.31 162.819 767.55 162.733 767.73 162.676C767.91 162.619 768.15 162.534 768.331 162.477C768.511 162.42 768.751 162.334 768.931 162.277C769.111 162.22 769.351 162.135 769.531 162.078L770.132 161.878C770.132 161.878 770.552 161.736 770.732 161.679C770.912 161.621 771.152 161.536 771.332 161.479C771.512 161.422 771.753 161.336 771.933 161.279C772.113 161.222 772.353 161.137 772.533 161.08C772.713 161.023 772.953 160.937 773.133 160.88C773.314 160.823 773.554 160.738 773.734 160.681C773.914 160.624 774.154 160.538 774.334 160.481C774.514 160.424 774.754 160.339 774.934 160.282C775.115 160.225 775.355 160.139 775.535 160.082C775.715 160.025 775.955 159.94 776.135 159.883C776.315 159.826 776.555 159.74 776.736 159.683C776.916 159.626 777.156 159.541 777.336 159.484C777.516 159.427 777.756 159.341 777.936 159.284C778.116 159.227 778.357 159.142 778.537 159.085C778.717 159.028 778.957 158.942 779.137 158.885C779.317 158.828 779.557 158.743 779.737 158.686C779.917 158.629 780.158 158.543 780.338 158.486C780.518 158.429 780.758 158.343 780.938 158.286C781.118 158.229 781.358 158.144 781.538 158.087C781.719 158.03 781.959 157.944 782.139 157.887C782.319 157.83 782.559 157.745 782.739 157.688C782.919 157.631 783.159 157.545 783.339 157.488C783.519 157.431 783.76 157.346 783.94 157.289C784.12 157.232 784.36 157.146 784.54 157.089C784.72 157.032 784.96 156.947 785.14 156.89C785.321 156.833 785.561 156.747 785.741 156.69C785.921 156.605 786.161 156.548 786.341 156.462C786.521 156.377 786.761 156.32 786.942 156.234C787.122 156.149 787.362 156.092 787.542 156.006C787.722 155.921 787.962 155.864 788.142 155.778C788.322 155.693 788.562 155.636 788.743 155.55C788.923 155.464 789.163 155.407 789.343 155.322C789.523 155.236 789.763 155.179 789.943 155.094C790.123 155.008 790.364 154.951 790.544 154.866C790.724 154.78 790.964 154.723 791.144 154.638C791.324 154.552 791.564 154.495 791.744 154.41C791.924 154.324 792.165 154.267 792.345 154.182C792.525 154.096 792.765 154.039 792.945 153.954C793.125 153.868 793.365 153.811 793.545 153.726C793.726 153.64 793.966 153.583 794.146 153.498C794.326 153.412 794.566 153.355 794.746 153.27C794.926 153.184 795.166 153.127 795.346 153.042C795.527 152.956 795.767 152.899 795.947 152.814C796.127 152.728 796.367 152.671 796.547 152.586C796.727 152.5 796.967 152.443 797.147 152.357C797.328 152.272 797.568 152.215 797.748 152.129C797.928 152.044 798.168 151.987 798.348 151.901C798.528 151.816 798.768 151.759 798.949 151.673C799.129 151.588 799.369 151.531 799.549 151.445C799.729 151.36 799.969 151.303 800.149 151.217C800.329 151.132 800.57 151.075 800.75 150.989C800.93 150.904 801.17 150.847 801.35 150.761C801.53 150.676 801.77 150.619 801.95 150.533C802.13 150.448 802.371 150.391 802.551 150.305C802.731 150.22 802.971 150.163 803.151 150.077C803.331 149.992 803.571 149.935 803.751 149.849C803.932 149.764 804.172 149.707 804.352 149.621C804.532 149.536 804.772 149.479 804.952 149.393C805.132 149.307 805.372 149.25 805.552 149.165C805.733 149.079 805.973 149.022 806.153 148.937C806.333 148.851 806.573 148.794 806.753 148.709C806.933 148.623 807.173 148.566 807.353 148.481C807.534 148.395 807.774 148.338 807.954 148.253C808.134 148.167 808.374 148.11 808.554 148.025C808.734 147.939 808.974 147.882 809.155 147.797C809.335 147.711 809.575 147.654 809.755 147.569C809.935 147.483 810.175 147.426 810.355 147.341C810.535 147.255 810.776 147.198 810.956 147.113C811.136 147.027 811.376 146.97 811.556 146.885C811.736 146.799 811.976 146.742 812.156 146.657C812.336 146.571 812.577 146.514 812.757 146.429C812.937 146.343 813.177 146.286 813.357 146.2C813.537 146.115 813.777 146.058 813.957 145.972C814.137 145.887 814.378 145.83 814.558 145.744C814.738 145.659 814.978 145.602 815.158 145.516C815.338 145.431 815.578 145.374 815.758 145.288C815.939 145.203 816.179 145.146 816.359 145.06C816.539 144.975 816.779 144.918 816.959 144.832C817.139 144.747 817.379 144.69 817.56 144.604C817.74 144.519 817.98 144.462 818.16 144.376C818.34 144.291 818.58 144.234 818.76 144.148C818.94 144.063 819.18 144.006 819.361 143.92C819.541 143.835 819.781 143.778 819.961 143.692C820.141 143.607 820.381 143.55 820.561 143.464C820.741 143.378 820.981 143.321 821.162 143.236C821.342 143.15 821.582 143.093 821.762 143.008C821.942 142.922 822.182 142.865 822.362 142.78C822.542 142.694 822.783 142.637 822.963 142.552C823.143 142.466 823.383 142.409 823.563 142.324C823.743 142.238 823.983 142.181 824.163 142.096C824.343 142.01 824.584 141.953 824.764 141.868C824.944 141.782 825.184 141.725 825.364 141.64C825.544 141.554 825.784 141.497 825.964 141.412C826.145 141.326 826.385 141.269 826.565 141.184C826.745 141.098 826.985 141.041 827.165 140.956C827.345 140.87 827.585 140.813 827.766 140.728C827.946 140.642 828.186 140.585 828.366 140.5C828.546 140.414 828.786 140.357 828.966 140.271C829.146 140.186 829.386 140.129 829.567 140.043C829.747 139.958 829.987 139.901 830.167 139.815C830.347 139.73 830.587 139.673 830.767 139.587C830.947 139.502 831.187 139.445 831.368 139.359C831.548 139.274 831.788 139.217 831.968 139.131C832.148 139.046 832.388 138.989 832.568 138.903C832.748 138.818 832.989 138.761 833.169 138.675C833.349 138.59 833.589 138.533 833.769 138.447C833.949 138.362 834.189 138.305 834.369 138.219C834.549 138.134 834.79 138.077 834.97 137.991C835.15 137.906 835.39 137.849 835.57 137.763C835.75 137.678 835.99 137.621 836.17 137.535C836.351 137.45 836.591 137.393 836.771 137.307C836.951 137.222 837.191 137.164 837.371 137.079C837.551 136.993 837.791 136.936 837.971 136.851C838.152 136.765 838.392 136.708 838.572 136.623C838.752 136.537 838.992 136.48 839.172 136.395C839.352 136.309 839.592 136.252 839.773 136.167L840.373 135.939C840.373 135.939 840.793 135.796 840.973 135.711C841.153 135.625 841.394 135.568 841.574 135.483C841.754 135.397 841.994 135.34 842.174 135.255C842.354 135.169 842.594 135.112 842.774 135.027C842.954 134.941 843.195 134.884 843.375 134.799C843.555 134.713 843.795 134.656 843.975 134.571C844.155 134.485 844.395 134.428 844.575 134.343C844.755 134.257 844.996 134.2 845.176 134.114C845.356 134.029 845.596 133.972 845.776 133.886C845.956 133.801 846.196 133.744 846.376 133.658C846.556 133.573 846.797 133.516 846.977 133.43L847.577 133.202L848.177 132.974C848.177 132.974 848.598 132.832 848.778 132.746C848.958 132.661 849.198 132.604 849.378 132.518L849.979 132.29L850.579 132.062C850.579 132.062 850.999 131.891 851.179 131.834C851.359 131.749 851.599 131.663 851.78 131.606L852.38 131.378L852.98 131.15C852.98 131.15 853.401 130.979 853.581 130.922C853.761 130.836 854.001 130.751 854.181 130.694L854.781 130.466L855.382 130.238C855.382 130.238 855.802 130.067 855.982 130.01C856.162 129.924 856.402 129.839 856.582 129.782C856.763 129.696 857.003 129.611 857.183 129.554L857.783 129.326C857.783 129.326 858.203 129.155 858.383 129.098C858.564 129.012 858.804 128.927 858.984 128.87L859.584 128.642C859.584 128.642 860.004 128.471 860.184 128.414L860.785 128.186C860.785 128.186 861.205 128.014 861.385 127.957C861.565 127.872 861.805 127.786 861.986 127.729L862.586 127.501C862.586 127.501 863.006 127.33 863.186 127.273C863.366 127.188 863.607 127.102 863.787 127.045C863.967 126.96 864.207 126.874 864.387 126.817C864.567 126.76 864.807 126.646 864.987 126.589C865.167 126.532 865.408 126.418 865.588 126.361C865.768 126.276 866.008 126.19 866.188 126.133C866.368 126.048 866.608 125.962 866.788 125.905C866.969 125.848 867.209 125.734 867.389 125.677C867.569 125.62 867.809 125.506 867.989 125.449C868.169 125.364 868.409 125.278 868.589 125.221C868.77 125.136 869.01 125.05 869.19 124.993C869.37 124.936 869.61 124.822 869.79 124.765C869.97 124.708 870.21 124.594 870.39 124.537C870.571 124.48 870.811 124.366 870.991 124.28C871.171 124.195 871.411 124.109 871.591 124.024C871.771 123.938 872.011 123.853 872.192 123.767C872.372 123.682 872.612 123.596 872.792 123.511C872.972 123.425 873.212 123.34 873.392 123.254C873.572 123.169 873.812 123.083 873.993 122.998C874.173 122.912 874.413 122.827 874.593 122.741C874.773 122.656 875.013 122.57 875.193 122.485C875.373 122.399 875.614 122.314 875.794 122.228C875.974 122.143 876.214 122.057 876.394 121.971C876.574 121.886 876.814 121.8 876.994 121.715C877.174 121.629 877.415 121.544 877.595 121.458C877.775 121.373 878.015 121.287 878.195 121.202L877.174 120.945Z" fill="url(#paint0_linear_352_27332)"/>
<path d="M1118.7 0V469.301H966.027V81.7514C966.027 81.7514 966.447 81.5519 966.627 81.4664C966.808 81.3809 967.048 81.2668 967.228 81.1813C967.408 81.0958 967.648 80.9818 967.828 80.8963C968.008 80.8108 968.248 80.6967 968.428 80.6112C968.609 80.5257 968.849 80.4117 969.029 80.3262C969.209 80.2407 969.449 80.1266 969.629 80.0411C969.809 79.9556 970.049 79.8416 970.229 79.7561C970.41 79.6706 970.65 79.5565 970.83 79.471C971.01 79.3855 971.25 79.2715 971.43 79.186L972.031 78.9009C972.031 78.9009 972.451 78.7014 972.631 78.6159C972.811 78.5304 973.051 78.4164 973.231 78.3309C973.411 78.2453 973.652 78.1313 973.832 78.0458C974.012 77.9603 974.252 77.8463 974.432 77.7608C974.612 77.6752 974.852 77.5612 975.032 77.4757C975.212 77.3902 975.453 77.2762 975.633 77.1907L976.233 76.9056C976.233 76.9056 976.653 76.7061 976.833 76.6206C977.014 76.5351 977.254 76.421 977.434 76.3355C977.614 76.25 977.854 76.136 978.034 76.0505C978.214 75.965 978.454 75.8509 978.634 75.7654C978.815 75.6799 979.055 75.5659 979.235 75.4804C979.415 75.3949 979.655 75.2809 979.835 75.1953C980.015 75.1098 980.255 74.9958 980.435 74.9103C980.616 74.8248 980.856 74.7108 981.036 74.6252C981.216 74.5397 981.456 74.4257 981.636 74.3402C981.816 74.2547 982.056 74.1407 982.237 74.0552C982.417 73.9696 982.657 73.8556 982.837 73.7701C983.017 73.6846 983.257 73.5706 983.437 73.4851C983.617 73.3995 983.858 73.2855 984.038 73.2L984.638 72.915C984.638 72.915 985.058 72.7154 985.238 72.6299C985.418 72.5444 985.659 72.4304 985.839 72.3449L986.439 72.0598L987.039 71.7748C987.039 71.7748 987.46 71.5752 987.64 71.4897C987.82 71.4042 988.06 71.2902 988.24 71.2047C988.42 71.1192 988.66 71.0051 988.84 70.9196C989.021 70.8341 989.261 70.7201 989.441 70.6346C989.621 70.5491 989.861 70.4351 990.041 70.3495C990.221 70.264 990.461 70.15 990.642 70.0645C990.822 69.979 991.062 69.865 991.242 69.7795C991.422 69.6939 991.662 69.5799 991.842 69.4944C992.022 69.4089 992.262 69.2949 992.443 69.2094C992.623 69.1238 992.863 69.0098 993.043 68.9243C993.223 68.8388 993.463 68.7248 993.643 68.6393C993.823 68.5537 994.063 68.4397 994.244 68.3542C994.424 68.2687 994.664 68.1547 994.844 68.0692C995.024 67.9837 995.264 67.8696 995.444 67.7841C995.624 67.6701 995.865 67.5846 996.045 67.4706C996.225 67.3566 996.465 67.271 996.645 67.157L997.245 66.8435C997.245 66.8435 997.666 66.6439 997.846 66.5299C998.026 66.4159 998.266 66.3304 998.446 66.2164C998.626 66.1023 998.866 66.0168 999.046 65.9028C999.227 65.7888 999.467 65.7033 999.647 65.5893C999.827 65.4752 1000.07 65.3897 1000.25 65.2757C1000.43 65.1617 1000.67 65.0762 1000.85 64.9622C1001.03 64.8481 1001.27 64.7626 1001.45 64.6486C1001.63 64.5346 1001.87 64.4491 1002.05 64.3351C1002.23 64.221 1002.47 64.1355 1002.65 64.0215C1002.83 63.9075 1003.07 63.822 1003.25 63.708C1003.43 63.5939 1003.67 63.5084 1003.85 63.3944C1004.03 63.2804 1004.27 63.1949 1004.45 63.0808C1004.63 62.9668 1004.87 62.8813 1005.05 62.7673C1005.23 62.6533 1005.47 62.5678 1005.65 62.4538C1005.83 62.3397 1006.07 62.2542 1006.25 62.1402C1006.43 62.0262 1006.67 61.9407 1006.85 61.8266L1007.45 61.5131C1007.45 61.5131 1007.87 61.3136 1008.05 61.1995C1008.23 61.0855 1008.47 61 1008.65 60.886C1008.83 60.772 1009.07 60.6865 1009.25 60.5724C1009.43 60.4584 1009.67 60.3729 1009.85 60.2589L1010.45 59.9453C1010.45 59.9453 1010.87 59.7458 1011.05 59.6318C1011.23 59.5178 1011.47 59.4323 1011.65 59.3182C1011.83 59.2042 1012.07 59.1187 1012.25 59.0047C1012.43 58.8907 1012.67 58.8052 1012.85 58.6911C1013.03 58.5771 1013.27 58.4916 1013.45 58.3776C1013.63 58.2636 1013.88 58.178 1014.06 58.064C1014.24 57.95 1014.48 57.8645 1014.66 57.7505C1014.84 57.6365 1015.08 57.5509 1015.26 57.4369C1015.44 57.3229 1015.68 57.2374 1015.86 57.1234C1016.04 57.0093 1016.28 56.9238 1016.46 56.8098C1016.64 56.6958 1016.88 56.6103 1017.06 56.4963C1017.24 56.3823 1017.48 56.2967 1017.66 56.1827L1018.26 55.8692C1018.26 55.8692 1018.68 55.6696 1018.86 55.5556C1019.04 55.4416 1019.28 55.3561 1019.46 55.2421C1019.64 55.128 1019.88 55.0425 1020.06 54.9285L1020.66 54.615C1020.66 54.615 1021.08 54.4154 1021.26 54.3014C1021.44 54.1874 1021.68 54.1019 1021.86 53.9879C1022.04 53.8738 1022.28 53.7883 1022.46 53.6743C1022.64 53.5603 1022.88 53.4748 1023.06 53.3608C1023.24 53.2467 1023.48 53.1612 1023.66 53.0472C1023.84 52.9332 1024.08 52.8477 1024.26 52.7337C1024.44 52.6196 1024.68 52.5341 1024.86 52.4201C1025.04 52.3061 1025.28 52.2206 1025.46 52.1065C1025.64 51.9925 1025.88 51.907 1026.06 51.793L1026.66 51.4794C1026.66 51.4794 1027.08 51.2799 1027.26 51.1659C1027.44 51.0519 1027.68 50.9664 1027.86 50.8523L1028.46 50.5388C1028.46 50.5388 1028.88 50.3393 1029.06 50.2252C1029.24 50.1112 1029.48 50.0257 1029.66 49.9117C1029.84 49.7977 1030.08 49.7122 1030.26 49.5981C1030.44 49.4841 1030.68 49.3986 1030.87 49.2846C1031.05 49.1706 1031.29 49.085 1031.47 48.971C1031.65 48.857 1031.89 48.7715 1032.07 48.6575C1032.25 48.5435 1032.49 48.458 1032.67 48.3439C1032.85 48.2299 1033.09 48.1444 1033.27 48.0304C1033.45 47.9164 1033.69 47.8308 1033.87 47.7168C1034.05 47.6028 1034.29 47.5173 1034.47 47.4033C1034.65 47.2893 1034.89 47.2037 1035.07 47.0897C1035.25 46.9757 1035.49 46.8902 1035.67 46.7762C1035.85 46.6622 1036.09 46.5766 1036.27 46.4626L1036.87 46.1491C1036.87 46.1491 1037.29 45.9495 1037.47 45.8355C1037.65 45.7215 1037.89 45.636 1038.07 45.522C1038.25 45.4079 1038.49 45.3224 1038.67 45.2084C1038.85 45.0944 1039.09 45.0089 1039.27 44.8949C1039.45 44.7808 1039.69 44.6953 1039.87 44.5813C1040.05 44.4673 1040.29 44.3818 1040.47 44.2678C1040.65 44.1537 1040.89 44.0682 1041.07 43.9542C1041.25 43.8402 1041.49 43.7547 1041.67 43.6407C1041.85 43.5266 1042.09 43.4411 1042.27 43.3271C1042.45 43.2131 1042.69 43.1276 1042.87 43.0136C1043.05 42.8995 1043.29 42.814 1043.47 42.7C1043.65 42.586 1043.89 42.5005 1044.07 42.3865C1044.25 42.2724 1044.49 42.1869 1044.67 42.0729L1045.27 41.7593C1045.27 41.7593 1045.69 41.5598 1045.87 41.4458C1046.05 41.3318 1046.29 41.2463 1046.47 41.1322L1047.07 40.8187C1047.07 40.8187 1047.49 40.6192 1047.67 40.5051C1047.86 40.3911 1048.1 40.2771 1048.28 40.1916C1048.46 40.0776 1048.7 39.9636 1048.88 39.878C1049.06 39.764 1049.3 39.65 1049.48 39.5645C1049.66 39.479 1049.9 39.3364 1050.08 39.2509C1050.26 39.1369 1050.5 39.0229 1050.68 38.9374C1050.86 38.8519 1051.1 38.7094 1051.28 38.6238C1051.46 38.5098 1051.7 38.3958 1051.88 38.3103C1052.06 38.1963 1052.3 38.0822 1052.48 37.9967C1052.66 37.8827 1052.9 37.7687 1053.08 37.6832C1053.26 37.5692 1053.5 37.4551 1053.68 37.3696C1053.86 37.2556 1054.1 37.1416 1054.28 37.0561C1054.46 36.9706 1054.7 36.828 1054.88 36.7425L1055.48 36.429C1055.48 36.429 1055.9 36.2009 1056.08 36.1154C1056.26 36.0014 1056.5 35.8874 1056.68 35.8019L1057.28 35.4883C1057.28 35.4883 1057.7 35.2603 1057.88 35.1748C1058.06 35.0608 1058.3 34.9467 1058.48 34.8612C1058.66 34.7472 1058.9 34.6332 1059.08 34.5477C1059.26 34.4337 1059.5 34.3196 1059.68 34.2341C1059.86 34.1201 1060.1 34.0061 1060.28 33.9206C1060.46 33.8065 1060.7 33.6925 1060.88 33.607C1061.06 33.493 1061.3 33.379 1061.48 33.2935C1061.66 33.1794 1061.9 33.0654 1062.08 32.9799C1062.26 32.8659 1062.5 32.7519 1062.68 32.6664C1062.86 32.5523 1063.1 32.4383 1063.28 32.3528C1063.46 32.2388 1063.7 32.1248 1063.88 32.0108C1064.06 31.8967 1064.3 31.7827 1064.48 31.6687C1064.66 31.5547 1064.91 31.4407 1065.09 31.3266C1065.27 31.2126 1065.51 31.0986 1065.69 30.9846C1065.87 30.8706 1066.11 30.7565 1066.29 30.6425C1066.47 30.5285 1066.71 30.4145 1066.89 30.3005C1067.07 30.1864 1067.31 30.0724 1067.49 29.9584C1067.67 29.8444 1067.91 29.7304 1068.09 29.6164C1068.27 29.5023 1068.51 29.3883 1068.69 29.2743C1068.87 29.1603 1069.11 29.0463 1069.29 28.9322C1069.47 28.8182 1069.71 28.7042 1069.89 28.5902C1070.07 28.4762 1070.31 28.3622 1070.49 28.2481C1070.67 28.1341 1070.91 28.0201 1071.09 27.9061C1071.27 27.7921 1071.51 27.678 1071.69 27.564C1071.87 27.45 1072.11 27.336 1072.29 27.222C1072.47 27.1079 1072.71 26.9939 1072.89 26.8799C1073.07 26.7659 1073.31 26.6519 1073.49 26.5378C1073.67 26.4238 1073.91 26.3098 1074.09 26.1958C1074.27 26.0818 1074.51 25.9678 1074.69 25.8537C1074.87 25.7397 1075.11 25.6257 1075.29 25.5117C1075.47 25.3977 1075.71 25.2836 1075.89 25.1696C1076.07 25.0556 1076.31 24.9416 1076.49 24.8276C1076.67 24.7136 1076.91 24.5995 1077.09 24.4855C1077.27 24.3715 1077.51 24.2575 1077.69 24.1435C1077.87 24.0294 1078.11 23.9154 1078.29 23.8014C1078.47 23.6874 1078.71 23.5734 1078.89 23.4594L1079.49 23.1173C1079.49 23.1173 1079.91 22.8893 1080.09 22.7752C1080.27 22.6612 1080.51 22.5472 1080.69 22.4332L1081.29 22.0911C1081.29 22.0911 1081.71 21.8631 1081.9 21.7491C1082.08 21.635 1082.32 21.521 1082.5 21.407C1082.68 21.293 1082.92 21.179 1083.1 21.065C1083.28 20.9509 1083.52 20.8369 1083.7 20.7229C1083.88 20.6089 1084.12 20.4949 1084.3 20.3808C1084.48 20.2668 1084.72 20.1528 1084.9 20.0388C1085.08 19.9248 1085.32 19.8108 1085.5 19.6967C1085.68 19.5827 1085.92 19.4687 1086.1 19.3547C1086.28 19.2407 1086.52 19.1266 1086.7 19.0126C1086.88 18.8986 1087.12 18.7846 1087.3 18.6706C1087.48 18.5565 1087.72 18.4425 1087.9 18.3285C1088.08 18.2145 1088.32 18.1005 1088.5 17.9864L1089.1 17.6444C1089.1 17.6444 1089.52 17.4164 1089.7 17.3023C1089.88 17.1883 1090.12 17.0743 1090.3 16.9603C1090.48 16.8463 1090.72 16.7322 1090.9 16.6182C1091.08 16.5042 1091.32 16.3902 1091.5 16.2762C1091.68 16.1622 1091.92 16.0481 1092.1 15.9341C1092.28 15.8201 1092.52 15.7061 1092.7 15.5921C1092.88 15.478 1093.12 15.364 1093.3 15.25C1093.48 15.136 1093.72 15.022 1093.9 14.9079C1094.08 14.7939 1094.32 14.6799 1094.5 14.5659C1094.68 14.4519 1094.86 14.3378 1095.1 14.2238C1095.28 14.1098 1095.46 13.9958 1095.7 13.8818C1095.88 13.7678 1096.12 13.6537 1096.3 13.5397L1096.9 13.1977C1096.9 13.1977 1097.26 12.9696 1097.5 12.8556C1097.68 12.7416 1097.86 12.6276 1098.1 12.5136C1098.28 12.3995 1098.46 12.2855 1098.7 12.1715C1098.95 12.0575 1099.07 11.9435 1099.31 11.8294C1099.49 11.7154 1099.67 11.6014 1099.91 11.4874C1100.09 11.3734 1100.33 11.2593 1100.51 11.1453C1100.69 11.0313 1100.87 10.9173 1101.11 10.8033C1101.29 10.6892 1101.47 10.5752 1101.71 10.4612C1101.89 10.3472 1102.07 10.2332 1102.31 10.1192L1102.91 9.77709C1102.91 9.77709 1103.27 9.54906 1103.51 9.43504C1103.69 9.32102 1103.87 9.20701 1104.11 9.09299C1104.35 8.97897 1104.47 8.86495 1104.71 8.75094C1104.89 8.63692 1105.07 8.52289 1105.31 8.40887C1105.49 8.29485 1105.67 8.18084 1105.91 8.06682C1106.09 7.9528 1106.27 7.83878 1106.51 7.72477C1106.69 7.61075 1106.87 7.49673 1107.11 7.38271C1107.29 7.26869 1107.47 7.15467 1107.71 7.04065C1107.89 6.92663 1108.07 6.81261 1108.31 6.6986C1108.55 6.58458 1108.67 6.47056 1108.91 6.35654C1109.15 6.24252 1109.27 6.1285 1109.51 6.01448C1109.69 5.90046 1109.87 5.78644 1110.11 5.67243C1110.29 5.55841 1110.47 5.44439 1110.71 5.33037C1110.89 5.21635 1111.07 5.10234 1111.31 4.98832C1111.49 4.8743 1111.67 4.76027 1111.91 4.64626C1112.09 4.53224 1112.27 4.41822 1112.51 4.3042C1112.69 4.19018 1112.87 4.07617 1113.11 3.96215C1113.29 3.84813 1113.47 3.7341 1113.71 3.62008C1113.89 3.50607 1114.07 3.39205 1114.31 3.27803C1114.49 3.16401 1114.67 3.05 1114.91 2.93598C1115.09 2.82196 1115.27 2.70794 1115.51 2.59393C1115.75 2.47991 1115.87 2.36588 1116.12 2.25186C1116.36 2.13784 1116.48 2.02383 1116.72 1.90981C1116.96 1.79579 1117.08 1.68177 1117.32 1.56776C1117.5 1.45374 1117.68 1.33971 1117.92 1.22569L1118.52 0.883638C1118.52 0.883638 1118.88 0.655604 1119.12 0.541585C1119.3 0.427566 1119.48 0.313551 1119.72 0.199532L1118.7 0Z" fill="url(#paint1_linear_352_27332)"/>
<path d="M635.713 204.264V469.301H483.043V243.145C483.043 243.145 483.404 243.059 483.644 243.002C483.824 242.945 484.004 242.917 484.244 242.86C484.424 242.803 484.604 242.774 484.844 242.717L485.445 242.575C485.445 242.575 485.805 242.489 486.045 242.432C486.225 242.375 486.405 242.347 486.646 242.29C486.826 242.233 487.006 242.204 487.246 242.147C487.486 242.09 487.606 242.062 487.846 242.005C488.026 241.948 488.206 241.919 488.447 241.862C488.687 241.805 488.807 241.777 489.047 241.72C489.287 241.663 489.407 241.634 489.647 241.577C489.887 241.52 490.008 241.492 490.248 241.435C490.428 241.378 490.608 241.349 490.848 241.292C491.028 241.235 491.208 241.207 491.448 241.15C491.688 241.093 491.809 241.064 492.049 241.007C492.289 240.95 492.409 240.921 492.649 240.864C492.829 240.807 493.009 240.779 493.249 240.722C493.43 240.665 493.61 240.636 493.85 240.579C494.09 240.522 494.21 240.494 494.45 240.437C494.63 240.38 494.81 240.351 495.051 240.294C495.291 240.237 495.411 240.209 495.651 240.152C495.831 240.095 496.011 240.066 496.251 240.009C496.431 239.952 496.611 239.924 496.852 239.867C497.032 239.81 497.212 239.781 497.452 239.724C497.632 239.667 497.812 239.639 498.052 239.582C498.232 239.525 498.412 239.496 498.653 239.439C498.893 239.382 499.013 239.354 499.253 239.297C499.433 239.24 499.613 239.211 499.853 239.154C500.033 239.097 500.213 239.069 500.454 239.012L501.054 238.869L501.654 238.727C501.654 238.727 502.015 238.641 502.255 238.584C502.495 238.527 502.615 238.499 502.855 238.442C503.035 238.385 503.215 238.356 503.455 238.299C503.636 238.242 503.816 238.214 504.056 238.157C504.236 238.1 504.416 238.071 504.656 238.014C504.836 237.957 505.016 237.929 505.256 237.872C505.497 237.815 505.617 237.786 505.857 237.729C506.037 237.672 506.217 237.643 506.457 237.586L507.058 237.444C507.058 237.444 507.418 237.358 507.658 237.301C507.898 237.244 508.078 237.216 508.258 237.159C508.438 237.102 508.678 237.073 508.859 237.016C509.039 236.959 509.279 236.931 509.459 236.874C509.639 236.817 509.819 236.788 510.059 236.731L510.66 236.589C510.66 236.589 511.08 236.503 511.26 236.446C511.44 236.389 511.68 236.361 511.86 236.304C512.04 236.247 512.281 236.218 512.461 236.161C512.641 236.104 512.881 236.076 513.061 236.019C513.241 235.962 513.481 235.933 513.661 235.876C513.842 235.819 514.082 235.791 514.262 235.734C514.442 235.677 514.682 235.648 514.862 235.591C515.042 235.534 515.282 235.506 515.462 235.449C515.643 235.392 515.883 235.363 516.063 235.306L516.663 235.164C516.663 235.164 517.083 235.078 517.264 235.021C517.444 234.964 517.684 234.936 517.864 234.879C518.044 234.822 518.284 234.793 518.464 234.736C518.644 234.679 518.884 234.65 519.065 234.593C519.245 234.536 519.485 234.508 519.665 234.451C519.845 234.394 520.085 234.365 520.265 234.308C520.445 234.251 520.686 234.223 520.866 234.166C521.046 234.109 521.286 234.08 521.466 234.023C521.646 233.966 521.886 233.938 522.066 233.881C522.246 233.824 522.487 233.795 522.667 233.738C522.847 233.681 523.087 233.653 523.267 233.596C523.447 233.539 523.687 233.51 523.867 233.453C524.047 233.396 524.288 233.368 524.468 233.311C524.648 233.254 524.888 233.225 525.068 233.168C525.248 233.111 525.488 233.083 525.668 233.026C525.849 232.969 526.089 232.94 526.269 232.883C526.449 232.826 526.689 232.798 526.869 232.741C527.049 232.684 527.289 232.655 527.469 232.598C527.65 232.541 527.89 232.513 528.07 232.456C528.25 232.399 528.49 232.37 528.67 232.313C528.85 232.256 529.09 232.228 529.271 232.171C529.451 232.114 529.691 232.085 529.871 232.028C530.051 231.971 530.291 231.943 530.471 231.886C530.651 231.829 530.892 231.8 531.072 231.743C531.252 231.686 531.492 231.657 531.672 231.6L532.272 231.458C532.272 231.458 532.693 231.372 532.873 231.315C533.053 231.258 533.293 231.23 533.473 231.173C533.653 231.116 533.893 231.087 534.073 231.03C534.254 230.973 534.494 230.945 534.674 230.888C534.854 230.831 535.094 230.802 535.274 230.745C535.454 230.688 535.694 230.66 535.874 230.603C536.055 230.546 536.295 230.517 536.475 230.46C536.655 230.403 536.895 230.375 537.075 230.318C537.255 230.261 537.495 230.232 537.676 230.175L538.276 230.033C538.276 230.033 538.696 229.947 538.876 229.89C539.056 229.833 539.296 229.805 539.477 229.748C539.657 229.691 539.897 229.662 540.077 229.605C540.257 229.548 540.497 229.52 540.677 229.463C540.857 229.406 541.098 229.377 541.278 229.32C541.458 229.263 541.698 229.235 541.878 229.178C542.058 229.121 542.298 229.092 542.478 229.035C542.658 228.978 542.899 228.95 543.079 228.893C543.259 228.836 543.499 228.807 543.679 228.75C543.859 228.693 544.099 228.664 544.279 228.607C544.459 228.55 544.7 228.522 544.88 228.465C545.06 228.408 545.3 228.379 545.48 228.322C545.66 228.265 545.9 228.237 546.08 228.18C546.261 228.123 546.501 228.094 546.681 228.037L547.281 227.895C547.281 227.895 547.701 227.809 547.881 227.752C548.062 227.695 548.302 227.667 548.482 227.61C548.662 227.553 548.902 227.524 549.082 227.467C549.262 227.41 549.502 227.382 549.683 227.325C549.863 227.268 550.103 227.239 550.283 227.182C550.463 227.125 550.703 227.097 550.883 227.04C551.063 226.983 551.303 226.954 551.484 226.897C551.664 226.84 551.904 226.812 552.084 226.755C552.264 226.698 552.504 226.669 552.684 226.612C552.864 226.555 553.105 226.527 553.285 226.47C553.465 226.413 553.705 226.356 553.885 226.327C554.065 226.299 554.305 226.213 554.485 226.185C554.665 226.128 554.906 226.071 555.086 226.042L555.686 225.9L556.286 225.757C556.286 225.757 556.707 225.643 556.887 225.614C557.067 225.557 557.307 225.5 557.487 225.472C557.667 225.415 557.907 225.358 558.087 225.329C558.268 225.272 558.508 225.215 558.688 225.187C558.868 225.13 559.108 225.073 559.288 225.044C559.468 224.987 559.708 224.93 559.889 224.902C560.069 224.845 560.309 224.788 560.489 224.759C560.669 224.702 560.909 224.645 561.089 224.617C561.269 224.56 561.509 224.503 561.69 224.474C561.87 224.417 562.11 224.36 562.29 224.332C562.47 224.275 562.71 224.218 562.89 224.189C563.07 224.132 563.311 224.075 563.491 224.047C563.671 223.99 563.911 223.933 564.091 223.904L564.691 223.762L565.292 223.619C565.292 223.619 565.712 223.505 565.892 223.477C566.072 223.42 566.312 223.363 566.492 223.334C566.672 223.277 566.913 223.22 567.093 223.192C567.273 223.163 567.513 223.078 567.693 223.049C567.873 223.021 568.113 222.935 568.293 222.907C568.474 222.878 568.714 222.793 568.894 222.764C569.074 222.707 569.314 222.65 569.494 222.621C569.674 222.564 569.914 222.507 570.095 222.479C570.275 222.422 570.515 222.365 570.695 222.336C570.875 222.279 571.115 222.222 571.295 222.194C571.475 222.165 571.715 222.08 571.896 222.051C572.076 222.023 572.316 221.937 572.496 221.909C572.676 221.852 572.916 221.795 573.096 221.766C573.276 221.709 573.517 221.652 573.697 221.624C573.877 221.595 574.117 221.51 574.297 221.481C574.477 221.424 574.717 221.367 574.897 221.339C575.077 221.282 575.318 221.225 575.498 221.196C575.678 221.139 575.918 221.082 576.098 221.054C576.278 220.997 576.518 220.94 576.698 220.911C576.879 220.854 577.119 220.797 577.299 220.769C577.479 220.712 577.719 220.655 577.899 220.598C578.079 220.541 578.319 220.484 578.499 220.427C578.68 220.37 578.92 220.313 579.1 220.256C579.28 220.199 579.52 220.142 579.7 220.085C579.88 220.028 580.12 219.971 580.301 219.914C580.481 219.857 580.721 219.8 580.901 219.743C581.081 219.686 581.321 219.628 581.501 219.571C581.681 219.514 581.921 219.457 582.102 219.4L582.702 219.229C582.702 219.229 583.122 219.115 583.302 219.058C583.482 219.001 583.723 218.944 583.903 218.887C584.083 218.83 584.323 218.773 584.503 218.716C584.683 218.659 584.923 218.602 585.103 218.545C585.283 218.488 585.524 218.431 585.704 218.374C585.884 218.317 586.124 218.26 586.304 218.203C586.484 218.146 586.724 218.089 586.904 218.032C587.084 217.975 587.325 217.918 587.505 217.861C587.685 217.804 587.925 217.747 588.105 217.69C588.285 217.633 588.525 217.576 588.705 217.519C588.886 217.462 589.126 217.405 589.306 217.348C589.486 217.291 589.726 217.234 589.906 217.177C590.086 217.12 590.326 217.063 590.506 217.006C590.687 216.949 590.927 216.892 591.107 216.835C591.287 216.778 591.527 216.721 591.707 216.664C591.887 216.607 592.127 216.55 592.308 216.493C592.488 216.436 592.728 216.379 592.908 216.322C593.088 216.265 593.328 216.208 593.508 216.151C593.688 216.094 593.929 216.037 594.109 215.98C594.289 215.923 594.529 215.866 594.709 215.809C594.889 215.752 595.129 215.695 595.309 215.638C595.489 215.581 595.73 215.524 595.91 215.467C596.09 215.41 596.33 215.353 596.51 215.296C596.69 215.239 596.93 215.182 597.11 215.125C597.29 215.068 597.531 215.011 597.711 214.954C597.891 214.897 598.131 214.84 598.311 214.783C598.491 214.726 598.731 214.669 598.911 214.612C599.092 214.555 599.332 214.498 599.512 214.441C599.692 214.384 599.932 214.327 600.112 214.27C600.292 214.213 600.532 214.156 600.712 214.099C600.893 214.042 601.133 213.985 601.313 213.928C601.493 213.871 601.733 213.814 601.913 213.757L602.514 213.586C602.514 213.586 602.934 213.471 603.114 213.414C603.294 213.357 603.534 213.3 603.714 213.243C603.894 213.186 604.134 213.129 604.315 213.072C604.495 213.015 604.735 212.958 604.915 212.901C605.095 212.844 605.335 212.787 605.515 212.73C605.695 212.673 605.936 212.616 606.116 212.559C606.296 212.502 606.536 212.445 606.716 212.388C606.896 212.331 607.136 212.274 607.316 212.217C607.496 212.16 607.737 212.103 607.917 212.046C608.097 211.989 608.337 211.932 608.517 211.875C608.697 211.818 608.937 211.761 609.117 211.704C609.298 211.647 609.538 211.59 609.718 211.533C609.898 211.476 610.138 211.419 610.318 211.362C610.498 211.305 610.738 211.248 610.918 211.191L611.519 211.02C611.519 211.02 611.939 210.906 612.119 210.849C612.299 210.792 612.539 210.735 612.72 210.678C612.9 210.621 613.14 210.564 613.32 210.507L613.92 210.336C613.92 210.336 614.34 210.222 614.521 210.165C614.701 210.108 614.941 210.051 615.121 209.994C615.301 209.937 615.541 209.88 615.721 209.823C615.901 209.766 616.142 209.709 616.322 209.652C616.502 209.595 616.742 209.538 616.922 209.481C617.102 209.424 617.342 209.367 617.522 209.31C617.702 209.253 617.943 209.196 618.123 209.139C618.303 209.082 618.543 209.025 618.723 208.968C618.903 208.911 619.143 208.854 619.323 208.797C619.504 208.74 619.744 208.683 619.924 208.626C620.104 208.569 620.344 208.512 620.524 208.455C620.704 208.398 620.944 208.341 621.124 208.284C621.305 208.227 621.545 208.17 621.725 208.113C621.905 208.056 622.145 207.999 622.325 207.942C622.505 207.885 622.745 207.828 622.926 207.771C623.106 207.714 623.346 207.657 623.526 207.6C623.706 207.543 623.946 207.486 624.126 207.429L624.727 207.257L625.327 207.086C625.327 207.086 625.747 206.972 625.927 206.915C626.107 206.858 626.348 206.801 626.528 206.744C626.708 206.687 626.948 206.63 627.128 206.573L627.728 206.402C627.728 206.402 628.149 206.288 628.329 206.231C628.509 206.174 628.749 206.117 628.929 206.06C629.109 206.003 629.349 205.946 629.529 205.889C629.709 205.832 629.95 205.775 630.13 205.718C630.31 205.661 630.55 205.604 630.73 205.547C630.91 205.49 631.15 205.433 631.33 205.376C631.511 205.319 631.751 205.262 631.931 205.205C632.111 205.148 632.351 205.091 632.531 205.034L633.132 204.863C633.132 204.863 633.552 204.749 633.732 204.692C633.912 204.635 634.152 204.578 634.332 204.521C634.512 204.464 634.752 204.407 634.933 204.35C635.113 204.293 635.353 204.236 635.533 204.179C635.713 204.122 635.953 204.065 636.133 204.008L636.734 203.837L635.713 204.264Z" fill="url(#paint2_linear_352_27332)"/>
<path d="M394.131 261.673V469.301H241.461V287.185L242.002 287.099C242.002 287.099 242.362 287.042 242.542 287.013C242.722 287.013 242.902 286.956 243.082 286.928C243.262 286.928 243.443 286.871 243.623 286.842C243.803 286.814 243.983 286.785 244.163 286.757C244.343 286.728 244.523 286.7 244.703 286.671C244.883 286.671 245.064 286.614 245.244 286.586C245.424 286.586 245.604 286.529 245.784 286.5C245.964 286.5 246.144 286.443 246.324 286.415L246.865 286.329C246.865 286.329 247.225 286.272 247.405 286.244C247.585 286.244 247.765 286.187 247.945 286.158C248.125 286.13 248.305 286.101 248.486 286.073C248.666 286.073 248.846 286.016 249.026 285.987C249.206 285.987 249.386 285.93 249.566 285.902C249.746 285.902 249.926 285.845 250.107 285.816C250.287 285.816 250.467 285.759 250.647 285.731C250.827 285.702 251.007 285.674 251.187 285.645C251.367 285.617 251.547 285.588 251.727 285.56C251.908 285.56 252.088 285.503 252.268 285.474C252.448 285.474 252.628 285.417 252.808 285.389C252.988 285.389 253.168 285.332 253.348 285.303C253.529 285.275 253.709 285.246 253.889 285.218C254.069 285.189 254.249 285.161 254.429 285.132C254.609 285.132 254.789 285.075 254.969 285.047C255.149 285.047 255.33 284.99 255.51 284.961C255.69 284.961 255.87 284.904 256.05 284.876C256.23 284.847 256.41 284.819 256.59 284.79C256.77 284.762 256.951 284.733 257.131 284.705C257.311 284.705 257.491 284.648 257.671 284.619C257.851 284.619 258.031 284.562 258.211 284.534L258.752 284.448C258.752 284.448 259.112 284.391 259.292 284.363C259.472 284.334 259.652 284.306 259.832 284.277C260.012 284.277 260.192 284.22 260.373 284.192C260.553 284.192 260.733 284.135 260.913 284.106L261.453 284.021L261.993 283.935C261.993 283.935 262.354 283.878 262.534 283.85C262.714 283.85 262.894 283.792 263.074 283.764C263.254 283.764 263.434 283.707 263.614 283.678C263.795 283.678 263.975 283.621 264.155 283.593L264.695 283.507C264.695 283.507 265.055 283.45 265.235 283.422C265.415 283.422 265.596 283.365 265.776 283.336C265.956 283.308 266.136 283.279 266.316 283.251C266.496 283.222 266.676 283.194 266.856 283.165C267.036 283.137 267.217 283.108 267.397 283.08C267.577 283.051 267.757 283.023 267.937 282.994C268.117 282.966 268.297 282.937 268.477 282.909C268.657 282.88 268.837 282.852 269.018 282.823C269.198 282.795 269.378 282.766 269.558 282.738C269.738 282.709 269.918 282.681 270.098 282.652C270.278 282.624 270.458 282.595 270.699 282.567L271.299 282.481C271.299 282.481 271.659 282.424 271.899 282.396C272.079 282.367 272.26 282.339 272.5 282.31C272.68 282.282 272.86 282.253 273.1 282.225C273.28 282.196 273.46 282.168 273.7 282.139C273.88 282.111 274.061 282.082 274.301 282.054C274.481 282.025 274.661 281.997 274.901 281.968C275.081 281.94 275.261 281.911 275.501 281.883C275.682 281.854 275.862 281.826 276.102 281.797C276.282 281.769 276.462 281.74 276.702 281.712C276.942 281.683 277.062 281.655 277.302 281.626C277.483 281.598 277.663 281.569 277.903 281.541C278.083 281.512 278.263 281.484 278.503 281.455C278.683 281.427 278.863 281.398 279.104 281.37C279.284 281.341 279.464 281.313 279.704 281.284L280.304 281.199C280.304 281.199 280.664 281.142 280.905 281.113C281.085 281.085 281.265 281.056 281.505 281.028C281.685 280.999 281.865 280.971 282.105 280.942L282.706 280.857L283.306 280.771C283.306 280.771 283.666 280.714 283.906 280.685C284.086 280.657 284.267 280.628 284.507 280.6C284.687 280.571 284.867 280.543 285.107 280.514L285.707 280.429L286.308 280.343C286.308 280.343 286.668 280.286 286.908 280.258C287.088 280.229 287.268 280.201 287.508 280.172C287.689 280.144 287.869 280.115 288.109 280.087L288.709 280.001C288.709 280.001 289.069 279.944 289.31 279.916C289.55 279.887 289.67 279.859 289.91 279.83C290.09 279.802 290.27 279.773 290.51 279.745C290.69 279.716 290.87 279.688 291.111 279.659L291.711 279.574C291.711 279.574 292.071 279.517 292.311 279.488C292.551 279.46 292.671 279.431 292.912 279.403C293.092 279.374 293.272 279.346 293.512 279.317C293.692 279.289 293.872 279.26 294.112 279.232L294.713 279.146L295.313 279.061C295.313 279.061 295.733 279.004 295.913 278.975C296.094 278.947 296.334 278.918 296.514 278.89C296.694 278.861 296.934 278.833 297.114 278.804L297.714 278.719L298.315 278.633C298.315 278.633 298.735 278.576 298.915 278.548C299.095 278.519 299.335 278.491 299.516 278.462C299.696 278.434 299.936 278.405 300.116 278.377L300.716 278.291C300.716 278.291 301.136 278.234 301.317 278.206C301.497 278.177 301.737 278.149 301.917 278.12C302.097 278.092 302.337 278.063 302.517 278.035C302.697 278.006 302.938 277.978 303.118 277.949L303.718 277.864L304.318 277.778C304.318 277.778 304.739 277.721 304.919 277.692C305.099 277.664 305.339 277.635 305.519 277.607C305.699 277.578 305.939 277.55 306.119 277.521L306.72 277.436L307.32 277.35C307.32 277.35 307.74 277.293 307.92 277.265C308.101 277.236 308.341 277.208 308.521 277.179C308.701 277.151 308.941 277.122 309.121 277.094C309.301 277.065 309.541 277.037 309.721 277.008C309.902 276.98 310.142 276.951 310.322 276.923C310.502 276.894 310.742 276.866 310.922 276.837C311.102 276.809 311.342 276.78 311.523 276.752C311.703 276.723 311.943 276.695 312.123 276.666C312.303 276.638 312.543 276.609 312.723 276.581C312.903 276.552 313.143 276.524 313.324 276.495C313.504 276.467 313.744 276.438 313.924 276.41C314.104 276.381 314.344 276.353 314.524 276.324C314.704 276.296 314.945 276.267 315.125 276.239C315.305 276.21 315.545 276.182 315.725 276.153L316.325 276.068C316.325 276.068 316.746 276.011 316.926 275.982C317.106 275.954 317.346 275.925 317.526 275.897C317.706 275.868 317.946 275.84 318.126 275.783C318.307 275.754 318.547 275.726 318.727 275.669C318.907 275.612 319.147 275.612 319.327 275.555C319.507 275.526 319.747 275.498 319.927 275.441C320.108 275.412 320.348 275.384 320.528 275.327C320.708 275.298 320.948 275.27 321.128 275.213L321.729 275.099C321.729 275.099 322.149 275.042 322.329 274.985C322.509 274.956 322.749 274.928 322.929 274.871C323.109 274.842 323.349 274.814 323.53 274.757C323.71 274.728 323.95 274.699 324.13 274.642C324.31 274.614 324.55 274.585 324.73 274.528C324.91 274.5 325.151 274.471 325.331 274.414C325.511 274.386 325.751 274.357 325.931 274.3C326.111 274.272 326.351 274.243 326.531 274.186C326.711 274.158 326.952 274.129 327.132 274.072C327.312 274.044 327.552 274.015 327.732 273.958C327.912 273.93 328.152 273.901 328.332 273.844C328.513 273.816 328.753 273.787 328.933 273.73C329.113 273.702 329.353 273.673 329.533 273.616C329.713 273.588 329.953 273.559 330.133 273.502C330.314 273.474 330.554 273.445 330.734 273.388C330.914 273.36 331.154 273.331 331.334 273.274C331.514 273.246 331.754 273.217 331.935 273.16C332.115 273.103 332.355 273.103 332.535 273.046C332.715 273.018 332.955 272.989 333.135 272.932C333.315 272.904 333.555 272.875 333.736 272.818C333.916 272.79 334.156 272.761 334.336 272.704C334.516 272.647 334.756 272.647 334.936 272.59L335.537 272.476C335.537 272.476 335.957 272.419 336.137 272.362C336.317 272.305 336.557 272.305 336.737 272.248C336.917 272.22 337.158 272.191 337.338 272.134C337.518 272.106 337.758 272.077 337.938 272.02L338.538 271.906C338.538 271.906 338.959 271.849 339.139 271.792C339.319 271.763 339.559 271.735 339.739 271.678C339.919 271.649 340.159 271.621 340.339 271.564L340.94 271.45C340.94 271.45 341.36 271.364 341.54 271.336C341.72 271.307 341.96 271.279 342.141 271.222C342.321 271.193 342.561 271.165 342.741 271.108C342.921 271.079 343.161 271.022 343.341 270.994C343.521 270.965 343.761 270.908 343.942 270.88L344.542 270.766C344.542 270.766 344.962 270.68 345.142 270.652C345.322 270.623 345.563 270.566 345.743 270.538C345.923 270.509 346.163 270.452 346.343 270.424C346.523 270.395 346.763 270.338 346.943 270.31L347.544 270.196C347.544 270.196 347.964 270.11 348.144 270.082C348.324 270.053 348.564 269.996 348.744 269.968C348.924 269.939 349.165 269.882 349.345 269.854C349.525 269.825 349.765 269.768 349.945 269.74C350.125 269.711 350.365 269.654 350.545 269.626C350.726 269.597 350.966 269.54 351.146 269.512C351.326 269.483 351.566 269.426 351.746 269.398C351.926 269.369 352.166 269.312 352.347 269.284C352.527 269.255 352.767 269.198 352.947 269.17C353.127 269.141 353.367 269.084 353.547 269.056C353.727 269.027 353.967 268.97 354.148 268.942L354.748 268.828L355.348 268.714C355.348 268.714 355.769 268.628 355.949 268.599C356.129 268.571 356.369 268.514 356.549 268.485C356.729 268.457 356.969 268.4 357.149 268.371L357.75 268.257C357.75 268.257 358.17 268.172 358.35 268.143C358.53 268.115 358.77 268.058 358.95 268.029C359.13 268.001 359.371 267.944 359.551 267.915C359.731 267.887 359.971 267.83 360.151 267.801C360.331 267.773 360.571 267.716 360.751 267.687C360.932 267.659 361.172 267.602 361.352 267.573C361.532 267.545 361.772 267.488 361.952 267.459C362.132 267.431 362.372 267.374 362.552 267.345C362.733 267.317 362.973 267.26 363.153 267.231C363.333 267.203 363.573 267.146 363.753 267.117C363.933 267.089 364.173 267.032 364.354 267.003C364.534 266.975 364.774 266.918 364.954 266.889C365.134 266.861 365.374 266.804 365.554 266.775L366.155 266.661C366.155 266.661 366.575 266.576 366.755 266.547C366.935 266.519 367.175 266.462 367.355 266.433L367.956 266.319L368.556 266.205L369.156 266.091C369.156 266.091 369.577 266.006 369.757 265.977C369.937 265.949 370.177 265.892 370.357 265.863C370.537 265.835 370.777 265.778 370.957 265.749C371.138 265.721 371.378 265.664 371.558 265.635C371.738 265.606 371.978 265.549 372.158 265.521C372.338 265.492 372.578 265.435 372.758 265.407C372.939 265.378 373.179 265.321 373.359 265.293C373.539 265.264 373.779 265.207 373.959 265.179C374.139 265.15 374.379 265.093 374.56 265.065C374.74 265.036 374.98 264.979 375.16 264.951C375.34 264.922 375.58 264.865 375.82 264.837C376 264.808 376.241 264.751 376.481 264.723C376.721 264.694 376.901 264.637 377.141 264.609C377.381 264.58 377.561 264.523 377.801 264.495C378.042 264.466 378.222 264.409 378.462 264.381C378.702 264.352 378.882 264.295 379.122 264.267L379.783 264.153C379.783 264.153 380.203 264.067 380.443 264.039C380.683 264.01 380.863 263.953 381.103 263.925C381.344 263.896 381.524 263.839 381.764 263.811C382.004 263.782 382.184 263.725 382.424 263.697L383.085 263.583C383.085 263.583 383.505 263.497 383.745 263.469C383.985 263.44 384.165 263.383 384.405 263.355C384.645 263.326 384.826 263.269 385.066 263.241C385.306 263.212 385.486 263.155 385.726 263.127C385.966 263.098 386.146 263.041 386.386 263.013C386.627 262.984 386.807 262.927 387.047 262.899C387.287 262.87 387.467 262.813 387.707 262.785L388.368 262.671C388.368 262.671 388.788 262.585 389.028 262.556C389.268 262.528 389.448 262.471 389.688 262.442C389.929 262.414 390.109 262.357 390.349 262.328C390.589 262.3 390.769 262.243 391.009 262.214C391.249 262.186 391.429 262.129 391.67 262.1C391.91 262.072 392.09 262.015 392.33 261.986C392.57 261.958 392.75 261.901 392.99 261.872C393.231 261.844 393.411 261.787 393.651 261.758L394.131 261.673Z" fill="url(#paint3_linear_352_27332)"/>
<path d="M152.61 298.416V469.301H0V311.328C0 311.328 0.240143 311.328 0.360214 311.328C0.480284 311.328 0.600354 311.328 0.720425 311.328C0.840495 311.328 0.960566 311.328 1.08064 311.328C1.20071 311.328 1.32078 311.328 1.44085 311.328C1.56092 311.328 1.68099 311.328 1.80106 311.328C1.92113 311.328 2.0412 311.328 2.16127 311.328C2.28134 311.328 2.40141 311.328 2.52148 311.328C2.64155 311.328 2.76162 311.328 2.88169 311.328C3.00176 311.328 3.12183 311.328 3.2419 311.328C3.36197 311.328 3.48205 311.328 3.60212 311.328C3.72219 311.328 3.84226 311.328 3.96233 311.328C4.0824 311.328 4.20247 311.328 4.32254 311.328C4.44261 311.328 4.56268 311.328 4.68275 311.328C4.80282 311.328 4.92289 311.328 5.04296 311.328C5.16303 311.328 5.2831 311.328 5.40317 311.328C5.52324 311.328 5.64331 311.328 5.76338 311.328C5.88345 311.328 6.00353 311.328 6.1236 311.328C6.24367 311.328 6.36374 311.328 6.54384 311.328C6.72395 311.328 6.78398 311.328 6.96409 311.328H7.38434C7.38434 311.328 7.62448 311.3 7.80458 311.271C7.92465 311.271 8.04472 311.271 8.22483 311.271C8.3449 311.271 8.46497 311.271 8.64508 311.271C8.76515 311.271 8.88522 311.271 9.06532 311.271C9.18539 311.271 9.30546 311.271 9.48557 311.271C9.60564 311.271 9.78575 311.271 9.90582 311.271C10.0259 311.271 10.206 311.271 10.3261 311.271C10.4461 311.271 10.6262 311.271 10.7463 311.271C10.8664 311.271 11.0465 311.271 11.1666 311.271C11.2866 311.271 11.4667 311.271 11.5868 311.271C11.7069 311.271 11.887 311.271 12.007 311.271C12.1271 311.271 12.3072 311.271 12.4273 311.271C12.5474 311.271 12.7275 311.271 12.8475 311.271C12.9676 311.271 13.1477 311.271 13.2678 311.271C13.3879 311.271 13.568 311.271 13.688 311.271C13.8081 311.271 13.9882 311.271 14.1083 311.271C14.2284 311.271 14.4085 311.271 14.5285 311.271C14.6486 311.271 14.8287 311.271 14.9488 311.271C15.0688 311.271 15.249 311.271 15.369 311.271C15.4891 311.271 15.6692 311.271 15.7893 311.271C15.9093 311.271 16.0894 311.271 16.2095 311.271C16.3296 311.271 16.5097 311.271 16.6298 311.271C16.7498 311.271 16.9299 311.271 17.05 311.271C17.1701 311.271 17.3502 311.271 17.4703 311.271C17.5903 311.271 17.7704 311.271 17.8905 311.271C18.0106 311.271 18.1907 311.271 18.3107 311.271C18.4308 311.271 18.6109 311.271 18.731 311.271C18.8511 311.271 19.0312 311.271 19.2113 311.271C19.3914 311.271 19.5114 311.271 19.6916 311.271C19.8717 311.271 19.9917 311.271 20.1718 311.243C20.3519 311.243 20.472 311.243 20.6521 311.214C20.8322 311.214 20.9523 311.214 21.1324 311.186C21.3125 311.186 21.4326 311.186 21.6127 311.157C21.7928 311.157 21.9129 311.157 22.093 311.129C22.2731 311.129 22.3931 311.129 22.5732 311.1C22.7534 311.1 22.8734 311.1 23.0535 311.072C23.2336 311.072 23.3537 311.072 23.5338 311.043C23.7139 311.043 23.834 311.043 24.0141 311.015C24.1942 311.015 24.3143 311.015 24.4944 310.986C24.6745 310.958 24.7945 310.986 24.9747 310.958C25.1548 310.958 25.2748 310.958 25.4549 310.929C25.635 310.929 25.7551 310.929 25.9352 310.901C26.1153 310.901 26.2354 310.901 26.4155 310.872C26.5956 310.872 26.7157 310.872 26.8958 310.844C27.0759 310.844 27.196 310.844 27.3761 310.815C27.5562 310.815 27.6762 310.815 27.8563 310.787C28.0365 310.787 28.1565 310.787 28.3366 310.758C28.5167 310.73 28.6368 310.758 28.8169 310.73C28.997 310.701 29.1171 310.73 29.2972 310.701C29.4773 310.701 29.5974 310.701 29.7775 310.673C29.9576 310.673 30.1377 310.673 30.2578 310.644C30.3778 310.616 30.618 310.644 30.738 310.616C30.8581 310.587 31.0982 310.616 31.2183 310.587C31.3984 310.587 31.5785 310.587 31.6986 310.559C31.8787 310.559 32.0588 310.559 32.1789 310.53C32.359 310.53 32.5391 310.53 32.6592 310.502C32.7792 310.473 33.0194 310.502 33.1395 310.473C33.3196 310.473 33.4997 310.473 33.6197 310.445C33.7998 310.445 33.9799 310.445 34.16 310.416C34.3402 310.416 34.5203 310.416 34.7004 310.388C34.8805 310.388 35.0606 310.388 35.2407 310.359C35.4208 310.359 35.6009 310.359 35.781 310.331C35.9611 310.302 36.1412 310.331 36.3213 310.302C36.5014 310.302 36.6815 310.302 36.8616 310.273C37.0417 310.273 37.2218 310.274 37.402 310.245C37.5821 310.245 37.7622 310.245 37.9423 310.217C38.1224 310.188 38.3025 310.216 38.4826 310.188C38.6627 310.188 38.8428 310.188 39.0229 310.159C39.203 310.131 39.3831 310.159 39.5632 310.131C39.7433 310.102 39.9234 310.131 40.1035 310.102C40.2836 310.102 40.4637 310.102 40.6439 310.074C40.824 310.074 41.0041 310.074 41.1842 310.045C41.3643 310.017 41.5444 310.045 41.7245 310.017C41.9046 310.017 42.0847 310.017 42.2648 309.988C42.4449 309.988 42.625 309.988 42.8051 309.96C42.9852 309.96 43.1653 309.96 43.3454 309.931C43.5255 309.931 43.7057 309.931 43.8858 309.903C44.0659 309.903 44.246 309.903 44.4261 309.874C44.6062 309.874 44.7863 309.874 44.9664 309.846H45.5067C45.5067 309.846 45.8669 309.789 46.047 309.76C46.2271 309.76 46.4072 309.76 46.5873 309.732C46.7674 309.732 46.9476 309.732 47.1277 309.703C47.3078 309.703 47.4879 309.703 47.668 309.675C47.8481 309.675 48.0282 309.675 48.2083 309.646H48.7486C48.7486 309.646 49.1088 309.589 49.2889 309.561C49.469 309.561 49.6491 309.561 49.8292 309.532C50.0093 309.532 50.1895 309.504 50.3696 309.504C50.5497 309.504 50.7298 309.475 50.9099 309.447C51.09 309.447 51.2701 309.418 51.5102 309.39C51.7504 309.361 51.8704 309.361 52.1106 309.333C52.2907 309.333 52.4708 309.304 52.7109 309.276C52.891 309.276 53.0711 309.247 53.3113 309.219C53.4914 309.219 53.6715 309.19 53.9116 309.162C54.1518 309.133 54.2719 309.133 54.512 309.105C54.6921 309.105 54.8722 309.076 55.1123 309.048C55.2924 309.048 55.4726 309.019 55.7127 308.991C55.9528 308.962 56.0729 308.962 56.313 308.934C56.4932 308.934 56.7333 308.905 56.9134 308.877C57.0935 308.877 57.3337 308.848 57.5138 308.82C57.6939 308.82 57.934 308.791 58.1141 308.763C58.2942 308.763 58.5344 308.734 58.7145 308.706C58.8946 308.706 59.1347 308.677 59.3148 308.649C59.4949 308.62 59.7351 308.62 59.9152 308.592C60.0953 308.563 60.3354 308.563 60.5155 308.535C60.6956 308.535 60.9358 308.506 61.1159 308.478C61.296 308.449 61.5361 308.449 61.7162 308.421C61.8963 308.392 62.1365 308.392 62.3166 308.364C62.4967 308.364 62.7368 308.335 62.9169 308.307C63.097 308.307 63.3372 308.278 63.5173 308.25C63.6974 308.25 63.9375 308.221 64.1176 308.193C64.2977 308.193 64.5379 308.164 64.718 308.136L65.3183 308.079C65.3183 308.079 65.7386 308.05 65.9187 308.022C66.0988 308.022 66.3389 307.993 66.519 307.965C66.6992 307.965 66.9393 307.936 67.1194 307.908C67.2995 307.908 67.5396 307.879 67.7197 307.851C67.8998 307.851 68.14 307.822 68.3201 307.794C68.5002 307.765 68.7403 307.765 68.9204 307.737C69.1006 307.737 69.3407 307.708 69.5208 307.68C69.7009 307.68 69.941 307.651 70.1211 307.623C70.3013 307.623 70.5414 307.594 70.7215 307.566C70.9016 307.566 71.1418 307.537 71.3819 307.509C71.562 307.509 71.8021 307.48 72.0423 307.452C72.2824 307.452 72.4625 307.423 72.7027 307.395C72.9428 307.395 73.1229 307.366 73.3631 307.338C73.6032 307.338 73.7833 307.309 74.0234 307.28C74.2636 307.28 74.4437 307.252 74.6838 307.224C74.924 307.224 75.1041 307.195 75.3442 307.166C75.5844 307.166 75.7645 307.138 76.0046 307.109C76.2448 307.081 76.4249 307.081 76.665 307.052C76.9051 307.052 77.0852 307.024 77.3254 306.995C77.5655 306.967 77.7456 306.967 77.9858 306.938C78.2259 306.91 78.406 306.91 78.6461 306.881C78.8863 306.881 79.0664 306.853 79.3065 306.824C79.5467 306.796 79.7268 306.796 79.9669 306.767C80.2071 306.739 80.3872 306.739 80.6273 306.71C80.8675 306.71 81.0476 306.682 81.2877 306.653C81.5278 306.625 81.708 306.625 81.9481 306.596C82.1882 306.596 82.3683 306.568 82.6085 306.539C82.8486 306.539 83.0287 306.511 83.2689 306.482C83.509 306.482 83.6891 306.454 83.9293 306.425C84.1694 306.425 84.3495 306.397 84.5897 306.368C84.8298 306.368 85.0099 306.34 85.25 306.311C85.4902 306.311 85.6703 306.283 85.9104 306.254C86.1506 306.254 86.3307 306.226 86.5708 306.197C86.811 306.197 86.9911 306.169 87.2312 306.14C87.4713 306.14 87.6514 306.112 87.8916 306.083C88.1317 306.083 88.3118 306.055 88.552 306.026C88.7921 306.026 89.0322 305.998 89.2124 305.969C89.4525 305.969 89.6926 305.941 89.8727 305.912C90.0528 305.884 90.353 305.884 90.5331 305.855C90.7132 305.827 91.0134 305.827 91.1935 305.798C91.4337 305.798 91.6738 305.77 91.8539 305.741C92.034 305.713 92.3342 305.713 92.5143 305.684C92.7544 305.684 92.9946 305.656 93.1747 305.627C93.4148 305.627 93.655 305.599 93.8351 305.57C94.0752 305.57 94.3154 305.542 94.4955 305.513C94.6756 305.485 94.9757 305.485 95.2159 305.456L95.9363 305.399C95.9363 305.399 96.4166 305.371 96.6567 305.342C96.8969 305.342 97.137 305.285 97.3772 305.285C97.6173 305.285 97.8574 305.228 98.0976 305.228C98.3377 305.228 98.5779 305.171 98.818 305.171C99.0581 305.171 99.2983 305.114 99.5384 305.114C99.7786 305.114 100.019 305.057 100.259 305.057C100.499 305.057 100.739 305 100.979 305C101.219 305 101.46 304.943 101.7 304.943C101.94 304.943 102.18 304.886 102.42 304.886C102.66 304.886 102.9 304.829 103.141 304.829C103.381 304.829 103.621 304.772 103.861 304.772C104.101 304.772 104.341 304.715 104.581 304.715C104.822 304.715 105.062 304.658 105.302 304.658C105.542 304.658 105.782 304.601 106.022 304.601C106.262 304.601 106.502 304.544 106.743 304.544C106.983 304.544 107.223 304.487 107.463 304.487C107.703 304.487 107.943 304.43 108.183 304.43C108.424 304.43 108.664 304.373 108.904 304.373C109.144 304.373 109.384 304.316 109.624 304.316C109.864 304.316 110.105 304.259 110.345 304.259L111.065 304.202C111.065 304.202 111.545 304.145 111.786 304.116C112.026 304.088 112.266 304.059 112.506 304.031C112.746 304.031 112.986 303.974 113.226 303.945C113.467 303.945 113.707 303.888 113.947 303.86C114.187 303.831 114.427 303.803 114.667 303.774C114.907 303.774 115.148 303.717 115.388 303.689C115.628 303.689 115.868 303.632 116.108 303.603C116.348 303.575 116.588 303.546 116.829 303.518C117.069 303.518 117.309 303.461 117.549 303.432C117.789 303.432 118.029 303.375 118.269 303.347C118.51 303.347 118.75 303.29 118.99 303.261C119.23 303.233 119.47 303.204 119.71 303.176C119.95 303.176 120.191 303.119 120.431 303.09C120.671 303.09 120.911 303.033 121.151 303.005C121.391 303.005 121.631 302.948 121.932 302.919L122.712 302.834L123.492 302.748C123.492 302.748 123.973 302.691 124.273 302.663C124.573 302.634 124.753 302.606 125.053 302.577C125.294 302.577 125.534 302.52 125.834 302.492C126.134 302.463 126.314 302.435 126.614 302.406C126.854 302.406 127.095 302.349 127.395 302.321C127.635 302.321 127.875 302.264 128.175 302.235L128.956 302.15C128.956 302.15 129.496 302.093 129.736 302.064C129.976 302.036 130.276 302.007 130.517 301.979C130.757 301.95 131.057 301.922 131.297 301.893C131.537 301.893 131.837 301.836 132.078 301.808C132.318 301.808 132.618 301.751 132.858 301.722C133.098 301.722 133.398 301.665 133.638 301.637C133.879 301.637 134.179 301.58 134.419 301.551C134.659 301.551 134.959 301.494 135.199 301.466C135.439 301.466 135.74 301.409 135.98 301.38C136.22 301.38 136.52 301.323 136.76 301.295C137 301.266 137.301 301.238 137.541 301.209C137.781 301.181 138.081 301.152 138.321 301.124C138.561 301.124 138.862 301.067 139.102 301.038C139.342 301.038 139.642 300.981 139.882 300.952C140.122 300.952 140.422 300.895 140.663 300.867C140.903 300.838 141.203 300.81 141.443 300.781C141.683 300.753 141.983 300.724 142.223 300.696C142.464 300.667 142.764 300.639 143.004 300.61C143.244 300.582 143.544 300.553 143.784 300.525C144.025 300.496 144.325 300.468 144.565 300.439C144.805 300.411 145.105 300.382 145.345 300.354C145.585 300.325 145.886 300.297 146.126 300.268C146.366 300.24 146.666 300.211 146.906 300.183C147.146 300.154 147.447 300.126 147.687 300.097C147.927 300.069 148.227 300.04 148.467 300.012C148.707 299.983 149.007 299.955 149.248 299.926C149.488 299.898 149.788 299.869 150.028 299.841C150.268 299.812 150.568 299.784 150.809 299.755C151.049 299.727 151.349 299.698 151.589 299.67C151.889 299.641 152.129 299.613 152.429 299.584L152.61 298.416Z" fill="url(#paint4_linear_352_27332)"/>
<defs>
<linearGradient id="paint0_linear_352_27332" x1="753.878" y1="120.318" x2="712.712" y2="638.358" gradientUnits="userSpaceOnUse">
<stop stop-color="#6E18F3"/>
<stop offset="0.635417" stop-color="#6E18F3" stop-opacity="0"/>
</linearGradient>
<linearGradient id="paint1_linear_352_27332" x1="995.4" y1="-0.845582" x2="921.067" y2="693.502" gradientUnits="userSpaceOnUse">
<stop stop-color="#6E18F3"/>
<stop offset="0.635417" stop-color="#6E18F3" stop-opacity="0"/>
</linearGradient>
<linearGradient id="paint2_linear_352_27332" x1="512.417" y1="203.359" x2="488.447" y2="599.172" gradientUnits="userSpaceOnUse">
<stop stop-color="#6E18F3"/>
<stop offset="0.635417" stop-color="#6E18F3" stop-opacity="0"/>
</linearGradient>
<linearGradient id="paint3_linear_352_27332" x1="270.64" y1="261.299" x2="255.858" y2="571.308" gradientUnits="userSpaceOnUse">
<stop stop-color="#6E18F3"/>
<stop offset="0.635417" stop-color="#6E18F3" stop-opacity="0"/>
</linearGradient>
<linearGradient id="paint4_linear_352_27332" x1="29.1667" y1="298.108" x2="19.1428" y2="553.443" gradientUnits="userSpaceOnUse">
<stop stop-color="#6E18F3"/>
<stop offset="0.635417" stop-color="#6E18F3" stop-opacity="0"/>
</linearGradient>
</defs>
</svg>
