<svg width="481" height="255" viewBox="0 0 481 255" fill="none" xmlns="http://www.w3.org/2000/svg">
<g filter="url(#filter0_d_352_27359)">
<path d="M358 55.7148H71C68.7909 55.7148 67 57.5057 67 59.7148V226.715C67 228.924 68.7909 230.715 71 230.715H358C360.209 230.715 362 228.924 362 226.715V59.7148C362 57.5057 360.209 55.7148 358 55.7148Z" fill="#F5F5F5"/>
</g>
<path d="M358.5 55.7148H70.5C68.567 55.7148 67 57.2818 67 59.2148C67 61.1478 68.567 62.7148 70.5 62.7148H358.5C360.433 62.7148 362 61.1478 362 59.2148C362 57.2818 360.433 55.7148 358.5 55.7148Z" fill="#172833"/>
<path d="M72 59.2149C72 59.5118 71.9118 59.8021 71.7467 60.0489C71.5816 60.2957 71.3469 60.488 71.0724 60.6013C70.7979 60.7146 70.496 60.744 70.2048 60.6855C69.9137 60.6271 69.6464 60.4835 69.4369 60.2731C69.2274 60.0626 69.0851 59.7947 69.028 59.5033C68.9709 59.2119 69.0016 58.9101 69.1161 58.6361C69.2307 58.3621 69.424 58.1283 69.6716 57.9643C69.9192 57.8003 70.2098 57.7135 70.5068 57.7149C70.7035 57.7149 70.8982 57.7537 71.0798 57.8292C71.2614 57.9046 71.4263 58.0152 71.5651 58.1546C71.7038 58.294 71.8137 58.4594 71.8883 58.6414C71.9629 58.8233 72.0009 59.0182 72 59.2149Z" fill="#F5F5F5"/>
<path d="M80 59.2149C80 59.5115 79.912 59.8015 79.7472 60.0482C79.5824 60.2949 79.3481 60.4871 79.074 60.6007C78.7999 60.7142 78.4983 60.7439 78.2074 60.686C77.9164 60.6281 77.6491 60.4853 77.4393 60.2755C77.2296 60.0657 77.0867 59.7985 77.0288 59.5075C76.9709 59.2165 77.0007 58.9149 77.1142 58.6408C77.2277 58.3667 77.42 58.1325 77.6666 57.9677C77.9133 57.8028 78.2033 57.7149 78.5 57.7149C78.6972 57.714 78.8927 57.7521 79.0751 57.8272C79.2575 57.9023 79.4232 58.0127 79.5627 58.1522C79.7021 58.2917 79.8126 58.4574 79.8876 58.6398C79.9627 58.8222 80.0009 59.0176 80 59.2149Z" fill="#F5F5F5"/>
<path d="M88 59.2149C88 59.5115 87.8534 59.8015 87.5787 60.0482C87.304 60.2949 86.9135 60.4871 86.4567 60.6007C85.9999 60.7142 85.4972 60.7439 85.0123 60.686C84.5273 60.6281 84.0819 60.4853 83.7322 60.2755C83.3826 60.0657 83.1445 59.7984 83.048 59.5075C82.9516 59.2165 83.0011 58.9149 83.1903 58.6408C83.3795 58.3667 83.6999 58.1325 84.1111 57.9676C84.5222 57.8028 85.0055 57.7148 85.5 57.7148C86.163 57.7148 86.7989 57.8729 87.2678 58.1542C87.7366 58.4355 88 58.817 88 59.2149Z" fill="#6E18F3"/>
<path d="M140.17 174.668L169.207 132.819L223.773 90.2357L253.191 168.325C253.191 168.325 219.841 189.693 211.168 191.844C202.494 193.996 196.157 193.767 186.554 207.806L140.17 174.668Z" fill="#FFBF9D"/>
<path d="M264.568 77.4452C265.386 77.4036 275.37 84.6212 269.747 90.4994C263.764 96.7454 242.437 114.977 242.437 114.977C242.437 114.977 231.621 113.964 233.951 107.724C236.28 101.485 264.568 77.4452 264.568 77.4452Z" fill="#FFBF9D"/>
<path d="M273.089 184.224C267.895 184.493 262.688 184.118 257.586 183.107C245.529 180.736 234.436 174.865 225.69 166.226C216.943 157.588 210.93 146.563 208.4 134.527C205.871 122.491 206.936 109.976 211.463 98.5422C215.991 87.1081 223.78 77.2608 233.861 70.2276L289.015 31.7384L305.967 56.077L250.82 94.5662C243.676 99.5495 238.794 107.16 237.238 115.735C235.683 124.31 237.581 133.153 242.518 140.332C247.455 147.51 255.029 152.442 263.587 154.048C272.145 155.655 280.99 153.806 288.19 148.906L342.964 107.266L360.907 130.862L305.614 172.933L305.35 173.12C295.844 179.765 284.668 183.612 273.089 184.224Z" fill="#6E18F3"/>
<path d="M332.903 140.905L338.387 147.99L360.886 130.876L356.102 124.603L332.903 140.905Z" fill="#F5F5F5"/>
<path d="M278.213 65.9943L282.775 72.275L305.967 56.0839L301.405 49.6922L278.213 65.9943Z" fill="#F5F5F5"/>
<g opacity="0.3">
<path d="M273.145 184.307C267.951 184.577 262.744 184.201 257.642 183.19C245.587 180.814 234.496 174.94 225.753 166.299C217.01 157.659 211 146.634 208.472 134.598C205.945 122.563 207.012 110.049 211.54 98.616C216.068 87.1832 223.857 77.3368 233.937 70.304L289.085 31.8148L306.043 56.1603L250.889 94.6495C243.69 99.6109 238.755 107.232 237.169 115.835C235.583 124.439 237.477 133.32 242.434 140.526C247.39 147.732 255.004 152.672 263.599 154.259C272.194 155.847 281.067 153.951 288.266 148.99L343.04 107.35L360.983 130.946L305.697 173.016L305.426 173.203C295.913 179.849 284.73 183.695 273.145 184.307Z" fill="#172833"/>
</g>
<path d="M268.486 177.909C263.289 178.178 258.08 177.803 252.976 176.791C240.919 174.418 229.828 168.545 221.082 159.905C212.337 151.265 206.326 140.241 203.797 128.205C201.268 116.169 202.334 103.654 206.861 92.2204C211.388 80.7865 219.177 70.9391 229.257 63.9053L284.405 25.4161L301.363 49.7616L246.209 88.2508C239.101 93.2489 234.252 100.854 232.716 109.412C231.181 117.97 233.083 126.789 238.01 133.95C242.936 141.111 250.488 146.036 259.023 147.653C267.558 149.27 276.386 147.448 283.586 142.584L338.36 100.944L356.317 124.845L300.982 166.624L300.719 166.812C291.217 173.445 280.053 177.289 268.486 177.909Z" fill="#6E18F3"/>
<path d="M242.389 126.22L244.163 124.832C248.178 120.432 247.464 116.198 243.352 113.457C242.593 112.917 241.707 112.582 240.78 112.485C236.308 112.145 224.93 113.873 220.153 116.066C215.376 118.259 213.123 123.742 216.298 127.608C219.474 131.473 223.585 130.682 230.165 129.953C234.421 129.41 238.554 128.147 242.389 126.22Z" fill="#FFBF9D"/>
<path d="M227.309 134.464C227.309 134.464 220.68 139.239 223.391 144.604C226.102 149.968 229.305 149.552 235.129 148.608C240.953 147.664 249.918 138.927 249.918 138.927C249.918 138.927 253.537 133.486 250.611 129.669C246.646 124.492 243.38 126.629 239.976 127.844C236.571 129.058 227.309 134.464 227.309 134.464Z" fill="#FFBF9D"/>
<path d="M241.563 147.442C241.563 147.442 236.793 156.131 243.006 159.136C248.511 161.801 253.406 156.554 256.366 152.356C259.327 148.157 261.954 144.59 257.753 141.363C253.773 138.309 251.617 137.983 249.031 139.822C245.155 142.542 241.563 147.442 241.563 147.442Z" fill="#FFBF9D"/>
<path d="M156.699 151.606C156.699 151.606 168.819 118.495 172.771 110.167C176.723 101.839 200.733 82.6502 200.733 82.6502L225.811 71.1854C225.811 71.1854 235.178 82.1992 223.773 90.2357C216.806 95.1414 209.55 99.6213 202.043 103.651L199.679 119.529C199.679 119.529 207.035 157.415 177.146 180.296L156.699 151.606Z" fill="#FFBF9D"/>
<path d="M202.799 103.609C202.788 103.671 202.77 103.732 202.744 103.79L202.564 104.31C202.39 104.761 202.161 105.434 201.87 106.309C201.119 108.802 200.59 111.356 200.289 113.943C199.868 117.765 199.717 121.613 199.839 125.456C199.915 129.794 200.213 134.568 200.192 139.6C200.249 144.325 199.706 149.038 198.577 153.626C197.598 157.379 195.955 160.926 193.724 164.098C192.203 166.233 190.327 168.09 188.177 169.588L187.151 170.282C186.846 170.469 186.575 170.594 186.367 170.712L185.875 170.969L185.702 171.045C185.75 171.002 185.804 170.964 185.861 170.934L186.326 170.649C186.534 170.525 186.797 170.386 187.095 170.191L188.101 169.497C190.185 167.951 192.004 166.076 193.488 163.945C195.664 160.781 197.265 157.257 198.216 153.535C199.317 148.958 199.841 144.26 199.776 139.551C199.776 134.548 199.506 129.773 199.45 125.421C199.344 121.562 199.52 117.7 199.977 113.866C200.303 111.273 200.874 108.717 201.683 106.232C201.981 105.365 202.231 104.692 202.425 104.248L202.64 103.741C202.688 103.691 202.741 103.647 202.799 103.609Z" fill="#FF9A6C"/>
<path d="M260.693 42.0512L278.213 65.9942L301.405 49.6922L284.529 25.2009L260.693 42.0512Z" fill="#F5F5F5"/>
<path d="M315.008 118.558L333.68 141.848L356.289 124.832L338.443 100.868L315.008 118.558Z" fill="#F5F5F5"/>
<path d="M238 112.506C238.276 112.453 238.557 112.427 238.839 112.43H239.296L239.844 112.465L240.475 112.506L241.168 112.645C242.509 112.91 243.752 113.535 244.764 114.455C245.775 115.375 246.517 116.553 246.909 117.864C246.994 119.05 246.797 120.239 246.334 121.334C245.56 123.119 244.31 124.655 242.721 125.775C241.436 126.674 240.037 127.398 238.561 127.927C237.32 128.392 236.287 128.683 235.573 128.885C235.206 129.002 234.831 129.09 234.45 129.148C234.799 128.986 235.16 128.854 235.531 128.753C236.225 128.51 237.251 128.184 238.471 127.691C239.907 127.134 241.267 126.399 242.52 125.505C244.04 124.405 245.237 122.916 245.987 121.195C246.431 120.149 246.621 119.012 246.542 117.878C246.121 116.482 245.299 115.241 244.177 114.311C243.279 113.573 242.224 113.053 241.092 112.791L240.399 112.638L239.782 112.569L239.241 112.506H238.79C238.527 112.53 238.263 112.53 238 112.506Z" fill="#FF9A6C"/>
<path d="M251 137.074C250.917 137.272 250.805 137.457 250.667 137.622C250.438 137.962 250.085 138.441 249.627 139.01C248.435 140.506 247.12 141.898 245.696 143.174C244.276 144.467 242.704 145.583 241.016 146.498C240.508 146.779 239.983 147.025 239.442 147.234C239.248 147.325 239.043 147.39 238.832 147.428C238.832 147.373 239.636 147.019 240.912 146.276C242.543 145.307 244.074 144.177 245.481 142.903C246.887 141.628 248.214 140.267 249.454 138.83C249.938 138.217 250.454 137.631 251 137.074Z" fill="#FF9A6C"/>
<path d="M77.8813 230.701L139.401 167.755L194.604 212.491L180.391 230.798L77.8813 230.701Z" fill="#6E18F3"/>
<path d="M109.137 82.338C110.776 81.3497 112.539 80.582 114.378 80.0547L115.46 74.8567L124.231 74.704L125.493 79.8604C127.352 80.3133 129.143 81.0135 130.817 81.9424L135.248 79.0345L141.564 85.1348L138.791 89.6736C139.781 91.313 140.548 93.0775 141.072 94.9202L146.265 96.0028L146.417 104.782L141.266 106.045C140.813 107.907 140.114 109.699 139.186 111.375L142.091 115.81L135.997 122.132L131.469 119.356C129.829 120.347 128.064 121.115 126.221 121.639L125.139 126.837L116.368 126.99L115.106 121.834C113.247 121.379 111.456 120.679 109.782 119.752L105.351 122.659L99.0419 116.559L101.815 112.027C100.828 110.384 100.061 108.618 99.5342 106.774L94.3481 105.691L94.1886 96.912L99.3401 95.6489C99.7938 93.7877 100.493 91.9952 101.42 90.319L98.515 85.8843L104.609 79.5689L109.144 82.3449L109.137 82.338ZM113.796 94.0041C112.503 95.3437 111.636 97.0369 111.305 98.8697C110.973 100.702 111.192 102.592 111.934 104.301C112.676 106.009 113.907 107.459 115.471 108.467C117.036 109.474 118.864 109.995 120.725 109.963C122.585 109.931 124.394 109.348 125.924 108.287C127.453 107.225 128.633 105.734 129.316 104.001C129.998 102.269 130.152 100.372 129.758 98.5521C129.364 96.7318 128.439 95.0694 127.101 93.7751C126.213 92.9156 125.164 92.2396 124.014 91.786C122.864 91.3323 121.637 91.1097 120.401 91.131C119.166 91.1523 117.946 91.4169 116.813 91.9099C115.68 92.4029 114.655 93.1145 113.796 94.0041Z" fill="#F5F5F5"/>
<path d="M92.4968 133.902C93.6883 133.181 94.9708 132.623 96.3102 132.243L97.1006 128.461L103.486 128.35L104.401 132.098C105.755 132.433 107.058 132.947 108.277 133.625L111.501 131.543L116.098 135.984L114.094 139.288C114.816 140.48 115.376 141.764 115.758 143.105L119.537 143.896L119.648 150.287L115.897 151.204C115.564 152.559 115.051 153.864 114.371 155.083L116.451 158.31L112.021 162.911L108.721 160.913C107.527 161.634 106.242 162.191 104.901 162.571L104.117 166.354L97.7315 166.465L96.8648 162.71C95.5125 162.381 94.211 161.87 92.996 161.19L89.7651 163.307L85.1752 158.865L87.172 155.562C86.4506 154.367 85.8932 153.081 85.515 151.738L81.7363 150.912L81.6254 144.52L85.3694 143.604C85.7048 142.249 86.2177 140.945 86.8947 139.725L84.8147 136.491L89.252 131.896L92.5523 133.895L92.4968 133.902ZM95.9011 142.417C94.9633 143.394 94.3357 144.628 94.0975 145.961C93.8593 147.295 94.0212 148.67 94.5628 149.911C95.1043 151.153 96.0013 152.206 97.1404 152.938C98.2795 153.67 99.6097 154.048 100.963 154.024C102.316 153.999 103.632 153.574 104.745 152.802C105.857 152.03 106.716 150.946 107.213 149.685C107.709 148.425 107.822 147.046 107.537 145.721C107.251 144.397 106.58 143.187 105.608 142.244C104.3 140.981 102.545 140.29 100.729 140.323C98.9125 140.355 97.1833 141.109 95.9219 142.417H95.9011Z" fill="#F5F5F5"/>
<path d="M157.538 81.1374C158.345 80.6511 159.212 80.2731 160.118 80.0131L160.645 77.4592L164.957 77.3828L165.574 79.9159C166.488 80.1397 167.368 80.4876 168.188 80.95L170.372 79.5203L173.471 82.5184L172.085 84.7462C172.572 85.5507 172.949 86.4165 173.208 87.3209L175.752 87.8553L175.829 92.172L173.298 92.7896C173.074 93.7038 172.729 94.5837 172.272 95.406L173.7 97.5852L170.705 100.687L168.479 99.341C167.674 99.8291 166.807 100.205 165.9 100.458L165.373 103.012L161.061 103.089L160.443 100.555C159.53 100.332 158.651 99.9862 157.83 99.5284L155.687 100.944L152.581 97.946L153.933 95.7183C153.447 94.9119 153.071 94.0435 152.817 93.1366L150.265 92.6022L150.189 88.2925L152.72 87.6679C152.943 86.7537 153.288 85.8738 153.746 85.0515L152.318 82.9001L155.313 79.7979L157.538 81.1859V81.1374ZM159.833 86.8837C159.198 87.5426 158.773 88.3752 158.61 89.2762C158.448 90.1773 158.556 91.1063 158.921 91.9457C159.286 92.7852 159.892 93.4974 160.662 93.9923C161.431 94.4872 162.33 94.7425 163.245 94.726C164.159 94.7095 165.048 94.4219 165.8 93.8996C166.551 93.3772 167.131 92.6436 167.465 91.7915C167.8 90.9395 167.875 90.0072 167.68 89.1126C167.485 88.218 167.03 87.4012 166.371 86.7657C165.488 85.9154 164.304 85.4503 163.078 85.4724C161.853 85.4945 160.686 86.002 159.833 86.8837Z" fill="#F5F5F5"/>
<path d="M460.395 211.019C461.613 216.181 461.275 221.588 459.423 226.557C457.571 231.526 454.289 235.834 449.991 238.936C445.693 242.038 440.573 243.795 435.277 243.984C429.982 244.173 424.75 242.786 420.242 239.999C415.734 237.211 412.153 233.148 409.952 228.324C407.751 223.499 407.029 218.13 407.877 212.895C408.725 207.659 411.104 202.793 414.715 198.911C418.326 195.03 423.005 192.307 428.162 191.087C435.077 189.454 442.356 190.636 448.401 194.373C454.445 198.111 458.759 204.098 460.395 211.019Z" fill="#6E18F3"/>
<g opacity="0.1">
<path d="M428.162 191.087C424.736 191.897 421.502 193.374 418.647 195.436C415.792 197.497 413.37 200.101 411.521 203.099C409.672 206.097 408.431 209.431 407.869 212.91C407.308 216.388 407.437 219.944 408.249 223.372C408.249 223.372 426.761 219.861 429.431 211.428C432.1 202.996 428.162 191.087 428.162 191.087Z" fill="#F5F5F5"/>
</g>
<path d="M453.628 212.178C454.548 216.102 454.286 220.21 452.874 223.985C451.462 227.759 448.964 231.03 445.696 233.384C442.427 235.737 438.535 237.068 434.511 237.208C430.487 237.348 426.512 236.291 423.088 234.17C419.664 232.049 416.945 228.96 415.275 225.293C413.605 221.625 413.058 217.545 413.705 213.567C414.351 209.589 416.161 205.892 418.905 202.943C421.65 199.994 425.207 197.926 429.125 197C431.73 196.385 434.43 196.289 437.072 196.719C439.713 197.149 442.244 198.096 444.52 199.505C446.795 200.915 448.771 202.76 450.334 204.934C451.897 207.109 453.016 209.57 453.628 212.178Z" fill="#6E18F3"/>
<g opacity="0.2">
<path d="M453.628 212.178C454.548 216.102 454.286 220.21 452.874 223.985C451.462 227.759 448.964 231.03 445.696 233.384C442.427 235.737 438.535 237.068 434.511 237.208C430.487 237.348 426.512 236.291 423.088 234.17C419.664 232.049 416.945 228.96 415.275 225.293C413.605 221.625 413.058 217.545 413.705 213.567C414.351 209.589 416.161 205.892 418.905 202.943C421.65 199.994 425.207 197.926 429.125 197C431.73 196.385 434.43 196.289 437.072 196.719C439.713 197.149 442.244 198.096 444.52 199.505C446.795 200.915 448.771 202.76 450.334 204.934C451.897 207.109 453.016 209.57 453.628 212.178Z" fill="#172833"/>
</g>
<path d="M454.384 212.872C455.303 216.746 455.053 220.807 453.665 224.539C452.278 228.271 449.816 231.508 446.59 233.839C443.364 236.17 439.521 237.49 435.545 237.634C431.569 237.777 427.64 236.737 424.255 234.644C420.87 232.552 418.182 229.501 416.53 225.878C414.878 222.256 414.336 218.224 414.974 214.293C415.612 210.363 417.401 206.71 420.114 203.797C422.826 200.884 426.341 198.843 430.214 197.93C435.398 196.709 440.855 197.596 445.386 200.397C449.918 203.199 453.153 207.685 454.384 212.872Z" fill="#6E18F3"/>
<g opacity="0.2">
<path d="M454.384 212.872C455.303 216.746 455.053 220.807 453.665 224.539C452.278 228.271 449.816 231.508 446.59 233.839C443.364 236.17 439.521 237.49 435.545 237.634C431.569 237.777 427.64 236.737 424.255 234.644C420.87 232.552 418.182 229.501 416.53 225.878C414.878 222.256 414.336 218.224 414.974 214.293C415.612 210.363 417.401 206.71 420.114 203.797C422.826 200.884 426.341 198.843 430.214 197.93C435.398 196.709 440.855 197.596 445.386 200.397C449.918 203.199 453.153 207.685 454.384 212.872Z" fill="#F5F5F5"/>
</g>
<path d="M435.213 215.62L434.027 210.61C434.967 210.505 435.916 210.529 436.849 210.679C437.338 210.8 437.816 210.962 438.277 211.165V210.998L438.624 209.013L438.707 208.555L437.591 207.827L437.21 208.125C435.946 207.798 434.63 207.734 433.341 207.938L432.689 205.162L431.67 204.669L431.829 205.363L430.658 205.641L431.351 208.417C427.572 209.7 426.262 212.345 426.858 214.878C427.676 218.348 430.831 218.521 433.743 218.535L434.915 223.497C433.085 223.783 431.212 223.543 429.514 222.803L428.987 225.579C430.54 226.391 433.084 226.627 435.546 226.204L436.038 228.286L435.074 228.536L436.197 228.959L438.229 228.48L437.536 225.704C441.335 224.385 442.68 221.762 442.084 219.229C441.321 215.794 438.118 215.634 435.213 215.62ZM433.057 215.579C431.517 215.495 430.325 215.204 430.041 214.01C429.784 212.921 430.318 211.852 432.01 211.165L433.057 215.579ZM436.953 223.011L435.92 218.618C437.508 218.688 438.693 219 439.019 220.221C439.297 221.29 438.7 222.31 436.953 223.011Z" fill="#6E18F3"/>
<g opacity="0.3">
<path d="M435.213 215.62L434.027 210.61C434.967 210.505 435.916 210.529 436.849 210.679C437.338 210.8 437.816 210.962 438.277 211.165V210.998L438.624 209.013L438.707 208.555L437.591 207.827L437.21 208.125C435.946 207.798 434.63 207.734 433.341 207.938L432.689 205.162L431.67 204.669L431.829 205.363L430.658 205.641L431.351 208.417C427.572 209.7 426.262 212.345 426.858 214.878C427.676 218.348 430.831 218.521 433.743 218.535L434.915 223.497C433.085 223.783 431.212 223.543 429.514 222.803L428.987 225.579C430.54 226.391 433.084 226.627 435.546 226.204L436.038 228.286L435.074 228.536L436.197 228.959L438.229 228.48L437.536 225.704C441.335 224.385 442.68 221.762 442.084 219.229C441.321 215.794 438.118 215.634 435.213 215.62ZM433.057 215.579C431.517 215.495 430.325 215.204 430.041 214.01C429.784 212.921 430.318 211.852 432.01 211.165L433.057 215.579ZM436.953 223.011L435.92 218.618C437.508 218.688 438.693 219 439.019 220.221C439.297 221.29 438.7 222.31 436.953 223.011Z" fill="#172833"/>
</g>
<path d="M436.593 225.232L437.251 228.008L435.22 228.487L434.568 225.711C432.1 226.141 429.562 225.898 428.009 225.086L428.529 222.31C430.227 223.049 432.101 223.29 433.93 223.004L432.759 218.042C429.853 218.042 426.692 217.827 425.874 214.378C425.277 211.845 426.567 209.208 430.373 207.917L429.68 205.141L431.712 204.662L432.363 207.438C434.16 207.094 436.014 207.204 437.757 207.757L437.328 210.533C435.926 210.105 434.45 209.972 432.994 210.145L434.18 215.155C437.092 215.155 440.295 215.336 441.113 218.785C441.737 221.29 440.392 223.913 436.593 225.232ZM432.051 215.093L431.011 210.679C429.313 211.373 428.779 212.435 429.042 213.531C429.306 214.628 430.519 215.044 432.051 215.093ZM438.014 219.736C437.73 218.521 436.503 218.209 434.915 218.139L435.955 222.532C437.702 221.831 438.271 220.804 438.014 219.736Z" fill="#6E18F3"/>
<path d="M439.137 237.349L439.297 237.294L439.761 237.148L440.517 236.919C440.862 236.827 441.2 236.711 441.529 236.572L442.777 236.058C443.017 235.965 443.249 235.851 443.471 235.718L444.205 235.33C444.471 235.2 444.731 235.056 444.982 234.9L445.772 234.372C446.043 234.185 446.334 234.018 446.604 233.803L447.422 233.109C448.634 232.098 449.731 230.958 450.695 229.708L451.388 228.64C451.513 228.459 451.645 228.279 451.763 228.091L452.089 227.501C452.304 227.106 452.546 226.71 452.74 226.294L453.309 224.996L453.454 224.663C453.496 224.552 453.531 224.434 453.565 224.323L453.794 223.629L454.023 222.935C454.106 222.699 454.134 222.449 454.196 222.241C454.3 221.755 454.425 221.262 454.508 220.763L454.696 219.229C455.076 214.917 454.057 210.597 451.791 206.91C451.499 206.48 451.215 206.05 450.938 205.627C450.66 205.203 450.307 204.835 449.995 204.44C449.828 204.252 449.69 204.044 449.509 203.871C449.329 203.697 449.163 203.524 448.996 203.343L448.483 202.83L448.227 202.573L447.949 202.344L446.923 201.421C446.556 201.136 446.161 200.894 445.793 200.63L445.239 200.248L444.656 199.922L443.526 199.297C442.106 198.611 440.616 198.083 439.082 197.722L438.049 197.493C437.709 197.424 437.355 197.403 437.05 197.361L436.114 197.243C435.809 197.201 435.511 197.243 435.22 197.201H434.388C434.132 197.184 433.874 197.184 433.618 197.201L432.28 197.299C431.921 197.323 431.565 197.372 431.212 197.444L430.436 197.576L429.957 197.659C429.902 197.667 429.846 197.667 429.791 197.659H429.951L430.429 197.562L431.205 197.41C431.556 197.326 431.913 197.27 432.273 197.243L433.618 197.125C433.874 197.108 434.132 197.108 434.388 197.125H435.227C435.511 197.125 435.816 197.125 436.121 197.16L437.071 197.264C437.397 197.312 437.764 197.326 438.069 197.396L439.109 197.618C440.661 197.97 442.168 198.497 443.602 199.186L444.746 199.811C444.94 199.922 445.135 200.019 445.329 200.137L445.89 200.519C446.265 200.782 446.66 201.025 447.027 201.31L448.13 202.226L448.407 202.455L448.664 202.712L449.184 203.239L449.704 203.767C449.891 203.94 450.029 204.148 450.196 204.336C450.508 204.731 450.848 205.12 451.153 205.529L452.012 206.834C454.29 210.537 455.312 214.877 454.924 219.208C454.862 219.729 454.8 220.249 454.737 220.756C454.675 221.262 454.522 221.762 454.418 222.255C454.356 222.498 454.321 222.748 454.238 222.984C454.155 223.219 454.085 223.455 454.002 223.678L453.773 224.372C453.773 224.49 453.704 224.601 453.662 224.719L453.517 225.052L452.941 226.356C452.74 226.78 452.491 227.175 452.248 227.578L451.915 228.168C451.797 228.362 451.666 228.536 451.541 228.723L450.799 229.799C449.823 231.053 448.712 232.196 447.485 233.206L446.653 233.9C446.382 234.115 446.084 234.282 445.814 234.462L445.017 234.983C444.764 235.141 444.502 235.284 444.233 235.413L443.484 235.802C443.262 235.929 443.03 236.038 442.791 236.128L441.529 236.628C441.197 236.766 440.853 236.877 440.503 236.961L439.74 237.176L439.276 237.301L439.137 237.349Z" fill="#172833"/>
<path d="M415.03 234.677C415.03 234.677 414.968 234.622 414.864 234.504L414.406 233.983C414.205 233.754 413.969 233.477 413.713 233.13C413.456 232.783 413.151 232.401 412.867 231.943L412.395 231.249C412.236 230.999 412.097 230.729 411.931 230.458C411.605 229.917 411.307 229.306 410.988 228.667C410.33 227.265 409.785 225.812 409.359 224.323C408.951 222.829 408.668 221.304 408.513 219.763C408.457 219.069 408.395 218.375 408.395 217.744C408.395 217.425 408.395 217.119 408.395 216.828C408.395 216.536 408.395 216.252 408.429 215.981C408.429 215.44 408.499 214.954 408.54 214.531C408.57 214.165 408.618 213.801 408.686 213.441C408.734 213.163 408.776 212.934 408.811 212.747C408.819 212.666 408.837 212.587 408.866 212.511C408.875 212.592 408.875 212.673 408.866 212.754L408.783 213.448C408.741 213.739 408.7 214.107 408.672 214.531C408.644 214.954 408.589 215.44 408.589 215.981V216.821C408.589 217.112 408.589 217.418 408.589 217.73C408.589 218.362 408.665 219.035 408.721 219.736C409.042 222.802 409.874 225.793 411.182 228.584C411.494 229.216 411.778 229.826 412.104 230.368C412.264 230.638 412.402 230.909 412.555 231.159L413.012 231.853C413.29 232.318 413.588 232.7 413.831 233.047C414.035 233.349 414.255 233.641 414.489 233.921L414.912 234.462C414.958 234.53 414.997 234.602 415.03 234.677Z" fill="#F5F5F5"/>
<path d="M428.065 216.106C427.801 216.023 427.563 215.875 427.371 215.676C426.86 215.215 426.509 214.602 426.373 213.927C426.239 213.25 426.329 212.549 426.629 211.928C426.731 211.66 426.898 211.422 427.115 211.234C427.115 211.234 426.941 211.505 426.754 211.97C426.503 212.568 426.435 213.228 426.558 213.866C426.682 214.503 426.991 215.089 427.448 215.551C427.801 215.926 428.079 216.078 428.065 216.106Z" fill="#F5F5F5"/>
<path d="M430.692 207.466C430.637 207.466 430.512 207.119 430.401 206.675C430.305 206.406 430.275 206.118 430.311 205.835C430.464 206.074 430.561 206.344 430.595 206.626C430.695 206.894 430.729 207.182 430.692 207.466Z" fill="#F5F5F5"/>
<path d="M430.796 196.098C430.585 196.155 430.369 196.197 430.152 196.223C429.9 196.256 429.65 196.303 429.403 196.362C429.112 196.424 428.772 196.48 428.411 196.584C428.051 196.688 427.649 196.771 427.233 196.91C426.817 197.049 426.366 197.201 425.902 197.368C424.9 197.763 423.927 198.227 422.99 198.756C422.06 199.295 421.17 199.9 420.327 200.567C419.946 200.887 419.578 201.178 419.259 201.483C418.94 201.789 418.635 202.066 418.379 202.337C418.122 202.608 417.887 202.858 417.686 203.08C417.484 203.302 417.318 203.496 417.186 203.663C417.057 203.838 416.91 204.001 416.75 204.148C416.864 203.963 416.989 203.785 417.124 203.614C417.272 203.404 417.431 203.202 417.602 203.01C417.796 202.781 418.004 202.511 418.296 202.24C418.587 201.969 418.836 201.664 419.169 201.365C419.502 201.067 419.863 200.748 420.23 200.422C421.078 199.743 421.974 199.128 422.913 198.583C423.859 198.045 424.844 197.581 425.86 197.195C426.331 197.028 426.775 196.861 427.205 196.743C427.635 196.625 428.03 196.521 428.404 196.438C428.734 196.356 429.067 196.291 429.403 196.244C429.655 196.195 429.91 196.16 430.166 196.14C430.374 196.107 430.585 196.093 430.796 196.098Z" fill="#F5F5F5"/>
<path d="M443.339 241.18C443.204 241.277 443.057 241.356 442.902 241.416C442.618 241.555 442.209 241.742 441.668 241.944C438.873 242.992 435.874 243.382 432.904 243.082C432.336 243.026 431.878 242.957 431.573 242.894C431.407 242.873 431.245 242.833 431.088 242.776C431.252 242.771 431.418 242.782 431.58 242.811C431.899 242.853 432.35 242.901 432.918 242.943C434.388 243.05 435.865 243.01 437.328 242.825C438.787 242.626 440.225 242.287 441.619 241.812C442.153 241.624 442.583 241.465 442.874 241.347C443.023 241.274 443.178 241.218 443.339 241.18Z" fill="#F5F5F5"/>
<path d="M460.395 211.019C460.395 211.019 460.346 210.873 460.27 210.596C460.194 210.318 460.097 209.902 459.923 209.374C459.441 207.811 458.819 206.294 458.065 204.842C457.517 203.797 456.901 202.788 456.221 201.824C455.415 200.672 454.518 199.588 453.538 198.583C451.145 196.126 448.308 194.147 445.176 192.753C441.37 191.055 437.218 190.278 433.057 190.484C430.751 190.594 428.47 191.002 426.269 191.698C425.118 192.06 423.992 192.498 422.899 193.01C421.783 193.547 420.701 194.154 419.661 194.828C415.245 197.732 411.787 201.881 409.726 206.751C409.185 208.019 408.744 209.328 408.409 210.665C408.061 212.031 407.829 213.424 407.715 214.829C407.204 220.578 408.563 226.338 411.591 231.249C411.952 231.853 412.361 232.429 412.763 232.998C413.165 233.567 413.609 234.115 414.066 234.636C414.964 235.68 415.942 236.653 416.992 237.544C421.01 240.989 425.959 243.163 431.212 243.79C432.444 243.928 433.683 243.983 434.922 243.956C438.443 243.867 441.912 243.089 445.135 241.666C448.939 239.986 452.297 237.435 454.938 234.219C457.106 231.566 458.753 228.526 459.792 225.26C460.216 223.92 460.534 222.549 460.741 221.158C460.914 219.991 461.014 218.813 461.04 217.633C461.061 216.006 460.938 214.38 460.672 212.775C460.596 212.22 460.485 211.803 460.436 211.519C460.388 211.234 460.36 211.095 460.36 211.095C460.36 211.095 460.506 211.664 460.714 212.768C461.209 215.551 461.249 218.397 460.832 221.193C460.634 222.591 460.321 223.97 459.896 225.315C458.864 228.604 457.217 231.666 455.042 234.337C452.391 237.575 449.019 240.147 445.197 241.846C443.074 242.794 440.836 243.459 438.541 243.824C437.344 244.022 436.135 244.136 434.922 244.164C433.674 244.192 432.425 244.136 431.185 243.998C424.48 243.216 418.315 239.938 413.914 234.816C413.449 234.296 413.026 233.734 412.596 233.171C412.167 232.609 411.778 232.019 411.418 231.409C408.363 226.464 406.993 220.661 407.514 214.871C407.626 213.465 407.858 212.072 408.208 210.707C408.544 209.36 408.987 208.042 409.532 206.765C411.609 201.861 415.093 197.685 419.544 194.766C420.59 194.085 421.681 193.475 422.809 192.94C426.021 191.403 429.502 190.512 433.057 190.317C437.235 190.122 441.4 190.911 445.218 192.621C448.359 194.034 451.203 196.031 453.6 198.506C454.581 199.517 455.476 200.608 456.276 201.768C456.958 202.738 457.571 203.754 458.114 204.808C458.862 206.265 459.472 207.789 459.937 209.36C460.27 210.436 460.395 211.019 460.395 211.019Z" fill="#172833"/>
<path d="M78.5554 228.337C89.0186 213.911 85.8175 193.727 71.4057 183.253C56.9938 172.78 36.8287 175.984 26.3656 190.41C15.9024 204.836 19.1035 225.02 33.5153 235.493C47.9272 245.967 68.0923 242.763 78.5554 228.337Z" fill="#6E18F3"/>
<g opacity="0.1">
<path d="M31.6513 184.723C25.1179 190.248 21.0443 198.145 20.3266 206.676C19.6089 215.207 22.3058 223.674 27.8241 230.215C27.8241 230.215 45.7884 216.335 44.062 205.849C42.3356 195.362 31.6513 184.723 31.6513 184.723Z" fill="#F5F5F5"/>
</g>
<path d="M70.4433 193.489C73.5727 197.196 75.5335 201.749 76.0777 206.572C76.6219 211.395 75.7251 216.271 73.5007 220.584C71.2763 224.896 67.8242 228.452 63.581 230.801C59.3378 233.15 54.494 234.186 49.6621 233.78C44.8303 233.373 40.2274 231.541 36.4356 228.516C32.6438 225.491 29.8334 221.408 28.3597 216.784C26.8861 212.16 26.8154 207.203 28.1565 202.539C29.4977 197.874 32.1906 193.713 35.8945 190.581C38.3534 188.5 41.1977 186.925 44.265 185.945C47.3323 184.965 50.5624 184.6 53.7708 184.87C56.9792 185.14 60.103 186.04 62.9637 187.519C65.8245 188.998 68.3661 191.026 70.4433 193.489Z" fill="#6E18F3"/>
<g opacity="0.2">
<path d="M70.4433 193.489C73.5727 197.196 75.5335 201.749 76.0777 206.572C76.6219 211.395 75.7251 216.271 73.5007 220.584C71.2763 224.896 67.8242 228.452 63.581 230.801C59.3378 233.15 54.494 234.186 49.6621 233.78C44.8303 233.373 40.2274 231.541 36.4356 228.516C32.6438 225.491 29.8334 221.408 28.3597 216.784C26.8861 212.16 26.8154 207.203 28.1565 202.539C29.4977 197.874 32.1906 193.713 35.8945 190.581C38.3534 188.5 41.1977 186.925 44.265 185.945C47.3323 184.965 50.5624 184.6 53.7708 184.87C56.9792 185.14 60.103 186.04 62.9637 187.519C65.8245 188.998 68.3661 191.026 70.4433 193.489Z" fill="#172833"/>
</g>
<path d="M71.6497 193.822C74.7364 197.479 76.6702 201.971 77.2066 206.728C77.743 211.486 76.8578 216.296 74.6631 220.55C72.4683 224.804 69.0626 228.311 64.8765 230.627C60.6905 232.944 55.9121 233.966 51.1458 233.564C46.3795 233.162 41.8393 231.355 38.0994 228.37C34.3594 225.385 31.5877 221.357 30.1348 216.796C28.6819 212.234 28.6131 207.344 29.9369 202.743C31.2608 198.142 33.918 194.038 37.5724 190.948C39.9977 188.896 42.8035 187.342 45.8291 186.375C48.8548 185.409 52.0412 185.049 55.206 185.316C58.3708 185.582 61.452 186.471 64.2736 187.931C67.0951 189.39 69.6016 191.392 71.6497 193.822Z" fill="#6E18F3"/>
<g opacity="0.2">
<path d="M71.6497 193.822C74.7364 197.479 76.6702 201.971 77.2066 206.728C77.743 211.486 76.8578 216.296 74.6631 220.55C72.4683 224.804 69.0626 228.311 64.8765 230.627C60.6905 232.944 55.9121 233.966 51.1458 233.564C46.3795 233.162 41.8393 231.355 38.0994 228.37C34.3594 225.385 31.5877 221.357 30.1348 216.796C28.6819 212.234 28.6131 207.344 29.9369 202.743C31.2608 198.142 33.918 194.038 37.5724 190.948C39.9977 188.896 42.8035 187.342 45.8291 186.375C48.8548 185.409 52.0412 185.049 55.206 185.316C58.3708 185.582 61.452 186.471 64.2736 187.931C67.0951 189.39 69.6016 191.392 71.6497 193.822Z" fill="#F5F5F5"/>
</g>
<path d="M52.5623 207.216L48.5687 202.49C49.5187 201.862 50.5497 201.367 51.6332 201.018C52.2279 200.882 52.8334 200.798 53.4428 200.769L53.3804 200.567L52.6871 198.249L52.5207 197.715L50.933 197.541L50.6834 198.069C49.1479 198.407 47.6972 199.054 46.4194 199.97L44.2215 197.368L42.8348 197.403L43.3895 198.055L42.2802 198.992L44.5127 201.643C41.157 205.113 41.1847 208.632 43.2023 211.026C45.9756 214.281 49.4423 212.768 52.5831 211.206L56.542 215.891C54.7302 217.193 52.5844 217.949 50.3575 218.07L51.3004 221.332C53.3804 221.332 56.2647 220.228 58.6775 218.424L60.3346 220.388L59.4332 221.179L60.8754 221.026L62.7959 219.402L60.5772 216.779C63.9399 213.309 63.9538 209.749 61.9639 207.355C59.2183 204.079 55.6962 205.654 52.5623 207.216ZM50.2257 208.347C48.534 209.097 47.0919 209.437 46.142 208.312C45.1922 207.188 45.2615 205.842 46.7036 204.148L50.2257 208.347ZM58.4556 214.204L54.989 210.04C56.7292 209.249 58.213 208.916 59.149 210.04C60.0018 211.088 59.9463 212.497 58.4556 214.204Z" fill="#6E18F3"/>
<g opacity="0.3">
<path d="M52.5623 207.216L48.5687 202.49C49.5187 201.862 50.5497 201.367 51.6332 201.018C52.2279 200.882 52.8334 200.798 53.4428 200.769L53.3804 200.567L52.6871 198.249L52.5207 197.715L50.933 197.541L50.6834 198.069C49.1479 198.407 47.6972 199.054 46.4194 199.97L44.2215 197.368L42.8348 197.403L43.3895 198.055L42.2802 198.992L44.5127 201.643C41.157 205.113 41.1847 208.632 43.2023 211.026C45.9756 214.281 49.4423 212.768 52.5831 211.206L56.542 215.891C54.7302 217.193 52.5844 217.949 50.3575 218.07L51.3004 221.332C53.3804 221.332 56.2647 220.228 58.6775 218.424L60.3346 220.388L59.4332 221.179L60.8754 221.026L62.7959 219.402L60.5772 216.779C63.9399 213.309 63.9538 209.749 61.9639 207.355C59.2183 204.079 55.6962 205.654 52.5623 207.216ZM50.2257 208.347C48.534 209.097 47.0919 209.437 46.142 208.312C45.1922 207.188 45.2615 205.842 46.7036 204.148L50.2257 208.347ZM58.4556 214.204L54.989 210.04C56.7292 209.249 58.213 208.916 59.149 210.04C60.0018 211.088 59.9463 212.497 58.4556 214.204Z" fill="#172833"/>
</g>
<path d="M59.2737 216.786L61.4923 219.409L59.5718 221.033L57.374 218.431C54.9612 220.235 52.1046 221.367 49.9969 221.339L49.054 218.084C51.2799 217.958 53.4244 217.202 55.2385 215.905L51.2796 211.213C48.1457 212.782 44.6513 214.295 41.8988 211.033C39.8812 208.639 39.8188 205.092 43.2092 201.65L40.9697 198.999L42.8902 197.375L45.0881 199.977C46.8285 198.63 48.8784 197.74 51.0507 197.389L52.0907 200.567C50.3556 200.87 48.7026 201.532 47.2374 202.511L51.238 207.244C54.3718 205.682 57.9009 204.1 60.6465 207.362C62.6502 209.756 62.6364 213.302 59.2737 216.786ZM48.8737 208.375L45.3515 204.211C43.9094 205.876 43.9164 207.313 44.79 208.375C45.6636 209.437 47.1958 209.124 48.8876 208.375H48.8737ZM57.8038 210.11C56.8331 208.958 55.3425 209.291 53.6022 210.11L57.0689 214.274C58.615 212.525 58.6566 211.116 57.8177 210.11H57.8038Z" fill="#6E18F3"/>
<path d="M68.5991 228.404L68.7377 228.258L69.1537 227.849C69.3479 227.668 69.5767 227.453 69.8471 227.189C70.1712 226.906 70.4726 226.597 70.7484 226.266L71.83 225.038C72.0336 224.803 72.2212 224.555 72.3916 224.295L72.9671 223.476C73.1847 223.192 73.3861 222.895 73.5703 222.588L74.1319 221.596C74.3191 221.249 74.5409 220.902 74.7143 220.534L75.2273 219.368C75.9825 217.624 76.5406 215.802 76.8913 213.934C76.9607 213.427 77.03 212.914 77.0993 212.386C77.0993 212.129 77.1687 211.866 77.1964 211.595C77.2241 211.324 77.1964 211.061 77.1964 210.783C77.1964 210.242 77.2519 209.687 77.2449 209.131L77.1409 207.431V206.994C77.1409 206.855 77.0924 206.709 77.0716 206.564C77.03 206.279 76.9815 205.988 76.9399 205.696C76.8983 205.405 76.8497 205.113 76.8012 204.822C76.7527 204.53 76.6625 204.239 76.6001 203.947C76.4407 203.364 76.3089 202.774 76.1287 202.184L75.4908 200.436C73.5569 195.6 70.1131 191.52 65.6732 188.804L64.0577 187.881C63.51 187.603 62.9484 187.381 62.4007 187.125C62.1233 187.014 61.8599 186.868 61.5756 186.778L60.7297 186.5L59.8977 186.222L59.4887 186.084L59.0657 185.986L57.4087 185.605C56.8609 185.501 56.3063 185.452 55.7655 185.376L54.9612 185.265C54.6977 185.265 54.4273 185.265 54.1639 185.265L52.6108 185.209C50.7079 185.231 48.813 185.462 46.9601 185.896L45.726 186.215C45.3239 186.32 44.9564 186.479 44.582 186.611L43.5143 187C43.1799 187.128 42.8535 187.277 42.5367 187.444L41.6284 187.874C41.3465 187.999 41.0732 188.143 40.8103 188.304L39.4236 189.144C39.0512 189.364 38.6945 189.61 38.3559 189.88L37.5932 190.442L37.1217 190.789C37.0177 190.865 36.9623 190.907 36.9553 190.9L37.1079 190.768L37.5655 190.407L38.3143 189.817C38.6486 189.541 39.0032 189.291 39.3751 189.068L40.7617 188.2C41.0237 188.035 41.2971 187.889 41.5799 187.763L42.4881 187.319C42.8048 187.149 43.1312 186.999 43.4657 186.868L44.5404 186.465C44.9148 186.333 45.2823 186.167 45.6844 186.056L46.9255 185.73C48.7792 185.264 50.6793 185.008 52.59 184.966L54.1639 185.015C54.4273 185.015 54.6977 185.015 54.9681 185.015L55.7793 185.119C56.3201 185.195 56.8817 185.244 57.4364 185.348L59.1073 185.73L59.5303 185.827L59.9532 185.966L60.7921 186.243L61.638 186.528C61.924 186.627 62.2041 186.743 62.4769 186.875C63.0247 187.125 63.6001 187.354 64.1479 187.638L65.7841 188.561C70.2679 191.305 73.7456 195.427 75.6988 200.311C75.9137 200.9 76.1287 201.49 76.3367 202.073C76.5447 202.656 76.6487 203.267 76.8081 203.857C76.8923 204.147 76.9594 204.441 77.0092 204.738C77.0577 205.03 77.1063 205.328 77.1479 205.62C77.1895 205.911 77.238 206.21 77.2796 206.501C77.2796 206.64 77.3281 206.786 77.3489 206.931V207.369C77.3836 207.945 77.4113 208.521 77.446 209.083C77.4807 209.645 77.4113 210.207 77.3975 210.755C77.3975 211.033 77.3975 211.304 77.3628 211.574C77.3281 211.845 77.2935 212.109 77.2588 212.372C77.1895 212.9 77.1132 213.42 77.0439 213.934C76.682 215.812 76.1122 217.644 75.3452 219.396L74.8113 220.562C74.638 220.943 74.4092 221.256 74.222 221.623C74.0348 221.991 73.8337 222.317 73.6465 222.623C73.4601 222.93 73.2564 223.227 73.0364 223.511L72.4471 224.33C72.2761 224.589 72.086 224.835 71.8785 225.066L70.7969 226.287C70.5131 226.613 70.2073 226.919 69.8817 227.203L69.1884 227.842L68.7516 228.237C68.6545 228.362 68.606 228.411 68.5991 228.404Z" fill="#172833"/>
<path d="M41.2471 238.689C41.1524 238.666 41.0596 238.636 40.9698 238.599L40.1933 238.286C39.8605 238.147 39.4514 237.974 38.9938 237.738C38.5362 237.502 37.9954 237.266 37.4407 236.933L36.5533 236.426C36.2482 236.253 35.9501 236.038 35.6242 235.836C34.9794 235.434 34.3277 234.934 33.6343 234.448C32.1681 233.296 30.7977 232.027 29.5367 230.652C28.29 229.268 27.154 227.787 26.1394 226.224C25.6957 225.489 25.2589 224.795 24.9191 224.142C24.7458 223.802 24.5586 223.483 24.413 223.164L23.9901 222.206C23.7058 221.623 23.5186 221.068 23.2967 220.589C23.0749 220.11 22.9709 219.687 22.8669 219.34L22.6381 218.514C22.6045 218.422 22.5812 218.327 22.5687 218.23C22.6168 218.316 22.6563 218.406 22.6866 218.5C22.7559 218.702 22.853 218.958 22.9709 219.284C23.0887 219.611 23.2343 220.041 23.4423 220.513C23.6503 220.985 23.8445 221.533 24.1357 222.109L24.5725 223.025C24.725 223.337 24.9122 223.657 25.0855 223.99C25.4322 224.684 25.8759 225.378 26.3197 226.072C28.3278 229.191 30.8477 231.947 33.773 234.226C34.4663 234.733 35.0973 235.233 35.7351 235.614C36.0541 235.816 36.3522 236.031 36.6503 236.211L37.5239 236.732C38.0717 237.072 38.5986 237.322 39.0493 237.564C39.4999 237.807 39.9021 237.995 40.2349 238.14L40.9906 238.494L41.2471 238.689Z" fill="#F5F5F5"/>
<path d="M45.1505 211.644C44.8159 211.698 44.4732 211.669 44.1521 211.56C43.3533 211.346 42.6438 210.882 42.1276 210.235C41.6264 209.577 41.345 208.778 41.3233 207.952C41.2947 207.613 41.3494 207.272 41.4828 206.959C41.5244 206.959 41.4828 207.341 41.4828 207.938C41.5346 208.722 41.8208 209.472 42.3043 210.091C42.7878 210.709 43.4461 211.168 44.1937 211.408C44.79 211.574 45.1574 211.574 45.1505 211.644Z" fill="#F5F5F5"/>
<path d="M43.2785 200.928C43.23 200.97 42.8972 200.658 42.5366 200.234C42.1761 199.811 41.9265 199.429 41.975 199.381C42.0236 199.332 42.3564 199.651 42.7169 200.075C43.0774 200.498 43.327 200.88 43.2785 200.928Z" fill="#F5F5F5"/>
<path d="M37.205 188.672C37.0096 188.85 36.801 189.012 36.581 189.158C36.373 189.304 36.1234 189.484 35.846 189.713C35.5687 189.942 35.2428 190.185 34.91 190.49C34.5772 190.796 34.2167 191.115 33.8215 191.49C33.4263 191.865 33.0519 192.274 32.6428 192.711C31.7825 193.678 30.9902 194.703 30.2716 195.779C29.5687 196.867 28.9432 198.003 28.3996 199.179C28.1639 199.728 27.9282 200.248 27.7479 200.748C27.5676 201.247 27.4012 201.712 27.2626 202.136C27.1239 202.559 27.0268 202.962 26.9298 203.309C26.8327 203.656 26.7564 203.954 26.7079 204.204C26.6663 204.464 26.5989 204.72 26.5068 204.967C26.5229 204.703 26.56 204.441 26.6178 204.183C26.6603 203.879 26.7205 203.578 26.798 203.281C26.8812 202.927 26.9644 202.524 27.1031 202.087C27.2418 201.65 27.3735 201.171 27.5607 200.699C27.7479 200.227 27.9628 199.665 28.1986 199.11C28.7332 197.907 29.359 196.747 30.0706 195.64C30.7967 194.554 31.6008 193.521 32.4764 192.552C32.8924 192.121 33.2807 191.698 33.6828 191.337C34.085 190.976 34.4455 190.643 34.7991 190.359C35.1097 190.09 35.4337 189.838 35.7698 189.602C36.0116 189.412 36.2639 189.236 36.5255 189.075C36.7413 188.923 36.9685 188.789 37.205 188.672Z" fill="#F5F5F5"/>
<path d="M75.1927 230.229C75.0979 230.403 74.9839 230.566 74.853 230.715C74.6242 231.027 74.2706 231.45 73.813 231.964C72.5996 233.281 71.2413 234.457 69.7639 235.469C68.2856 236.477 66.6967 237.313 65.0285 237.96C64.3837 238.203 63.8567 238.376 63.4893 238.481C63.3021 238.551 63.1061 238.595 62.9069 238.612C63.0856 238.524 63.2711 238.45 63.4615 238.39C63.8221 238.265 64.3351 238.064 64.9661 237.8C68.2477 236.43 71.2156 234.404 73.6882 231.846C74.1597 231.353 74.5341 230.944 74.7837 230.659C74.9007 230.499 75.0382 230.354 75.1927 230.229Z" fill="#F5F5F5"/>
<path d="M77.0924 188.554L76.7319 188.166C76.4962 187.916 76.1703 187.513 75.6919 187.041C74.3238 185.627 72.8317 184.338 71.2338 183.19C70.0753 182.366 68.864 181.619 67.6076 180.955C66.1201 180.156 64.5686 179.483 62.9692 178.942C59.0652 177.606 54.9427 177.027 50.822 177.235C46.2095 177.492 41.7049 178.732 37.6097 180.872C33.5145 183.012 29.923 186.003 27.0754 189.644C26.1667 190.826 25.3352 192.067 24.5863 193.357C20.576 200.362 19.3389 208.62 21.1196 216.495C21.4806 218.132 21.9769 219.736 22.6034 221.29C25.181 227.738 29.7729 233.179 35.6935 236.801C36.3868 237.252 37.1634 237.648 37.9052 238.043C38.6471 238.439 39.4167 238.779 40.1932 239.084C41.7271 239.718 43.3081 240.231 44.9218 240.618C51.1066 242.11 57.5945 241.733 63.5655 239.535C64.964 239.014 66.326 238.4 67.6423 237.696C68.9211 237.009 70.1512 236.235 71.3239 235.378C73.5742 233.745 75.604 231.828 77.3628 229.674C80.5259 225.791 82.7408 221.224 83.8316 216.335C84.7219 212.304 84.8395 208.14 84.1783 204.065C83.6691 200.992 82.7236 198.008 81.3703 195.203C80.5077 193.432 79.4866 191.744 78.3196 190.157C77.9383 189.602 77.6263 189.22 77.3906 188.943L77.0716 188.526C77.0716 188.526 77.5431 189.054 78.3612 190.13C79.5482 191.705 80.5836 193.39 81.4535 195.161C82.0821 196.44 82.6241 197.759 83.0759 199.11C83.6222 200.718 84.035 202.368 84.31 204.044C84.9915 208.135 84.8856 212.319 83.998 216.37C82.9178 221.293 80.6973 225.892 77.5154 229.799C75.7513 231.97 73.7119 233.902 71.4487 235.545C70.2677 236.408 69.0308 237.191 67.7463 237.891C66.4202 238.598 65.049 239.217 63.6418 239.744C57.6301 241.962 51.096 242.346 44.8663 240.847C43.2487 240.467 41.6631 239.961 40.1239 239.334C39.3404 239.022 38.5847 238.64 37.8151 238.286C37.0455 237.932 36.3175 237.488 35.5895 237.03C29.6302 233.378 25.0095 227.896 22.4162 221.401C21.7802 219.827 21.2769 218.202 20.9116 216.543C19.1017 208.617 20.3393 200.3 24.3783 193.246C25.1366 191.948 25.9772 190.701 26.8951 189.512C29.5228 186.148 32.7826 183.33 36.4908 181.219C38.7598 179.927 41.1793 178.92 43.6946 178.221C46.0111 177.563 48.3959 177.177 50.8012 177.069C54.94 176.87 59.0788 177.461 62.997 178.81C64.6012 179.364 66.1572 180.049 67.6492 180.858C70.6549 182.452 73.3789 184.529 75.7127 187.007C76.6834 187.978 77.0924 188.554 77.0924 188.554Z" fill="#172833"/>
<path d="M358.801 178.72H418.101V167.942H358.801V178.72Z" fill="#6E18F3"/>
<path d="M412.291 178.797C412.423 178.797 412.534 176.402 412.534 173.453C412.534 170.503 412.423 168.102 412.291 168.102C412.16 168.102 412.042 170.496 412.042 173.453C412.042 176.409 412.153 178.797 412.291 178.797Z" fill="#172833"/>
<path d="M415.536 178.797C415.668 178.797 415.779 176.402 415.779 173.453C415.779 170.503 415.668 168.102 415.536 168.102C415.404 168.102 415.286 170.496 415.286 173.453C415.286 176.409 415.397 178.797 415.536 178.797Z" fill="#172833"/>
<path d="M405.164 178.797C405.303 178.797 405.414 176.402 405.414 173.453C405.414 170.503 405.303 168.102 405.164 168.102C405.025 168.102 404.914 170.496 404.914 173.453C404.914 176.409 405.025 178.797 405.164 178.797Z" fill="#172833"/>
<path d="M408.409 178.797C408.547 178.797 408.651 176.402 408.651 173.453C408.651 170.503 408.547 168.102 408.409 168.102C408.27 168.102 408.159 170.496 408.159 173.453C408.159 176.409 408.27 178.797 408.409 178.797Z" fill="#172833"/>
<path d="M398.036 178.797C398.175 178.797 398.286 176.402 398.286 173.453C398.286 170.503 398.175 168.102 398.036 168.102C397.898 168.102 397.794 170.496 397.794 173.453C397.794 176.409 397.905 178.797 398.036 178.797Z" fill="#172833"/>
<path d="M401.281 178.797C401.42 178.797 401.531 176.402 401.531 173.453C401.531 170.503 401.42 168.102 401.281 168.102C401.143 168.102 401.039 170.496 401.039 173.453C401.039 176.409 401.163 178.797 401.281 178.797Z" fill="#172833"/>
<path d="M390.916 178.797C391.048 178.797 391.159 176.402 391.159 173.453C391.159 170.503 391.048 168.102 390.916 168.102C390.784 168.102 390.666 170.496 390.666 173.453C390.666 176.409 390.763 178.797 390.916 178.797Z" fill="#172833"/>
<path d="M394.154 178.797C394.292 178.797 394.403 176.402 394.403 173.453C394.403 170.503 394.292 168.102 394.154 168.102C394.015 168.102 393.911 170.496 393.911 173.453C393.911 176.409 394.022 178.797 394.154 178.797Z" fill="#172833"/>
<path d="M383.788 178.797C383.92 178.797 384.031 176.402 384.031 173.453C384.031 170.503 383.92 168.102 383.788 168.102C383.657 168.102 383.539 170.496 383.539 173.453C383.539 176.409 383.65 178.797 383.788 178.797Z" fill="#172833"/>
<path d="M387.033 178.797C387.165 178.797 387.276 176.402 387.276 173.453C387.276 170.503 387.165 168.102 387.033 168.102C386.901 168.102 386.784 170.496 386.784 173.453C386.784 176.409 386.894 178.797 387.033 178.797Z" fill="#172833"/>
<path d="M376.661 178.797C376.8 178.797 376.911 176.402 376.911 173.453C376.911 170.503 376.8 168.102 376.661 168.102C376.522 168.102 376.411 170.496 376.411 173.453C376.411 176.409 376.522 178.797 376.661 178.797Z" fill="#172833"/>
<path d="M379.906 178.797C380.044 178.797 380.148 176.402 380.148 173.453C380.148 170.503 380.044 168.102 379.906 168.102C379.767 168.102 379.656 170.496 379.656 173.453C379.656 176.409 379.767 178.797 379.906 178.797Z" fill="#172833"/>
<path d="M369.533 178.797C369.672 178.797 369.783 176.402 369.783 173.453C369.783 170.503 369.672 168.102 369.533 168.102C369.395 168.102 369.291 170.496 369.291 173.453C369.291 176.409 369.402 178.797 369.533 178.797Z" fill="#172833"/>
<path d="M372.778 178.797C372.917 178.797 373.028 176.402 373.028 173.453C373.028 170.503 372.917 168.102 372.778 168.102C372.64 168.102 372.536 170.496 372.536 173.453C372.536 176.409 372.64 178.797 372.778 178.797Z" fill="#172833"/>
<path d="M362.413 178.797C362.545 178.797 362.656 176.402 362.656 173.453C362.656 170.503 362.545 168.102 362.413 168.102C362.281 168.102 362.163 170.496 362.163 173.453C362.163 176.409 362.274 178.797 362.413 178.797Z" fill="#172833"/>
<path d="M365.651 178.797C365.789 178.797 365.9 176.402 365.9 173.453C365.9 170.503 365.789 168.102 365.651 168.102C365.512 168.102 365.408 170.496 365.408 173.453C365.408 176.409 365.519 178.797 365.651 178.797Z" fill="#172833"/>
<path d="M358.794 167.942C358.794 168.081 372.133 168.192 388.607 168.192C405.081 168.192 418.42 168.081 418.42 167.942C418.42 167.804 405.081 167.693 388.607 167.693C372.133 167.693 358.794 167.804 358.794 167.942Z" fill="#172833"/>
<path d="M362.683 189.672H421.984V178.894H362.683V189.672Z" fill="#6E18F3"/>
<path d="M416.174 189.748C416.306 189.748 416.417 187.354 416.417 184.397C416.417 181.441 416.306 179.053 416.174 179.053C416.042 179.053 415.924 181.448 415.924 184.397C415.924 187.347 416.035 189.748 416.174 189.748Z" fill="#172833"/>
<path d="M419.419 189.748C419.551 189.748 419.661 187.354 419.661 184.397C419.661 181.441 419.551 179.053 419.419 179.053C419.287 179.053 419.169 181.448 419.169 184.397C419.169 187.347 419.28 189.748 419.419 189.748Z" fill="#172833"/>
<path d="M409.046 189.748C409.185 189.748 409.296 187.354 409.296 184.397C409.296 181.441 409.185 179.053 409.046 179.053C408.908 179.053 408.797 181.448 408.797 184.397C408.797 187.347 408.908 189.748 409.046 189.748Z" fill="#172833"/>
<path d="M412.291 189.748C412.423 189.748 412.534 187.354 412.534 184.397C412.534 181.441 412.423 179.053 412.291 179.053C412.16 179.053 412.042 181.448 412.042 184.397C412.042 187.347 412.153 189.748 412.291 189.748Z" fill="#172833"/>
<path d="M401.919 189.748C402.058 189.748 402.169 187.354 402.169 184.397C402.169 181.441 402.058 179.053 401.919 179.053C401.78 179.053 401.676 181.448 401.676 184.397C401.676 187.347 401.787 189.748 401.919 189.748Z" fill="#172833"/>
<path d="M405.164 189.748C405.303 189.748 405.414 187.354 405.414 184.397C405.414 181.441 405.303 179.053 405.164 179.053C405.025 179.053 404.914 181.448 404.914 184.397C404.914 187.347 405.025 189.748 405.164 189.748Z" fill="#172833"/>
<path d="M394.792 189.748C394.93 189.748 395.041 187.354 395.041 184.397C395.041 181.441 394.93 179.053 394.792 179.053C394.653 179.053 394.549 181.448 394.549 184.397C394.549 187.347 394.66 189.748 394.792 189.748Z" fill="#172833"/>
<path d="M398.036 189.748C398.175 189.748 398.286 187.354 398.286 184.397C398.286 181.441 398.175 179.053 398.036 179.053C397.898 179.053 397.794 181.448 397.794 184.397C397.794 187.347 397.905 189.748 398.036 189.748Z" fill="#172833"/>
<path d="M387.671 189.748C387.803 189.748 387.914 187.354 387.914 184.397C387.914 181.441 387.803 179.053 387.671 179.053C387.539 179.053 387.421 181.448 387.421 184.397C387.421 187.347 387.532 189.748 387.671 189.748Z" fill="#172833"/>
<path d="M390.916 189.748C391.048 189.748 391.159 187.354 391.159 184.397C391.159 181.441 391.048 179.053 390.916 179.053C390.784 179.053 390.666 181.448 390.666 184.397C390.666 187.347 390.763 189.748 390.916 189.748Z" fill="#172833"/>
<path d="M380.544 189.748C380.682 189.748 380.793 187.354 380.793 184.397C380.793 181.441 380.682 179.053 380.544 179.053C380.405 179.053 380.294 181.448 380.294 184.397C380.294 187.347 380.405 189.748 380.544 189.748Z" fill="#172833"/>
<path d="M383.788 189.748C383.92 189.748 384.031 187.354 384.031 184.397C384.031 181.441 383.92 179.053 383.788 179.053C383.657 179.053 383.539 181.448 383.539 184.397C383.539 187.347 383.65 189.748 383.788 189.748Z" fill="#172833"/>
<path d="M373.43 189.748C373.569 189.748 373.68 187.354 373.68 184.397C373.68 181.441 373.569 179.053 373.43 179.053C373.291 179.053 373.187 181.448 373.187 184.397C373.187 187.347 373.284 189.748 373.43 189.748Z" fill="#172833"/>
<path d="M376.661 189.748C376.8 189.748 376.911 187.354 376.911 184.397C376.911 181.441 376.8 179.053 376.661 179.053C376.522 179.053 376.411 181.448 376.411 184.397C376.411 187.347 376.522 189.748 376.661 189.748Z" fill="#172833"/>
<path d="M366.289 189.748C366.427 189.748 366.538 187.354 366.538 184.397C366.538 181.441 366.427 179.053 366.289 179.053C366.15 179.053 366.046 181.448 366.046 184.397C366.046 187.347 366.157 189.748 366.289 189.748Z" fill="#172833"/>
<path d="M369.533 189.748C369.672 189.748 369.783 187.354 369.783 184.397C369.783 181.441 369.672 179.053 369.533 179.053C369.395 179.053 369.291 181.448 369.291 184.397C369.291 187.347 369.402 189.748 369.533 189.748Z" fill="#172833"/>
<path d="M362.676 178.894C362.676 179.026 376.016 179.137 392.49 179.137C408.963 179.137 422.303 179.026 422.303 178.894C422.303 178.762 408.963 178.644 392.49 178.644C376.016 178.644 362.676 178.755 362.676 178.894Z" fill="#172833"/>
<path d="M357.837 200.526H417.138V189.748H357.837V200.526Z" fill="#6E18F3"/>
<path d="M411.328 200.602C411.459 200.602 411.57 198.208 411.57 195.251C411.57 192.295 411.459 189.908 411.328 189.908C411.196 189.908 411.078 192.302 411.078 195.251C411.078 198.201 411.189 200.602 411.328 200.602Z" fill="#172833"/>
<path d="M414.572 200.602C414.704 200.602 414.815 198.208 414.815 195.251C414.815 192.295 414.704 189.908 414.572 189.908C414.441 189.908 414.323 192.302 414.323 195.251C414.323 198.201 414.434 200.602 414.572 200.602Z" fill="#172833"/>
<path d="M404.2 200.602C404.339 200.602 404.45 198.208 404.45 195.251C404.45 192.295 404.339 189.908 404.2 189.908C404.061 189.908 403.951 192.302 403.951 195.251C403.951 198.201 404.061 200.602 404.2 200.602Z" fill="#172833"/>
<path d="M407.445 200.602C407.577 200.602 407.688 198.208 407.688 195.251C407.688 192.295 407.577 189.908 407.445 189.908C407.313 189.908 407.195 192.302 407.195 195.251C407.195 198.201 407.306 200.602 407.445 200.602Z" fill="#172833"/>
<path d="M397.073 200.602C397.211 200.602 397.322 198.208 397.322 195.251C397.322 192.295 397.211 189.908 397.073 189.908C396.934 189.908 396.83 192.302 396.83 195.251C396.83 198.201 396.941 200.602 397.073 200.602Z" fill="#172833"/>
<path d="M400.318 200.602C400.456 200.602 400.567 198.208 400.567 195.251C400.567 192.295 400.456 189.908 400.318 189.908C400.179 189.908 400.068 192.302 400.068 195.251C400.068 198.201 400.179 200.602 400.318 200.602Z" fill="#172833"/>
<path d="M389.945 200.602C390.084 200.602 390.195 198.208 390.195 195.251C390.195 192.295 390.084 189.908 389.945 189.908C389.807 189.908 389.703 192.302 389.703 195.251C389.703 198.201 389.813 200.602 389.945 200.602Z" fill="#172833"/>
<path d="M393.19 200.602C393.329 200.602 393.44 198.208 393.44 195.251C393.44 192.295 393.329 189.908 393.19 189.908C393.051 189.908 392.947 192.302 392.947 195.251C392.947 198.201 393.058 200.602 393.19 200.602Z" fill="#172833"/>
<path d="M382.825 200.602C382.956 200.602 383.067 198.208 383.067 195.251C383.067 192.295 382.956 189.908 382.825 189.908C382.693 189.908 382.575 192.302 382.575 195.251C382.575 198.201 382.686 200.602 382.825 200.602Z" fill="#172833"/>
<path d="M386.069 200.602C386.201 200.602 386.312 198.208 386.312 195.251C386.312 192.295 386.201 189.908 386.069 189.908C385.938 189.908 385.82 192.302 385.82 195.251C385.82 198.201 385.91 200.602 386.069 200.602Z" fill="#172833"/>
<path d="M375.697 200.602C375.836 200.602 375.947 198.208 375.947 195.251C375.947 192.295 375.836 189.908 375.697 189.908C375.558 189.908 375.448 192.302 375.448 195.251C375.448 198.201 375.558 200.602 375.697 200.602Z" fill="#172833"/>
<path d="M378.977 200.602C379.108 200.602 379.219 198.208 379.219 195.251C379.219 192.295 379.108 189.908 378.977 189.908C378.845 189.908 378.727 192.302 378.727 195.251C378.727 198.201 378.803 200.602 378.977 200.602Z" fill="#172833"/>
<path d="M368.577 200.602C368.715 200.602 368.826 198.208 368.826 195.251C368.826 192.295 368.715 189.908 368.577 189.908C368.438 189.908 368.334 192.302 368.334 195.251C368.334 198.201 368.438 200.602 368.577 200.602Z" fill="#172833"/>
<path d="M371.815 200.602C371.953 200.602 372.064 198.208 372.064 195.251C372.064 192.295 371.953 189.908 371.815 189.908C371.676 189.908 371.565 192.302 371.565 195.251C371.565 198.201 371.676 200.602 371.815 200.602Z" fill="#172833"/>
<path d="M361.442 200.602C361.581 200.602 361.692 198.208 361.692 195.251C361.692 192.295 361.581 189.908 361.442 189.908C361.304 189.908 361.2 192.302 361.2 195.251C361.2 198.201 361.311 200.602 361.442 200.602Z" fill="#172833"/>
<path d="M364.687 200.602C364.826 200.602 364.937 198.208 364.937 195.251C364.937 192.295 364.826 189.908 364.687 189.908C364.548 189.908 364.444 192.302 364.444 195.251C364.444 198.201 364.555 200.602 364.687 200.602Z" fill="#172833"/>
<path d="M357.83 189.748C357.83 189.88 371.204 189.991 387.692 189.991C404.179 189.991 417.554 189.88 417.554 189.748C417.554 189.616 404.186 189.498 387.692 189.498C371.197 189.498 357.83 189.609 357.83 189.748Z" fill="#172833"/>
<path d="M362.482 211.22H421.783V200.442H362.482V211.22Z" fill="#6E18F3"/>
<path d="M415.973 211.297C416.112 211.297 416.222 208.902 416.222 205.946C416.222 202.989 416.112 200.602 415.973 200.602C415.834 200.602 415.73 202.996 415.73 205.946C415.73 208.895 415.841 211.297 415.973 211.297Z" fill="#172833"/>
<path d="M419.19 211.297C419.329 211.297 419.44 208.902 419.44 205.946C419.44 202.989 419.329 200.602 419.19 200.602C419.051 200.602 418.94 202.996 418.94 205.946C418.94 208.895 419.079 211.297 419.19 211.297Z" fill="#172833"/>
<path d="M408.845 211.297C408.984 211.297 409.095 208.902 409.095 205.946C409.095 202.989 408.984 200.602 408.845 200.602C408.707 200.602 408.603 202.996 408.603 205.946C408.603 208.895 408.714 211.297 408.845 211.297Z" fill="#172833"/>
<path d="M412.09 211.297C412.229 211.297 412.34 208.902 412.34 205.946C412.34 202.989 412.229 200.602 412.09 200.602C411.952 200.602 411.848 202.996 411.848 205.946C411.848 208.895 411.958 211.297 412.09 211.297Z" fill="#172833"/>
<path d="M401.725 211.297C401.857 211.297 401.968 208.902 401.968 205.946C401.968 202.989 401.857 200.602 401.725 200.602C401.593 200.602 401.475 202.996 401.475 205.946C401.475 208.895 401.586 211.297 401.725 211.297Z" fill="#172833"/>
<path d="M404.97 211.297C405.101 211.297 405.212 208.902 405.212 205.946C405.212 202.989 405.101 200.602 404.97 200.602C404.838 200.602 404.72 202.996 404.72 205.946C404.72 208.895 404.831 211.297 404.97 211.297Z" fill="#172833"/>
<path d="M394.598 211.297C394.736 211.297 394.847 208.902 394.847 205.946C394.847 202.989 394.736 200.602 394.598 200.602C394.459 200.602 394.348 202.996 394.348 205.946C394.348 208.895 394.459 211.297 394.598 211.297Z" fill="#172833"/>
<path d="M397.842 211.297C397.974 211.297 398.085 208.902 398.085 205.946C398.085 202.989 397.974 200.602 397.842 200.602C397.711 200.602 397.593 202.996 397.593 205.946C397.593 208.895 397.697 211.297 397.842 211.297Z" fill="#172833"/>
<path d="M387.47 211.297C387.609 211.297 387.72 208.902 387.72 205.946C387.72 202.989 387.609 200.602 387.47 200.602C387.331 200.602 387.227 202.996 387.227 205.946C387.227 208.895 387.338 211.297 387.47 211.297Z" fill="#172833"/>
<path d="M390.715 211.297C390.853 211.297 390.964 208.902 390.964 205.946C390.964 202.989 390.853 200.602 390.715 200.602C390.576 200.602 390.465 202.996 390.465 205.946C390.465 208.895 390.576 211.297 390.715 211.297Z" fill="#172833"/>
<path d="M380.363 211.297C380.502 211.297 380.613 208.902 380.613 205.946C380.613 202.989 380.502 200.602 380.363 200.602C380.225 200.602 380.121 202.996 380.121 205.946C380.121 208.895 380.211 211.297 380.363 211.297Z" fill="#172833"/>
<path d="M383.587 211.297C383.726 211.297 383.837 208.902 383.837 205.946C383.837 202.989 383.726 200.602 383.587 200.602C383.449 200.602 383.345 202.996 383.345 205.946C383.345 208.895 383.456 211.297 383.587 211.297Z" fill="#172833"/>
<path d="M373.222 211.297C373.354 211.297 373.465 208.902 373.465 205.946C373.465 202.989 373.354 200.602 373.222 200.602C373.09 200.602 372.972 202.996 372.972 205.946C372.972 208.895 373.083 211.297 373.222 211.297Z" fill="#172833"/>
<path d="M376.467 211.297C376.598 211.297 376.709 208.902 376.709 205.946C376.709 202.989 376.598 200.602 376.467 200.602C376.335 200.602 376.217 202.996 376.217 205.946C376.217 208.895 376.328 211.297 376.467 211.297Z" fill="#172833"/>
<path d="M366.095 211.297C366.233 211.297 366.344 208.902 366.344 205.946C366.344 202.989 366.233 200.602 366.095 200.602C365.956 200.602 365.845 202.996 365.845 205.946C365.845 208.895 365.956 211.297 366.095 211.297Z" fill="#172833"/>
<path d="M369.339 211.297C369.471 211.297 369.582 208.902 369.582 205.946C369.582 202.989 369.471 200.602 369.339 200.602C369.208 200.602 369.09 202.996 369.09 205.946C369.09 208.895 369.201 211.297 369.339 211.297Z" fill="#172833"/>
<path d="M362.482 200.47C362.482 200.602 375.822 200.713 392.296 200.713C408.769 200.713 422.109 200.602 422.109 200.47C422.109 200.338 408.776 200.22 392.296 200.22C375.815 200.22 362.482 200.304 362.482 200.47Z" fill="#172833"/>
<path d="M356.54 222.158H415.841V211.38H356.54V222.158Z" fill="#6E18F3"/>
<path d="M410.031 222.227C410.17 222.227 410.281 219.833 410.281 216.883C410.281 213.934 410.17 211.533 410.031 211.533C409.892 211.533 409.781 213.927 409.781 216.883C409.781 219.84 409.892 222.227 410.031 222.227Z" fill="#172833"/>
<path d="M413.276 222.227C413.408 222.227 413.519 219.833 413.519 216.883C413.519 213.934 413.408 211.533 413.276 211.533C413.144 211.533 413.026 213.927 413.026 216.883C413.026 219.84 413.137 222.227 413.276 222.227Z" fill="#172833"/>
<path d="M402.904 222.227C403.042 222.227 403.153 219.833 403.153 216.883C403.153 213.934 403.042 211.533 402.904 211.533C402.765 211.533 402.661 213.927 402.661 216.883C402.661 219.84 402.772 222.227 402.904 222.227Z" fill="#172833"/>
<path d="M406.148 222.227C406.287 222.227 406.398 219.833 406.398 216.883C406.398 213.934 406.287 211.533 406.148 211.533C406.01 211.533 405.899 213.927 405.899 216.883C405.899 219.84 406.017 222.227 406.148 222.227Z" fill="#172833"/>
<path d="M395.776 222.227C395.915 222.227 396.026 219.833 396.026 216.883C396.026 213.934 395.915 211.533 395.776 211.533C395.637 211.533 395.533 213.927 395.533 216.883C395.533 219.84 395.617 222.227 395.776 222.227Z" fill="#172833"/>
<path d="M399.021 222.227C399.16 222.227 399.271 219.833 399.271 216.883C399.271 213.934 399.16 211.533 399.021 211.533C398.882 211.533 398.778 213.927 398.778 216.883C398.778 219.84 398.889 222.227 399.021 222.227Z" fill="#172833"/>
<path d="M388.683 222.227C388.815 222.227 388.926 219.833 388.926 216.883C388.926 213.934 388.815 211.533 388.683 211.533C388.552 211.533 388.434 213.927 388.434 216.883C388.434 219.84 388.517 222.227 388.683 222.227Z" fill="#172833"/>
<path d="M391.9 222.227C392.032 222.227 392.143 219.833 392.143 216.883C392.143 213.934 392.032 211.533 391.9 211.533C391.769 211.533 391.651 213.927 391.651 216.883C391.651 219.84 391.762 222.227 391.9 222.227Z" fill="#172833"/>
<path d="M381.528 222.227C381.667 222.227 381.778 219.833 381.778 216.883C381.778 213.934 381.667 211.533 381.528 211.533C381.389 211.533 381.279 213.927 381.279 216.883C381.279 219.84 381.389 222.227 381.528 222.227Z" fill="#172833"/>
<path d="M384.773 222.227C384.912 222.227 385.016 219.833 385.016 216.883C385.016 213.934 384.912 211.533 384.773 211.533C384.634 211.533 384.523 213.927 384.523 216.883C384.523 219.84 384.634 222.227 384.773 222.227Z" fill="#172833"/>
<path d="M374.401 222.227C374.539 222.227 374.65 219.833 374.65 216.883C374.65 213.934 374.539 211.533 374.401 211.533C374.262 211.533 374.158 213.927 374.158 216.883C374.158 219.84 374.269 222.227 374.401 222.227Z" fill="#172833"/>
<path d="M377.646 222.227C377.784 222.227 377.895 219.833 377.895 216.883C377.895 213.934 377.784 211.533 377.646 211.533C377.507 211.533 377.396 213.927 377.396 216.883C377.396 219.84 377.507 222.227 377.646 222.227Z" fill="#172833"/>
<path d="M367.273 222.227C367.412 222.227 367.523 219.833 367.523 216.883C367.523 213.934 367.412 211.533 367.273 211.533C367.135 211.533 367.031 213.927 367.031 216.883C367.031 219.84 367.141 222.227 367.273 222.227Z" fill="#172833"/>
<path d="M370.518 222.227C370.657 222.227 370.768 219.833 370.768 216.883C370.768 213.934 370.657 211.533 370.518 211.533C370.379 211.533 370.275 213.927 370.275 216.883C370.275 219.84 370.386 222.227 370.518 222.227Z" fill="#172833"/>
<path d="M360.153 222.227C360.284 222.227 360.395 219.833 360.395 216.883C360.395 213.934 360.284 211.533 360.153 211.533C360.021 211.533 359.903 213.927 359.903 216.883C359.903 219.84 360.014 222.227 360.153 222.227Z" fill="#172833"/>
<path d="M363.397 222.227C363.529 222.227 363.64 219.833 363.64 216.883C363.64 213.934 363.529 211.533 363.397 211.533C363.266 211.533 363.148 213.927 363.148 216.883C363.148 219.84 363.259 222.227 363.397 222.227Z" fill="#172833"/>
<path d="M356.54 211.373C356.54 211.512 369.873 211.623 386.354 211.623C402.834 211.623 416.167 211.512 416.167 211.373C416.167 211.234 402.827 211.13 386.354 211.13C369.88 211.13 356.54 211.241 356.54 211.373Z" fill="#172833"/>
<path d="M360.257 233.06H419.557V222.283H360.257V233.06Z" fill="#6E18F3"/>
<path d="M413.747 233.13C413.886 233.13 413.997 230.736 413.997 227.786C413.997 224.837 413.886 222.435 413.747 222.435C413.609 222.435 413.505 224.83 413.505 227.786C413.505 230.742 413.643 233.13 413.747 233.13Z" fill="#172833"/>
<path d="M416.992 233.13C417.131 233.13 417.242 230.736 417.242 227.786C417.242 224.837 417.131 222.435 416.992 222.435C416.854 222.435 416.75 224.83 416.75 227.786C416.75 230.742 416.854 233.13 416.992 233.13Z" fill="#172833"/>
<path d="M406.627 233.13C406.759 233.13 406.869 230.736 406.869 227.786C406.869 224.837 406.759 222.435 406.627 222.435C406.495 222.435 406.377 224.83 406.377 227.786C406.377 230.742 406.488 233.13 406.627 233.13Z" fill="#172833"/>
<path d="M409.865 233.13C410.003 233.13 410.114 230.736 410.114 227.786C410.114 224.837 410.003 222.435 409.865 222.435C409.726 222.435 409.622 224.83 409.622 227.786C409.622 230.742 409.733 233.13 409.865 233.13Z" fill="#172833"/>
<path d="M399.499 233.13C399.631 233.13 399.742 230.736 399.742 227.786C399.742 224.837 399.631 222.435 399.499 222.435C399.368 222.435 399.25 224.83 399.25 227.786C399.25 230.742 399.361 233.13 399.499 233.13Z" fill="#172833"/>
<path d="M402.744 233.13C402.876 233.13 402.987 230.736 402.987 227.786C402.987 224.837 402.876 222.435 402.744 222.435C402.612 222.435 402.495 224.83 402.495 227.786C402.495 230.742 402.605 233.13 402.744 233.13Z" fill="#172833"/>
<path d="M392.372 233.13C392.511 233.13 392.621 230.736 392.621 227.786C392.621 224.837 392.511 222.435 392.372 222.435C392.233 222.435 392.122 224.83 392.122 227.786C392.122 230.742 392.233 233.13 392.372 233.13Z" fill="#172833"/>
<path d="M395.617 233.13C395.755 233.13 395.866 230.736 395.866 227.786C395.866 224.837 395.755 222.435 395.617 222.435C395.478 222.435 395.367 224.83 395.367 227.786C395.367 230.742 395.478 233.13 395.617 233.13Z" fill="#172833"/>
<path d="M385.217 233.13C385.355 233.13 385.466 230.736 385.466 227.786C385.466 224.837 385.355 222.435 385.217 222.435C385.078 222.435 384.974 224.83 384.974 227.786C384.974 230.742 385.113 233.13 385.217 233.13Z" fill="#172833"/>
<path d="M388.489 233.13C388.628 233.13 388.739 230.736 388.739 227.786C388.739 224.837 388.628 222.435 388.489 222.435C388.351 222.435 388.247 224.83 388.247 227.786C388.247 230.742 388.357 233.13 388.489 233.13Z" fill="#172833"/>
<path d="M378.124 233.13C378.256 233.13 378.367 230.736 378.367 227.786C378.367 224.837 378.256 222.435 378.124 222.435C377.992 222.435 377.874 224.83 377.874 227.786C377.874 230.742 377.985 233.13 378.124 233.13Z" fill="#172833"/>
<path d="M381.362 233.13C381.5 233.13 381.611 230.736 381.611 227.786C381.611 224.837 381.5 222.435 381.362 222.435C381.223 222.435 381.119 224.83 381.119 227.786C381.119 230.742 381.23 233.13 381.362 233.13Z" fill="#172833"/>
<path d="M370.996 233.13C371.128 233.13 371.239 230.736 371.239 227.786C371.239 224.837 371.128 222.435 370.996 222.435C370.865 222.435 370.747 224.83 370.747 227.786C370.747 230.742 370.858 233.13 370.996 233.13Z" fill="#172833"/>
<path d="M374.241 233.13C374.373 233.13 374.484 230.736 374.484 227.786C374.484 224.837 374.373 222.435 374.241 222.435C374.109 222.435 373.992 224.83 373.992 227.786C373.992 230.742 374.123 233.13 374.241 233.13Z" fill="#172833"/>
<path d="M363.869 233.13C364.008 233.13 364.119 230.736 364.119 227.786C364.119 224.837 364.008 222.435 363.869 222.435C363.73 222.435 363.619 224.83 363.619 227.786C363.619 230.742 363.723 233.13 363.869 233.13Z" fill="#172833"/>
<path d="M367.114 233.13C367.252 233.13 367.363 230.736 367.363 227.786C367.363 224.837 367.252 222.435 367.114 222.435C366.975 222.435 366.864 224.83 366.864 227.786C366.864 230.742 366.975 233.13 367.114 233.13Z" fill="#172833"/>
<path d="M360.257 222.276C360.257 222.414 373.624 222.526 390.118 222.526C406.613 222.526 419.98 222.414 419.98 222.276C419.98 222.137 406.613 222.033 390.118 222.033C373.624 222.033 360.257 222.144 360.257 222.276Z" fill="#172833"/>
<path d="M364.909 243.755H424.21V232.977H364.909V243.755Z" fill="#6E18F3"/>
<path d="M418.4 243.824C418.531 243.824 418.642 241.43 418.642 238.481C418.642 235.531 418.531 233.13 418.4 233.13C418.268 233.13 418.15 235.524 418.15 238.481C418.15 241.437 418.261 243.824 418.4 243.824Z" fill="#172833"/>
<path d="M421.644 243.824C421.776 243.824 421.887 241.43 421.887 238.481C421.887 235.531 421.776 233.13 421.644 233.13C421.513 233.13 421.395 235.524 421.395 238.481C421.395 241.437 421.506 243.824 421.644 243.824Z" fill="#172833"/>
<path d="M411.272 243.824C411.411 243.824 411.522 241.43 411.522 238.481C411.522 235.531 411.411 233.13 411.272 233.13C411.133 233.13 411.022 235.524 411.022 238.481C411.022 241.437 411.133 243.824 411.272 243.824Z" fill="#172833"/>
<path d="M414.517 243.824C414.656 243.824 414.767 241.43 414.767 238.481C414.767 235.531 414.656 233.13 414.517 233.13C414.378 233.13 414.267 235.524 414.267 238.481C414.267 241.437 414.378 243.824 414.517 243.824Z" fill="#172833"/>
<path d="M404.145 243.824C404.283 243.824 404.394 241.43 404.394 238.481C404.394 235.531 404.283 233.13 404.145 233.13C404.006 233.13 403.902 235.524 403.902 238.481C403.902 241.437 404.013 243.824 404.145 243.824Z" fill="#172833"/>
<path d="M407.403 243.824C407.542 243.824 407.653 241.43 407.653 238.481C407.653 235.531 407.542 233.13 407.403 233.13C407.265 233.13 407.161 235.524 407.161 238.481C407.161 241.437 407.251 243.824 407.403 243.824Z" fill="#172833"/>
<path d="M397.003 243.824C397.135 243.824 397.246 241.43 397.246 238.481C397.246 235.531 397.135 233.13 397.003 233.13C396.872 233.13 396.754 235.524 396.754 238.481C396.754 241.437 396.885 243.824 397.003 243.824Z" fill="#172833"/>
<path d="M400.262 243.824C400.401 243.824 400.512 241.43 400.512 238.481C400.512 235.531 400.401 233.13 400.262 233.13C400.123 233.13 400.019 235.524 400.019 238.481C400.019 241.437 400.13 243.824 400.262 243.824Z" fill="#172833"/>
<path d="M389.897 243.824C390.028 243.824 390.139 241.43 390.139 238.481C390.139 235.531 390.028 233.13 389.897 233.13C389.765 233.13 389.647 235.524 389.647 238.481C389.647 241.437 389.758 243.824 389.897 243.824Z" fill="#172833"/>
<path d="M393.141 243.824C393.273 243.824 393.384 241.43 393.384 238.481C393.384 235.531 393.273 233.13 393.141 233.13C393.01 233.13 392.892 235.524 392.892 238.481C392.892 241.437 393.003 243.824 393.141 243.824Z" fill="#172833"/>
<path d="M382.769 243.824C382.908 243.824 383.019 241.43 383.019 238.481C383.019 235.531 382.908 233.13 382.769 233.13C382.63 233.13 382.52 235.524 382.52 238.481C382.52 241.437 382.63 243.824 382.769 243.824Z" fill="#172833"/>
<path d="M386.014 243.824C386.153 243.824 386.264 241.43 386.264 238.481C386.264 235.531 386.153 233.13 386.014 233.13C385.875 233.13 385.764 235.524 385.764 238.481C385.764 241.437 385.91 243.824 386.014 243.824Z" fill="#172833"/>
<path d="M375.642 243.824C375.78 243.824 375.891 241.43 375.891 238.481C375.891 235.531 375.78 233.13 375.642 233.13C375.503 233.13 375.399 235.524 375.399 238.481C375.399 241.437 375.51 243.824 375.642 243.824Z" fill="#172833"/>
<path d="M378.886 243.824C379.025 243.824 379.136 241.43 379.136 238.481C379.136 235.531 379.025 233.13 378.886 233.13C378.748 233.13 378.644 235.524 378.644 238.481C378.644 241.437 378.755 243.824 378.886 243.824Z" fill="#172833"/>
<path d="M368.521 243.824C368.653 243.824 368.764 241.43 368.764 238.481C368.764 235.531 368.653 233.13 368.521 233.13C368.389 233.13 368.272 235.524 368.272 238.481C368.272 241.437 368.383 243.824 368.521 243.824Z" fill="#172833"/>
<path d="M371.759 243.824C371.898 243.824 372.009 241.43 372.009 238.481C372.009 235.531 371.898 233.13 371.759 233.13C371.62 233.13 371.516 235.524 371.516 238.481C371.516 241.437 371.627 243.824 371.759 243.824Z" fill="#172833"/>
<path d="M364.909 232.97C364.909 233.109 378.242 233.22 394.722 233.22C411.203 233.22 424.536 233.109 424.536 232.97C424.536 232.831 411.196 232.727 394.722 232.727C378.249 232.727 364.909 232.838 364.909 232.97Z" fill="#172833"/>
<g opacity="0.3">
<path d="M417.11 189.748C408.249 191.927 398.813 192.343 389.716 191.74C380.62 191.136 371.426 189.796 362.302 189.907L417.11 189.748Z" fill="#172833"/>
</g>
<g opacity="0.3">
<path d="M416.604 179.019C407.743 181.198 398.307 181.614 389.21 181.01C380.114 180.407 370.92 179.067 361.796 179.178L416.604 179.019Z" fill="#172833"/>
</g>
<g opacity="0.3">
<path d="M413.734 200.547C404.873 202.726 395.436 203.149 386.333 202.545C377.23 201.941 368.043 200.595 358.926 200.706L413.734 200.547Z" fill="#172833"/>
</g>
<g opacity="0.3">
<path d="M416.056 211.31C407.202 213.49 397.759 213.913 388.662 213.302C379.566 212.692 370.372 211.359 361.248 211.47L416.056 211.31Z" fill="#172833"/>
</g>
<g opacity="0.3">
<path d="M415.349 222.026C406.495 224.205 397.059 224.628 387.955 224.025C378.852 223.421 369.665 222.074 360.548 222.185L415.349 222.026Z" fill="#172833"/>
</g>
<g opacity="0.3">
<path d="M418.247 232.949C409.393 235.129 399.95 235.552 390.854 234.948C381.757 234.344 372.563 233.005 363.446 233.109L418.247 232.949Z" fill="#172833"/>
</g>
<path d="M417.013 175.313C417.152 175.313 417.262 173.994 417.262 172.363C417.262 170.732 417.152 169.414 417.013 169.414C416.874 169.414 416.763 170.732 416.763 172.363C416.763 173.994 416.874 175.313 417.013 175.313Z" fill="#F5F5F5"/>
<path d="M420.75 186.833C420.889 186.833 421 185.445 421 183.668C421 181.892 420.889 180.497 420.75 180.497C420.611 180.497 420.507 181.885 420.507 183.668C420.507 185.452 420.618 186.833 420.75 186.833Z" fill="#F5F5F5"/>
<path d="M415.432 197.923C415.571 197.923 415.675 196.66 415.675 195.112C415.675 193.565 415.571 192.336 415.432 192.336C415.293 192.336 415.182 193.6 415.182 195.112C415.182 196.625 415.293 197.923 415.432 197.923Z" fill="#F5F5F5"/>
<path d="M420.896 208.139C421.034 208.139 421.145 207.015 421.145 205.62C421.145 204.225 421.034 203.1 420.896 203.1C420.757 203.1 420.653 204.232 420.653 205.62C420.653 207.008 420.764 208.139 420.896 208.139Z" fill="#F5F5F5"/>
<path d="M399.18 179.782C399.18 179.914 403.555 180.025 408.956 180.025C414.357 180.025 418.739 179.914 418.739 179.782C418.739 179.65 414.364 179.532 408.956 179.532C403.548 179.532 399.18 179.65 399.18 179.782Z" fill="#F5F5F5"/>
<path d="M392.843 169.414C392.843 169.553 397.253 169.657 402.696 169.657C408.138 169.657 412.548 169.553 412.548 169.414C412.548 169.275 408.138 169.164 402.696 169.164C397.253 169.164 392.843 169.275 392.843 169.414Z" fill="#F5F5F5"/>
<path d="M383.359 169.559C383.359 169.691 384.808 169.802 386.589 169.802C388.371 169.802 389.827 169.691 389.827 169.559C389.827 169.428 388.378 169.31 386.589 169.31C384.801 169.31 383.359 169.421 383.359 169.559Z" fill="#F5F5F5"/>
<path d="M415.03 221.769C415.27 219.026 415.27 216.267 415.03 213.524C414.78 216.267 414.78 219.027 415.03 221.769Z" fill="#F5F5F5"/>
<path d="M369.963 210.103C369.963 210.2 380.745 210.283 394.05 210.283C407.355 210.283 418.136 210.2 418.136 210.103C418.136 210.006 407.355 209.922 394.05 209.922C380.745 209.922 369.963 209.999 369.963 210.103Z" fill="#F5F5F5"/>
<path d="M379.573 231.874C379.573 231.978 388.094 232.061 398.605 232.061C409.116 232.061 417.644 231.978 417.644 231.874C417.644 231.77 409.116 231.693 398.605 231.693C388.094 231.693 379.573 231.777 379.573 231.874Z" fill="#F5F5F5"/>
<path d="M423.392 241.673C423.632 240.128 423.632 238.555 423.392 237.009C423.151 238.555 423.151 240.128 423.392 241.673Z" fill="#F5F5F5"/>
<path d="M381.438 242.61C381.438 242.707 390.271 242.79 401.17 242.79C412.069 242.79 420.903 242.707 420.903 242.61C420.903 242.513 412.069 242.429 401.17 242.429C390.271 242.429 381.438 242.506 381.438 242.61Z" fill="#F5F5F5"/>
<path d="M424.21 243.755C424.218 243.69 424.218 243.625 424.21 243.561C424.21 243.401 424.21 243.214 424.21 242.985C424.21 242.45 424.21 241.722 424.251 240.805C424.251 238.883 424.251 236.176 424.307 232.873V232.727H424.161H419.932L420.091 232.887C420.091 229.646 420.091 225.996 420.091 222.123V221.984H415.987L416.167 222.172C416.167 218.264 416.167 214.538 416.167 211.234L416.001 211.401H421.728H421.963V211.262C421.963 207.986 421.915 205.3 421.901 203.392C421.901 202.49 421.901 201.768 421.859 201.241C421.859 201.011 421.859 200.824 421.859 200.671C421.883 200.666 421.903 200.653 421.917 200.633C421.931 200.614 421.938 200.59 421.935 200.566C421.932 200.542 421.921 200.52 421.903 200.504C421.886 200.488 421.862 200.479 421.839 200.479C421.815 200.479 421.792 200.488 421.774 200.504C421.756 200.52 421.745 200.542 421.742 200.566C421.739 200.59 421.746 200.614 421.76 200.633C421.774 200.653 421.794 200.666 421.818 200.671C421.818 200.824 421.818 201.011 421.818 201.241C421.818 201.768 421.818 202.49 421.818 203.392C421.818 205.3 421.818 207.986 421.755 211.262L421.894 211.123H416.167H416.001V211.29C416.001 214.621 416.001 218.32 416.001 222.227V222.408H420.105L419.925 222.227C419.925 226.1 419.925 229.75 419.925 232.991V233.088H420.084L424.314 233.026L424.175 232.88C424.175 236.183 424.217 238.89 424.231 240.812C424.231 241.728 424.231 242.457 424.272 242.992C424.272 243.221 424.272 243.408 424.272 243.568C424.243 243.627 424.222 243.69 424.21 243.755Z" fill="#172833"/>
<path d="M461.907 95.253C460.326 94.5218 458.904 93.4857 457.723 92.2041C456.543 90.9224 455.626 89.4203 455.026 87.7837C454.426 86.1472 454.154 84.4082 454.226 82.6663C454.298 80.9244 454.712 79.2138 455.445 77.6324C456.175 76.0515 457.21 74.6302 458.489 73.4495C459.769 72.2689 461.268 71.3521 462.901 70.7514C464.535 70.1508 466.27 69.8781 468.009 69.949C469.748 70.0198 471.455 70.4328 473.035 71.1643C474.615 71.895 476.037 72.9303 477.218 74.211C478.399 75.4917 479.316 76.9927 479.918 78.6284C480.519 80.264 480.793 82.0023 480.723 83.7438C480.653 85.4853 480.241 87.1959 479.51 88.778C478.78 90.3606 477.745 91.7836 476.464 92.9656C475.184 94.1476 473.684 95.0655 472.049 95.6668C470.414 96.2681 468.677 96.5411 466.937 96.4701C465.196 96.3991 463.487 95.9855 461.907 95.253Z" fill="#F5F5F5"/>
<path d="M461.907 95.253C461.979 95.2628 462.049 95.2838 462.115 95.3155L462.704 95.5376C463.021 95.6681 463.348 95.7726 463.682 95.8499C464.136 95.989 464.599 96.0957 465.068 96.1691C466.319 96.3994 467.597 96.4415 468.861 96.294C470.536 96.1098 472.16 95.6056 473.645 94.8089C475.43 93.8494 476.965 92.4823 478.124 90.8184C479.474 88.9041 480.29 86.6643 480.488 84.3294C480.601 83.0735 480.524 81.8077 480.259 80.5749C480.123 79.9375 479.947 79.3094 479.732 78.6942C479.492 78.0772 479.212 77.4768 478.893 76.8967C477.555 74.4553 475.47 72.5073 472.944 71.3383C470.419 70.1693 467.586 69.8408 464.86 70.4009C464.211 70.5342 463.572 70.7104 462.947 70.9283C462.339 71.1603 461.748 71.4339 461.179 71.7472C460.067 72.3414 459.052 73.102 458.17 74.0027C456.52 75.6649 455.342 77.737 454.758 80.0058C454.251 81.9848 454.216 84.0553 454.654 86.0506C455.011 87.6982 455.68 89.2623 456.623 90.6587C457.329 91.7181 458.189 92.6655 459.175 93.4694C459.531 93.7704 459.908 94.0441 460.305 94.2884C460.583 94.4887 460.875 94.6696 461.179 94.8297L461.726 95.135C461.851 95.2044 461.914 95.2461 461.907 95.253C461.838 95.2344 461.773 95.2064 461.713 95.1697L461.144 94.8921C460.832 94.7464 460.533 94.5746 460.25 94.3786C459.847 94.1419 459.464 93.8726 459.106 93.5735C458.087 92.7796 457.198 91.8313 456.471 90.7628C455.389 89.2025 454.652 87.4291 454.309 85.561C453.965 83.6929 454.024 81.773 454.481 79.9295C455.067 77.6005 456.264 75.4705 457.948 73.7598C458.85 72.8325 459.888 72.0485 461.026 71.4349C461.612 71.1133 462.218 70.8327 462.843 70.5952C463.484 70.3695 464.139 70.1864 464.805 70.0469C467.604 69.4679 470.515 69.8034 473.11 71.0039C475.705 72.2044 477.846 74.2067 479.219 76.7163C479.544 77.3143 479.829 77.9333 480.072 78.5693C480.292 79.1998 480.471 79.8443 480.606 80.4986C480.878 81.7633 480.955 83.0622 480.835 84.3503C480.646 86.5868 479.895 88.7393 478.653 90.6078C477.41 92.4763 475.716 94.0002 473.728 95.0379C472.218 95.8289 470.57 96.3236 468.875 96.4953C467.592 96.6275 466.296 96.562 465.034 96.3009C464.563 96.2222 464.099 96.1062 463.647 95.9539C463.315 95.866 462.993 95.7476 462.683 95.6L462.101 95.3502C462.033 95.3233 461.968 95.2908 461.907 95.253Z" fill="#172833"/>
<path d="M468.577 83.5661C469.213 83.5785 469.838 83.4036 470.376 83.063C470.913 82.7225 471.339 82.2313 471.6 81.6506C471.792 81.2834 471.907 80.8811 471.94 80.468C471.972 80.0548 471.92 79.6393 471.788 79.2467C471.656 78.854 471.445 78.4923 471.169 78.1833C470.893 77.8744 470.557 77.6246 470.182 77.4491C469.807 77.2735 469.401 77.1759 468.987 77.1621C468.573 77.1483 468.161 77.2185 467.775 77.3686C467.389 77.5187 467.037 77.7455 466.741 78.0354C466.445 78.3252 466.211 78.6721 466.053 79.0551C465.773 79.634 465.67 80.2829 465.758 80.9201C465.846 81.5572 466.119 82.1543 466.545 82.6361C461.983 81.3036 460.035 86.0367 460.035 86.0367L470.095 90.7489C470.095 90.7489 472.508 86.1616 468.577 83.5661Z" fill="#6E18F3"/>
<path d="M367.642 79.6783C364.399 82.4446 360.191 83.8085 355.944 83.4701C351.696 83.1318 347.757 81.1188 344.991 77.8739C342.228 74.6275 340.865 70.4155 341.203 66.1638C341.541 61.9121 343.552 57.9688 346.794 55.2009C348.399 53.8299 350.258 52.7888 352.265 52.1371C354.272 51.4854 356.388 51.2359 358.492 51.4028C360.595 51.5698 362.645 52.1498 364.524 53.1099C366.404 54.07 368.076 55.3913 369.445 56.9983C370.815 58.606 371.854 60.4678 372.505 62.4777C373.156 64.4875 373.404 66.606 373.237 68.712C373.069 70.8181 372.489 72.8705 371.529 74.7521C370.569 76.6337 369.249 78.3076 367.642 79.6783Z" fill="#F5F5F5"/>
<path d="M367.642 79.6783L367.822 79.484L368.363 78.9427L368.765 78.5541C368.911 78.4014 369.05 78.2209 369.209 78.0405C369.586 77.6205 369.933 77.1753 370.249 76.708C371.144 75.4457 371.846 74.0561 372.329 72.5857C372.977 70.6448 373.248 68.5976 373.127 66.5548C372.994 64.0783 372.281 61.6677 371.047 59.5176C369.621 57.0542 367.565 55.0156 365.091 53.6117C364.436 53.2348 363.754 52.9055 363.052 52.6262C362.329 52.3448 361.588 52.1129 360.834 51.9322C360.064 51.7573 359.283 51.6322 358.497 51.5575C357.694 51.502 356.888 51.502 356.084 51.5575C354.434 51.6672 352.811 52.0421 351.28 52.6679C349.705 53.3185 348.24 54.2054 346.932 55.2981C345.65 56.4204 344.543 57.728 343.646 59.1776C342.788 60.5936 342.161 62.1375 341.788 63.751C341.605 64.5371 341.475 65.3347 341.4 66.1384C341.344 66.9263 341.344 67.7171 341.4 68.5049C341.485 70.036 341.81 71.5441 342.363 72.9743C343.285 75.4796 344.822 77.7125 346.832 79.4674C348.842 81.2223 351.261 82.4428 353.866 83.0165C355.862 83.4566 357.923 83.5108 359.939 83.1761C361.464 82.9383 362.944 82.4703 364.328 81.7881C364.842 81.5508 365.337 81.2772 365.812 80.9692C366.02 80.8443 366.214 80.7332 366.387 80.6152L366.838 80.2821L367.455 79.831C367.521 79.7747 367.593 79.7258 367.67 79.6853L367.476 79.8588L366.88 80.3376L366.443 80.6916C366.269 80.8096 366.075 80.9275 365.867 81.0594C365.399 81.3839 364.905 81.6694 364.39 81.913C363.002 82.6267 361.513 83.1229 359.974 83.3843C356.262 84.0426 352.436 83.3775 349.163 81.5047C345.889 79.6319 343.376 76.6699 342.058 73.1339C341.776 72.413 341.544 71.6732 341.365 70.9201C341.2 70.147 341.091 69.3631 341.039 68.5743C340.987 67.7678 340.987 66.9588 341.039 66.1523C341.116 65.3323 341.248 64.5185 341.434 63.7163C341.814 62.0633 342.455 60.4818 343.334 59.0318C345.142 56.0212 347.884 53.6842 351.141 52.3764C352.706 51.7371 354.363 51.3551 356.05 51.2452C356.871 51.1862 357.696 51.1862 358.518 51.2452C359.321 51.3212 360.118 51.451 360.903 51.6338C361.674 51.8104 362.432 52.0423 363.17 52.3278C363.885 52.6192 364.58 52.9577 365.25 53.341C367.767 54.7841 369.854 56.8732 371.296 59.3927C372.433 61.3907 373.131 63.6086 373.342 65.8981C373.554 68.1877 373.275 70.4961 372.523 72.6689C372.028 74.1607 371.303 75.5658 370.374 76.8329C370.053 77.3016 369.696 77.7448 369.306 78.1585C369.14 78.3389 368.994 78.5194 368.849 78.6651L368.433 79.0468L367.864 79.5604L367.642 79.6783Z" fill="#172833"/>
<path d="M358.171 66.4021C358.508 65.7074 358.632 64.9291 358.53 64.1641C358.428 63.399 358.103 62.6809 357.596 62.0993C357.294 61.6927 356.911 61.3524 356.473 61.0992C356.034 60.8461 355.548 60.6855 355.045 60.6274C354.542 60.5693 354.033 60.6148 353.548 60.7613C353.063 60.9077 352.614 61.152 352.227 61.4789C351.84 61.8059 351.524 62.2087 351.299 62.6624C351.073 63.1162 350.943 63.6114 350.916 64.1175C350.889 64.6235 350.966 65.1298 351.141 65.6051C351.317 66.0803 351.588 66.5145 351.938 66.8809C352.43 67.4789 353.087 67.9183 353.827 68.1442C354.567 68.3702 355.357 68.3725 356.098 68.151C352.32 72.5093 356.535 77.055 356.535 77.055L366.824 68.3522C366.824 68.3522 363.025 63.3901 358.171 66.4021Z" fill="#6E18F3"/>
<path d="M403.003 139.503C406.855 135.646 406.855 129.393 403.002 125.537C399.15 121.68 392.903 121.68 389.05 125.537C385.197 129.393 385.197 135.646 389.05 139.503C392.903 143.359 399.15 143.359 403.003 139.503Z" fill="#F5F5F5"/>
<path d="M405.892 132.521C405.823 131.715 405.698 130.915 405.518 130.127C404.953 127.987 403.686 126.1 401.919 124.769C400.625 123.785 399.104 123.142 397.496 122.899C395.889 122.657 394.246 122.822 392.719 123.381C390.921 124.043 389.358 125.221 388.226 126.768C387.003 128.428 386.343 130.437 386.343 132.5C386.343 134.563 387.003 136.572 388.226 138.232C388.805 139.032 389.507 139.735 390.306 140.314C391.049 140.879 391.875 141.326 392.753 141.64C394.386 142.233 396.147 142.384 397.856 142.077C399.684 141.732 401.376 140.876 402.738 139.609C404.1 138.342 405.076 136.714 405.552 134.915C405.733 134.127 405.858 133.327 405.927 132.521C405.937 132.574 405.937 132.628 405.927 132.68V133.152C405.927 133.408 405.906 133.663 405.864 133.916C405.828 134.264 405.768 134.61 405.684 134.95C405.462 135.886 405.102 136.784 404.616 137.615C403.899 138.839 402.93 139.896 401.773 140.716C400.615 141.536 399.297 142.099 397.905 142.369C396.143 142.703 394.323 142.56 392.636 141.952C391.721 141.624 390.863 141.156 390.091 140.564C389.273 139.971 388.555 139.252 387.963 138.434C386.692 136.714 386.007 134.632 386.007 132.493C386.007 130.354 386.692 128.272 387.963 126.552C389.144 124.959 390.77 123.752 392.636 123.082C394.323 122.475 396.143 122.331 397.905 122.666C399.421 122.961 400.847 123.61 402.065 124.561C403.081 125.342 403.935 126.313 404.582 127.42C405.07 128.249 405.43 129.148 405.649 130.085C405.733 130.425 405.794 130.77 405.83 131.119C405.871 131.371 405.892 131.627 405.892 131.882C405.892 132.07 405.892 132.222 405.892 132.354C405.903 132.409 405.903 132.466 405.892 132.521Z" fill="#172833"/>
<path d="M391.769 131.993C391.809 131.452 392.015 130.936 392.358 130.515C392.677 130.089 393.12 129.774 393.627 129.613C394.061 129.493 394.522 129.518 394.941 129.683C395.36 129.849 395.714 130.145 395.95 130.529C396.084 130.257 396.278 130.02 396.518 129.835C396.739 129.662 396.992 129.537 397.263 129.466C397.533 129.396 397.816 129.382 398.092 129.426C398.621 129.511 399.108 129.767 399.479 130.154C399.873 130.526 400.142 131.011 400.248 131.542C400.374 132.223 400.277 132.927 399.971 133.548C399.612 134.179 399.108 134.717 398.501 135.116C397.517 135.81 396.22 136.65 396.22 136.65C396.22 136.65 395.028 135.873 393.967 135.318C393.311 134.995 392.743 134.519 392.31 133.93C391.928 133.358 391.739 132.68 391.769 131.993Z" fill="#6E18F3"/>
<path d="M32.6252 117.608C41.8124 113.189 45.6806 102.151 41.265 92.9546C36.8494 83.7585 25.8222 79.8867 16.6349 84.3065C7.44772 88.7263 3.57954 99.7642 7.99513 108.96C12.4107 118.156 23.438 122.028 32.6252 117.608Z" fill="#F5F5F5"/>
<path d="M43.0917 100.958C43.081 100.858 43.081 100.758 43.0917 100.659L43.0293 99.7848L42.9877 99.1394C42.9877 98.9034 42.9114 98.6467 42.8698 98.3691C42.7864 97.7267 42.6566 97.0912 42.4815 96.4675C42.0346 94.7533 41.3334 93.1157 40.4015 91.6095C38.217 87.9488 34.8253 85.1655 30.8108 83.7391C26.7963 82.3126 22.4105 82.3324 18.409 83.7951C17.5903 84.0905 16.7934 84.443 16.0239 84.8499C15.2413 85.2737 14.4906 85.7538 13.7775 86.2865C13.0461 86.83 12.3512 87.4212 11.6975 88.0562C11.0557 88.7047 10.4581 89.3957 9.90874 90.1243C8.77296 91.6525 7.89038 93.3538 7.29487 95.1628C6.03765 98.9093 6.03765 102.964 7.29487 106.711C7.89036 108.522 8.77292 110.226 9.90874 111.756C10.4558 112.502 11.0535 113.209 11.6975 113.873C12.3512 114.508 13.0461 115.099 13.7775 115.643C14.4921 116.175 15.2427 116.658 16.0239 117.086C16.7935 117.491 17.5905 117.841 18.409 118.134C22.4112 119.589 26.7942 119.604 30.8067 118.179C34.8191 116.753 38.2112 113.974 40.4015 110.32C41.3327 108.813 42.0338 107.176 42.4815 105.462C42.6566 104.838 42.7864 104.203 42.8698 103.56C42.9114 103.276 42.9599 103.026 42.9877 102.79L43.0293 102.144L43.057 101.228C43.047 101.129 43.047 101.029 43.057 100.93C43.0661 101.029 43.0661 101.129 43.057 101.228V102.11V102.762C43.057 102.998 42.9946 103.255 42.953 103.539C42.883 104.189 42.7625 104.831 42.5925 105.462C42.1814 107.207 41.5032 108.879 40.5818 110.417C38.1273 114.513 34.2 117.515 29.6053 118.805C25.0105 120.096 20.0966 119.577 15.8714 117.357C15.0787 116.939 14.3165 116.466 13.5903 115.941C12.8452 115.388 12.1365 114.788 11.4687 114.144C10.8151 113.464 10.206 112.743 9.64527 111.985C8.48041 110.429 7.57864 108.692 6.97594 106.843C5.68462 103.016 5.68462 98.8713 6.97594 95.0448C7.58433 93.1984 8.48563 91.462 9.64527 89.9023C10.2063 89.1425 10.8178 88.4214 11.4757 87.7439C12.1381 87.1007 12.8447 86.5047 13.5903 85.9603C14.3171 85.4162 15.0817 84.9245 15.8783 84.4891C16.6624 84.0809 17.4732 83.7262 18.305 83.4272C21.4369 82.2933 24.8157 82.0225 28.0879 82.643C30.6728 83.1419 33.1223 84.1851 35.2739 85.7034C37.4254 87.2218 39.23 89.1805 40.5679 91.4499C41.4907 92.9898 42.169 94.6638 42.5786 96.412C42.7492 97.0423 42.8698 97.6851 42.9391 98.3344C42.9807 98.612 43.0223 98.8687 43.0431 99.1116V99.7571V100.638C43.0701 100.743 43.0863 100.85 43.0917 100.958Z" fill="#172833"/>
<path d="M16.6688 99.9653C16.7426 98.9486 17.1275 97.9793 17.7712 97.1893C18.3659 96.3943 19.1955 95.8067 20.1424 95.5098C20.9528 95.2796 21.8163 95.3219 22.6003 95.6303C23.3843 95.9387 24.0456 96.4962 24.4826 97.217C24.7366 96.7097 25.0988 96.2643 25.5434 95.9123C25.9601 95.5915 26.4367 95.3575 26.9452 95.224C27.4536 95.0905 27.9836 95.0603 28.504 95.135C29.481 95.3235 30.3765 95.8081 31.0693 96.523C31.8041 97.2303 32.3049 98.1458 32.5045 99.1464C32.7374 100.416 32.5576 101.727 31.9914 102.887C31.315 104.074 30.3639 105.08 29.2181 105.823C27.3808 107.093 24.9472 108.696 24.9472 108.696C24.9472 108.696 22.7216 107.238 20.7317 106.204C19.5102 105.609 18.4478 104.731 17.6325 103.643C16.9257 102.553 16.5878 101.263 16.6688 99.9653Z" fill="#6E18F3"/>
<path d="M243.25 19.4127C242.094 18.7298 241.084 17.8256 240.277 16.7518C239.47 15.6779 238.882 14.4555 238.548 13.1544C238.213 11.8532 238.137 10.4987 238.326 9.16835C238.514 7.83799 238.962 6.55777 239.645 5.40084C241.024 3.06553 243.273 1.37328 245.897 0.695422C248.521 0.0175624 251.307 0.409453 253.643 1.7851C254.8 2.46811 255.811 3.37253 256.619 4.44671C257.426 5.5209 258.015 6.7438 258.35 8.04559C258.686 9.34738 258.762 10.7026 258.574 12.0337C258.386 13.3649 257.938 14.646 257.255 15.8039C255.876 18.1414 253.626 19.8347 250.999 20.5115C248.373 21.1883 245.585 20.793 243.25 19.4127Z" fill="#F5F5F5"/>
<path d="M243.25 19.4196C244.008 19.777 244.789 20.0853 245.586 20.3426C247.79 20.9653 250.139 20.8284 252.256 19.954C253.817 19.3144 255.192 18.2921 256.255 16.981C257.317 15.67 258.033 14.1125 258.337 12.4519C258.524 11.5011 258.561 10.5271 258.448 9.56481C258.353 8.55909 258.098 7.57506 257.692 6.65001C256.854 4.67759 255.407 3.02573 253.563 1.93664C251.719 0.847543 249.574 0.378516 247.445 0.598332C246.439 0.69087 245.454 0.941469 244.526 1.34091C243.63 1.70819 242.797 2.21403 242.057 2.83995C240.752 3.9054 239.735 5.28272 239.102 6.84489C238.468 8.40707 238.237 10.1038 238.431 11.7787C238.69 14.0579 239.705 16.1842 241.315 17.8165C241.922 18.3931 242.569 18.9265 243.25 19.4127L243.083 19.3363L242.667 19.0796C242.438 18.9444 242.221 18.7913 242.016 18.6215C241.724 18.4134 241.451 18.1813 241.198 17.9275C240.472 17.2416 239.859 16.4453 239.381 15.5679C238.67 14.2823 238.24 12.86 238.121 11.3954C238.001 9.93074 238.195 8.45743 238.688 7.07335C239.316 5.32517 240.401 3.7772 241.829 2.59011C242.596 1.94662 243.456 1.42255 244.38 1.03555C245.337 0.616575 246.356 0.354146 247.396 0.258274C249.597 0.0251918 251.814 0.506518 253.72 1.6312C255.626 2.75588 257.121 4.46431 257.983 6.50427C258.796 8.39474 259.024 10.4862 258.635 12.5074C258.315 14.2133 257.57 15.8108 256.47 17.1524C255.369 18.494 253.949 19.5363 252.339 20.183C251.11 20.6763 249.796 20.9261 248.471 20.9187C247.473 20.9214 246.482 20.7693 245.531 20.4676C245.182 20.3689 244.841 20.2436 244.512 20.0928C244.271 19.9969 244.039 19.8808 243.818 19.7458L243.395 19.5029L243.25 19.4196Z" fill="#172833"/>
<path d="M249.268 10.9597C249.755 11.0195 250.249 10.9343 250.688 10.7146C251.127 10.4948 251.492 10.1504 251.736 9.7244C251.922 9.45799 252.05 9.15623 252.114 8.83789C252.178 8.51956 252.176 8.19148 252.108 7.87403C252.04 7.55659 251.907 7.25659 251.718 6.9927C251.529 6.72881 251.288 6.50667 251.009 6.34011C250.731 6.17355 250.421 6.06612 250.099 6.02451C249.778 5.98291 249.451 6.00801 249.139 6.09827C248.828 6.18853 248.538 6.342 248.288 6.54914C248.038 6.75629 247.834 7.01267 247.687 7.30234C247.432 7.7246 247.305 8.21257 247.324 8.70593C247.342 9.19929 247.505 9.67642 247.791 10.0783C244.394 8.69034 242.529 12.1603 242.529 12.1603L249.892 16.5603C249.892 16.5603 252.097 13.2569 249.268 10.9597Z" fill="#6E18F3"/>
<path d="M67.6463 59.6936C66.8463 60.7719 65.8415 61.6821 64.6892 62.3723C63.5369 63.0625 62.2598 63.5192 60.9307 63.7161C59.6017 63.9131 58.2467 63.8465 56.9433 63.5202C55.6399 63.1939 54.4136 62.6143 53.3344 61.8145C51.156 60.1986 49.7081 57.7855 49.3082 55.1047C48.9084 52.4239 49.5894 49.6943 51.2017 47.5148C52.0018 46.4357 53.007 45.5247 54.1597 44.8338C55.3124 44.1428 56.5901 43.6855 57.9199 43.488C59.2496 43.2905 60.6053 43.3566 61.9095 43.6826C63.2138 44.0085 64.4411 44.5879 65.5212 45.3877C67.7017 47.0037 69.1506 49.4187 69.5491 52.1016C69.9476 54.7844 69.2632 57.5153 67.6463 59.6936Z" fill="#F5F5F5"/>
<path d="M67.6531 59.6945C68.0878 58.9777 68.476 58.2337 68.8153 57.4672C69.6649 55.3404 69.7743 52.9899 69.126 50.7933C68.6531 49.1741 67.7801 47.6998 66.5873 46.5059C65.3945 45.3121 63.9204 44.4373 62.3006 43.9619C61.3746 43.6767 60.4098 43.5377 59.4409 43.5497C58.4308 43.5391 57.4255 43.69 56.4631 43.9967C54.4139 44.6237 52.6198 45.8902 51.3439 47.6104C50.068 49.3307 49.3774 51.4142 49.3734 53.5554C49.3603 54.5655 49.5066 55.5713 49.8068 56.536C50.0784 57.4656 50.4944 58.3468 51.0396 59.1474C51.9628 60.5571 53.2263 61.712 54.7137 62.5056C56.2011 63.2991 57.8644 63.7058 59.5504 63.688C61.8441 63.6693 64.0649 62.8814 65.8566 61.4507C66.4935 60.9075 67.0915 60.3204 67.6462 59.6938L67.5529 59.8513L67.2541 60.2381C67.0957 60.4518 66.9206 60.6525 66.7304 60.8384C66.493 61.1066 66.2335 61.3545 65.9547 61.5795C65.1967 62.2297 64.3406 62.7562 63.4181 63.1395C62.0653 63.7123 60.6058 63.9909 59.1367 63.9567C57.6676 63.9225 56.2226 63.5763 54.8976 62.9411C53.2247 62.1333 51.7986 60.893 50.7673 59.3489C50.2075 58.5181 49.7762 57.6079 49.4879 56.6489C49.1713 55.653 49.0167 54.6129 49.0301 53.5681C49.0284 51.3553 49.7388 49.2006 51.0566 47.4222C52.3744 45.6438 54.2297 44.336 56.3486 43.6918C58.3137 43.0806 60.4174 43.0734 62.3869 43.6712C64.05 44.168 65.561 45.0757 66.7802 46.3103C67.9994 47.5448 68.8875 49.0664 69.3625 50.7345C69.7245 52.0092 69.8356 53.342 69.6897 54.659C69.5882 55.6511 69.3332 56.6215 68.9338 57.5354C68.7992 57.872 68.639 58.1978 68.4545 58.5099C68.334 58.739 68.1943 58.9575 68.037 59.1631L67.7512 59.5584L67.6531 59.6945Z" fill="#172833"/>
<path d="M59.8687 52.825C59.9791 52.3468 59.946 51.8466 59.7733 51.387C59.6007 50.9274 59.2963 50.5288 58.8982 50.2412C58.6526 50.0289 58.3659 49.8694 58.056 49.7725C57.7461 49.6757 57.4196 49.6436 57.0968 49.6782C56.7739 49.7128 56.4617 49.8135 56.1795 49.9739C55.8973 50.1343 55.6512 50.3509 55.4564 50.6105C55.2617 50.87 55.1224 51.1668 55.0474 51.4824C54.9724 51.798 54.9632 52.1256 55.0204 52.445C55.0776 52.7643 55.2 53.0685 55.3799 53.3385C55.5598 53.6086 55.7934 53.8388 56.0661 54.0149C56.4594 54.3132 56.9314 54.4898 57.424 54.523C57.9166 54.5562 58.4081 54.4445 58.8378 54.2016C57.1023 57.4352 60.3583 59.6528 60.3583 59.6528L65.5038 52.7899C65.5038 52.7899 62.4489 50.2518 59.8687 52.825Z" fill="#6E18F3"/>
<defs>
<filter id="filter0_d_352_27359" x="50.4" y="43.1148" width="328.2" height="208.2" filterUnits="userSpaceOnUse" color-interpolation-filters="sRGB">
<feFlood flood-opacity="0" result="BackgroundImageFix"/>
<feColorMatrix in="SourceAlpha" type="matrix" values="0 0 0 0 0 0 0 0 0 0 0 0 0 0 0 0 0 0 127 0" result="hardAlpha"/>
<feOffset dy="4"/>
<feGaussianBlur stdDeviation="8.3"/>
<feComposite in2="hardAlpha" operator="out"/>
<feColorMatrix type="matrix" values="0 0 0 0 0 0 0 0 0 0 0 0 0 0 0 0 0 0 0.25 0"/>
<feBlend mode="normal" in2="BackgroundImageFix" result="effect1_dropShadow_352_27359"/>
<feBlend mode="normal" in="SourceGraphic" in2="effect1_dropShadow_352_27359" result="shape"/>
</filter>
</defs>
</svg>
